<svg xmlns="http://www.w3.org/2000/svg" xmlns:xlink="http://www.w3.org/1999/xlink" width="500" zoomAndPan="magnify" viewBox="0 0 375 374.999991" height="500" preserveAspectRatio="xMidYMid meet" version="1.0"><defs><g/><clipPath id="id1"><path d="M 165.453125 115 L 247.953125 115 L 247.953125 187.855469 L 165.453125 187.855469 Z M 165.453125 115 " clip-rule="nonzero"/></clipPath></defs><rect x="-37.5" width="450" fill="#ffffff" y="-37.499999" height="449.999989" fill-opacity="1"/><rect x="-37.5" width="450" fill="#ffffff" y="-37.499999" height="449.999989" fill-opacity="1"/><rect x="-37.5" width="450" fill="#ffffff" y="-37.499999" height="449.999989" fill-opacity="1"/><rect x="-37.5" width="450" fill="#ffffff" y="-37.499999" height="449.999989" fill-opacity="1"/><g fill="#dc3c4d" fill-opacity="0.302"><g transform="translate(133.220047, 200.941207)"><g><path d="M 7.984375 -8.65625 C 5.265625 -2.132812 3.832031 1.304688 3.6875 1.671875 C 3.507812 2.066406 3.320312 2.476562 3.125 2.90625 C 3.082031 3.019531 3.050781 3.140625 3.03125 3.265625 C 2.664062 4.085938 2.3125 4.925781 1.96875 5.78125 C -0.175781 10.894531 -2.203125 16.023438 -4.109375 21.171875 C -4.109375 21.234375 -4.117188 21.289062 -4.140625 21.34375 C -4.160156 21.46875 -4.210938 21.597656 -4.296875 21.734375 C -4.554688 22.171875 -4.914062 22.367188 -5.375 22.328125 C -5.488281 22.359375 -5.613281 22.367188 -5.75 22.359375 C -5.988281 22.304688 -6.175781 22.210938 -6.3125 22.078125 C -6.445312 21.941406 -6.484375 21.734375 -6.421875 21.453125 C -6.160156 20.453125 -5.835938 19.457031 -5.453125 18.46875 C -4.109375 15.0625 -2.773438 11.648438 -1.453125 8.234375 C -0.660156 6.179688 0.140625 4.132812 0.953125 2.09375 C 1.304688 1.269531 2.394531 -1.328125 4.21875 -5.703125 C 6.039062 -10.085938 7.109375 -12.664062 7.421875 -13.4375 C 9.828125 -19.25 12.378906 -25.015625 15.078125 -30.734375 C 16.796875 -34.472656 18.492188 -38.234375 20.171875 -42.015625 C 20.359375 -42.460938 20.601562 -42.875 20.90625 -43.25 C 21.164062 -43.539062 21.484375 -43.722656 21.859375 -43.796875 C 21.960938 -43.878906 22.078125 -43.898438 22.203125 -43.859375 C 22.503906 -43.921875 22.738281 -43.859375 22.90625 -43.671875 C 23.082031 -43.484375 23.132812 -43.253906 23.0625 -42.984375 C 22.988281 -42.773438 22.914062 -42.5625 22.84375 -42.34375 C 22.382812 -41.03125 21.867188 -39.722656 21.296875 -38.421875 C 19.359375 -34.054688 17.398438 -29.691406 15.421875 -25.328125 C 14.390625 -23.097656 13.382812 -20.867188 12.40625 -18.640625 C 11.90625 -17.554688 11.414062 -16.46875 10.9375 -15.375 C 10.769531 -14.96875 10.597656 -14.550781 10.421875 -14.125 C 10.378906 -14.0625 10.351562 -14 10.34375 -13.9375 C 10.257812 -13.789062 10.195312 -13.640625 10.15625 -13.484375 C 10.125 -13.335938 10.140625 -13.203125 10.203125 -13.078125 C 10.304688 -12.960938 10.4375 -12.898438 10.59375 -12.890625 C 10.738281 -12.921875 10.882812 -12.957031 11.03125 -13 C 11.0625 -13.039062 11.113281 -13.070312 11.1875 -13.09375 C 12.789062 -13.675781 14.394531 -14.253906 16 -14.828125 C 20.476562 -16.460938 24.929688 -18.160156 29.359375 -19.921875 C 33.785156 -21.679688 38.164062 -23.609375 42.5 -25.703125 C 45.226562 -27.015625 47.90625 -28.382812 50.53125 -29.8125 C 53.164062 -31.238281 55.742188 -32.804688 58.265625 -34.515625 C 60.367188 -35.929688 62.332031 -37.566406 64.15625 -39.421875 C 65.050781 -40.328125 65.820312 -41.34375 66.46875 -42.46875 C 67.78125 -44.71875 67.742188 -46.734375 66.359375 -48.515625 C 65.515625 -49.585938 64.484375 -50.445312 63.265625 -51.09375 C 61.410156 -52.132812 59.421875 -52.921875 57.296875 -53.453125 C 52.109375 -54.671875 46.757812 -55.316406 41.25 -55.390625 C 38.007812 -55.410156 34.742188 -55.332031 31.453125 -55.15625 C 29.660156 -55.050781 27.867188 -54.898438 26.078125 -54.703125 C 23.378906 -54.398438 20.6875 -53.984375 18 -53.453125 C 15.3125 -52.921875 12.640625 -52.144531 9.984375 -51.125 C 8.316406 -50.46875 6.695312 -49.65625 5.125 -48.6875 C 3.894531 -48.007812 2.828125 -47.144531 1.921875 -46.09375 C 1.671875 -45.789062 1.375 -45.554688 1.03125 -45.390625 C 0.851562 -45.296875 0.691406 -45.253906 0.546875 -45.265625 C 0.242188 -45.222656 -0.0078125 -45.296875 -0.21875 -45.484375 C -0.507812 -45.765625 -0.53125 -46.09375 -0.28125 -46.46875 C 0.101562 -47.050781 0.550781 -47.566406 1.0625 -48.015625 C 1.582031 -48.472656 2.128906 -48.882812 2.703125 -49.25 C 5.328125 -50.988281 8.085938 -52.328125 10.984375 -53.265625 C 14.503906 -54.398438 18.0625 -55.179688 21.65625 -55.609375 C 25.125 -56.097656 28.609375 -56.46875 32.109375 -56.71875 L 32.1875 -56.734375 C 32.851562 -56.773438 33.519531 -56.816406 34.1875 -56.859375 C 37.550781 -57.015625 40.882812 -57.050781 44.1875 -56.96875 C 47.5 -56.894531 50.785156 -56.597656 54.046875 -56.078125 C 55.722656 -55.804688 57.378906 -55.460938 59.015625 -55.046875 C 60.660156 -54.640625 62.25 -54.09375 63.78125 -53.40625 C 65.457031 -52.707031 66.941406 -51.753906 68.234375 -50.546875 C 71.085938 -47.796875 71.15625 -44.539062 68.4375 -40.78125 C 67.175781 -39.132812 65.738281 -37.664062 64.125 -36.375 C 62.082031 -34.695312 59.972656 -33.171875 57.796875 -31.796875 C 55.628906 -30.421875 53.40625 -29.144531 51.125 -27.96875 C 46.425781 -25.425781 41.65625 -23.113281 36.8125 -21.03125 C 31.96875 -18.957031 27.085938 -17.019531 22.171875 -15.21875 C 18.335938 -13.78125 14.5 -12.398438 10.65625 -11.078125 C 10.039062 -10.890625 9.503906 -10.609375 9.046875 -10.234375 C 8.585938 -9.859375 8.234375 -9.332031 7.984375 -8.65625 Z M 77.21875 3.828125 C 78.582031 4.867188 70.773438 3.425781 53.796875 -0.5 C 42.160156 -3.257812 30.4375 -5.816406 18.625 -8.171875 C 15.320312 -8.796875 12.019531 -9.390625 8.71875 -9.953125 C 7.382812 -10.210938 6.050781 -10.445312 4.71875 -10.65625 C 4.269531 -10.738281 3.816406 -10.796875 3.359375 -10.828125 C 3.296875 -10.828125 3.21875 -10.835938 3.125 -10.859375 C 2.820312 -10.835938 2.835938 -11.234375 3.171875 -12.046875 C 3.503906 -12.859375 3.957031 -13.132812 4.53125 -12.875 C 5.3125 -12.519531 7.101562 -12.046875 9.90625 -11.453125 C 12.707031 -10.867188 16.328125 -10.117188 20.765625 -9.203125 C 29.171875 -7.554688 39.226562 -5.414062 50.9375 -2.78125 C 67.09375 0.59375 75.851562 2.796875 77.21875 3.828125 Z M 77.21875 3.828125 "/></g></g></g><g fill="#dc3c4d" fill-opacity="0.302"><g transform="translate(177.929995, 198.121667)"><g><path d="M 2.921875 -4.984375 L 2.859375 -4.984375 C 0.890625 -4.890625 -0.425781 -5.242188 -1.09375 -6.046875 C -1.769531 -6.847656 -1.8125 -7.972656 -1.21875 -9.421875 C -0.726562 -10.523438 -0.0703125 -11.5 0.75 -12.34375 C 1.03125 -12.632812 1.316406 -12.867188 1.609375 -13.046875 C 1.910156 -13.234375 2.257812 -13.335938 2.65625 -13.359375 C 2.882812 -13.410156 3.144531 -13.382812 3.4375 -13.28125 C 3.539062 -13.269531 3.640625 -13.242188 3.734375 -13.203125 C 3.960938 -13.265625 4.179688 -13.351562 4.390625 -13.46875 C 4.441406 -13.507812 4.515625 -13.546875 4.609375 -13.578125 C 5.046875 -13.785156 5.515625 -13.894531 6.015625 -13.90625 C 6.210938 -13.914062 6.421875 -13.925781 6.640625 -13.9375 C 7.429688 -13.863281 8.046875 -13.566406 8.484375 -13.046875 C 8.929688 -12.535156 9.125 -11.882812 9.0625 -11.09375 C 9.019531 -10.613281 8.894531 -10.15625 8.6875 -9.71875 C 7.3125 -6.84375 5.429688 -5.265625 3.046875 -4.984375 Z M 5.640625 -12.4375 C 4.578125 -12.40625 3.648438 -12.035156 2.859375 -11.328125 C 2.078125 -10.628906 1.507812 -9.835938 1.15625 -8.953125 C 0.800781 -8.078125 0.734375 -7.375 0.953125 -6.84375 C 1.171875 -6.3125 1.75 -6.195312 2.6875 -6.5 C 3.726562 -6.894531 4.628906 -7.5625 5.390625 -8.5 C 6.148438 -9.445312 6.59375 -10.320312 6.71875 -11.125 C 6.851562 -11.9375 6.492188 -12.375 5.640625 -12.4375 Z M 5.640625 -12.4375 "/></g></g></g><g fill="#dc3c4d" fill-opacity="0.302"><g transform="translate(188.667666, 197.444518)"><g><path d="M 13.90625 -11.46875 C 13.976562 -11.46875 14.054688 -11.453125 14.140625 -11.421875 C 14.234375 -11.390625 14.3125 -11.351562 14.375 -11.3125 C 14.570312 -11.144531 14.601562 -10.9375 14.46875 -10.6875 C 14.289062 -10.46875 14.117188 -10.28125 13.953125 -10.125 C 12.984375 -9.09375 11.890625 -8.21875 10.671875 -7.5 C 8.734375 -6.351562 6.5625 -5.691406 4.15625 -5.515625 C 3.269531 -5.429688 2.347656 -5.519531 1.390625 -5.78125 C -0.378906 -6.351562 -1.160156 -7.5625 -0.953125 -9.40625 C -0.671875 -11.101562 0.1875 -12.554688 1.625 -13.765625 C 3.0625 -14.972656 4.648438 -15.5625 6.390625 -15.53125 C 6.722656 -15.5 7.050781 -15.445312 7.375 -15.375 C 7.6875 -15.257812 7.921875 -15.085938 8.078125 -14.859375 C 8.242188 -14.640625 8.269531 -14.453125 8.15625 -14.296875 C 7.851562 -13.921875 7.488281 -13.8125 7.0625 -13.96875 C 6.414062 -14.195312 5.835938 -14.234375 5.328125 -14.078125 C 4.828125 -13.921875 4.320312 -13.609375 3.8125 -13.140625 C 3.34375 -12.710938 2.832031 -12.109375 2.28125 -11.328125 C 1.738281 -10.546875 1.40625 -9.769531 1.28125 -9 C 1.164062 -8.238281 1.539062 -7.65625 2.40625 -7.25 C 3.375 -6.875 4.34375 -6.828125 5.3125 -7.109375 C 7.738281 -7.765625 9.957031 -8.84375 11.96875 -10.34375 C 12.15625 -10.445312 12.316406 -10.566406 12.453125 -10.703125 C 12.671875 -10.890625 12.894531 -11.046875 13.125 -11.171875 C 13.363281 -11.304688 13.625 -11.40625 13.90625 -11.46875 Z M 13.90625 -11.46875 "/></g></g></g><g fill="#dc3c4d" fill-opacity="0.302"><g transform="translate(202.155474, 196.593937)"><g><path d="M 15.015625 -11.296875 C 15.128906 -11.160156 15.164062 -11.015625 15.125 -10.859375 C 15.082031 -10.710938 14.992188 -10.570312 14.859375 -10.4375 C 13.972656 -9.550781 12.972656 -8.820312 11.859375 -8.25 C 9.953125 -7.195312 7.925781 -6.5 5.78125 -6.15625 C 4.101562 -5.875 2.472656 -6.023438 0.890625 -6.609375 C 0.304688 -6.835938 -0.101562 -6.675781 -0.34375 -6.125 C -0.675781 -5.363281 -1.03125 -4.597656 -1.40625 -3.828125 C -1.570312 -3.398438 -1.769531 -2.957031 -2 -2.5 C -2.007812 -2.445312 -2.03125 -2.382812 -2.0625 -2.3125 C -2.144531 -2.15625 -2.222656 -2.003906 -2.296875 -1.859375 C -2.378906 -1.722656 -2.53125 -1.617188 -2.75 -1.546875 C -2.851562 -1.523438 -2.960938 -1.507812 -3.078125 -1.5 C -3.203125 -1.488281 -3.3125 -1.507812 -3.40625 -1.5625 C -3.488281 -1.613281 -3.566406 -1.691406 -3.640625 -1.796875 C -3.710938 -1.910156 -3.753906 -2.03125 -3.765625 -2.15625 C -3.691406 -2.5625 -3.578125 -2.957031 -3.421875 -3.34375 C -3.109375 -4.21875 -2.796875 -5.085938 -2.484375 -5.953125 C -1.679688 -8.140625 -0.84375 -10.300781 0.03125 -12.4375 C 2.445312 -18.34375 4.738281 -24.296875 6.90625 -30.296875 C 7.070312 -30.878906 7.316406 -31.40625 7.640625 -31.875 C 7.890625 -32.207031 8.253906 -32.316406 8.734375 -32.203125 C 9.234375 -32.023438 9.40625 -31.691406 9.25 -31.203125 C 8.988281 -30.179688 8.695312 -29.15625 8.375 -28.125 C 6.789062 -23.375 5.023438 -18.707031 3.078125 -14.125 C 2.679688 -13.132812 2.554688 -12.519531 2.703125 -12.28125 C 2.859375 -12.050781 3.175781 -12.050781 3.65625 -12.28125 C 4.132812 -12.519531 4.691406 -12.835938 5.328125 -13.234375 C 5.796875 -13.523438 6.253906 -13.789062 6.703125 -14.03125 C 6.796875 -14.09375 6.882812 -14.144531 6.96875 -14.1875 C 7.507812 -14.539062 8.113281 -14.753906 8.78125 -14.828125 C 9.039062 -14.847656 9.234375 -14.742188 9.359375 -14.515625 C 9.441406 -14.367188 9.453125 -14.238281 9.390625 -14.125 C 9.335938 -14.019531 9.269531 -13.929688 9.1875 -13.859375 C 8.207031 -13.203125 7.210938 -12.582031 6.203125 -12 C 5.722656 -11.726562 5.21875 -11.445312 4.6875 -11.15625 C 4.175781 -10.875 3.679688 -10.578125 3.203125 -10.265625 C 2.859375 -10.046875 2.546875 -9.796875 2.265625 -9.515625 C 1.628906 -8.742188 1.742188 -8.148438 2.609375 -7.734375 C 3.296875 -7.484375 3.988281 -7.375 4.6875 -7.40625 C 5.382812 -7.4375 6.070312 -7.554688 6.75 -7.765625 C 8.863281 -8.378906 10.816406 -9.285156 12.609375 -10.484375 C 12.753906 -10.566406 12.898438 -10.648438 13.046875 -10.734375 C 13.378906 -10.984375 13.738281 -11.210938 14.125 -11.421875 C 14.257812 -11.492188 14.414062 -11.53125 14.59375 -11.53125 C 14.769531 -11.53125 14.910156 -11.453125 15.015625 -11.296875 Z M 15.015625 -11.296875 "/></g></g></g><g fill="#dc3c4d" fill-opacity="0.502"><g transform="translate(134.288526, 200.118095)"><g><path d="M 7.984375 -8.65625 C 5.265625 -2.132812 3.832031 1.304688 3.6875 1.671875 C 3.507812 2.066406 3.320312 2.476562 3.125 2.90625 C 3.082031 3.019531 3.050781 3.140625 3.03125 3.265625 C 2.664062 4.085938 2.3125 4.925781 1.96875 5.78125 C -0.175781 10.894531 -2.203125 16.023438 -4.109375 21.171875 C -4.109375 21.234375 -4.117188 21.289062 -4.140625 21.34375 C -4.160156 21.46875 -4.210938 21.597656 -4.296875 21.734375 C -4.554688 22.171875 -4.914062 22.367188 -5.375 22.328125 C -5.488281 22.359375 -5.613281 22.367188 -5.75 22.359375 C -5.988281 22.304688 -6.175781 22.210938 -6.3125 22.078125 C -6.445312 21.941406 -6.484375 21.734375 -6.421875 21.453125 C -6.160156 20.453125 -5.835938 19.457031 -5.453125 18.46875 C -4.109375 15.0625 -2.773438 11.648438 -1.453125 8.234375 C -0.660156 6.179688 0.140625 4.132812 0.953125 2.09375 C 1.304688 1.269531 2.394531 -1.328125 4.21875 -5.703125 C 6.039062 -10.085938 7.109375 -12.664062 7.421875 -13.4375 C 9.828125 -19.25 12.378906 -25.015625 15.078125 -30.734375 C 16.796875 -34.472656 18.492188 -38.234375 20.171875 -42.015625 C 20.359375 -42.460938 20.601562 -42.875 20.90625 -43.25 C 21.164062 -43.539062 21.484375 -43.722656 21.859375 -43.796875 C 21.960938 -43.878906 22.078125 -43.898438 22.203125 -43.859375 C 22.503906 -43.921875 22.738281 -43.859375 22.90625 -43.671875 C 23.082031 -43.484375 23.132812 -43.253906 23.0625 -42.984375 C 22.988281 -42.773438 22.914062 -42.5625 22.84375 -42.34375 C 22.382812 -41.03125 21.867188 -39.722656 21.296875 -38.421875 C 19.359375 -34.054688 17.398438 -29.691406 15.421875 -25.328125 C 14.390625 -23.097656 13.382812 -20.867188 12.40625 -18.640625 C 11.90625 -17.554688 11.414062 -16.46875 10.9375 -15.375 C 10.769531 -14.96875 10.597656 -14.550781 10.421875 -14.125 C 10.378906 -14.0625 10.351562 -14 10.34375 -13.9375 C 10.257812 -13.789062 10.195312 -13.640625 10.15625 -13.484375 C 10.125 -13.335938 10.140625 -13.203125 10.203125 -13.078125 C 10.304688 -12.960938 10.4375 -12.898438 10.59375 -12.890625 C 10.738281 -12.921875 10.882812 -12.957031 11.03125 -13 C 11.0625 -13.039062 11.113281 -13.070312 11.1875 -13.09375 C 12.789062 -13.675781 14.394531 -14.253906 16 -14.828125 C 20.476562 -16.460938 24.929688 -18.160156 29.359375 -19.921875 C 33.785156 -21.679688 38.164062 -23.609375 42.5 -25.703125 C 45.226562 -27.015625 47.90625 -28.382812 50.53125 -29.8125 C 53.164062 -31.238281 55.742188 -32.804688 58.265625 -34.515625 C 60.367188 -35.929688 62.332031 -37.566406 64.15625 -39.421875 C 65.050781 -40.328125 65.820312 -41.34375 66.46875 -42.46875 C 67.78125 -44.71875 67.742188 -46.734375 66.359375 -48.515625 C 65.515625 -49.585938 64.484375 -50.445312 63.265625 -51.09375 C 61.410156 -52.132812 59.421875 -52.921875 57.296875 -53.453125 C 52.109375 -54.671875 46.757812 -55.316406 41.25 -55.390625 C 38.007812 -55.410156 34.742188 -55.332031 31.453125 -55.15625 C 29.660156 -55.050781 27.867188 -54.898438 26.078125 -54.703125 C 23.378906 -54.398438 20.6875 -53.984375 18 -53.453125 C 15.3125 -52.921875 12.640625 -52.144531 9.984375 -51.125 C 8.316406 -50.46875 6.695312 -49.65625 5.125 -48.6875 C 3.894531 -48.007812 2.828125 -47.144531 1.921875 -46.09375 C 1.671875 -45.789062 1.375 -45.554688 1.03125 -45.390625 C 0.851562 -45.296875 0.691406 -45.253906 0.546875 -45.265625 C 0.242188 -45.222656 -0.0078125 -45.296875 -0.21875 -45.484375 C -0.507812 -45.765625 -0.53125 -46.09375 -0.28125 -46.46875 C 0.101562 -47.050781 0.550781 -47.566406 1.0625 -48.015625 C 1.582031 -48.472656 2.128906 -48.882812 2.703125 -49.25 C 5.328125 -50.988281 8.085938 -52.328125 10.984375 -53.265625 C 14.503906 -54.398438 18.0625 -55.179688 21.65625 -55.609375 C 25.125 -56.097656 28.609375 -56.46875 32.109375 -56.71875 L 32.1875 -56.734375 C 32.851562 -56.773438 33.519531 -56.816406 34.1875 -56.859375 C 37.550781 -57.015625 40.882812 -57.050781 44.1875 -56.96875 C 47.5 -56.894531 50.785156 -56.597656 54.046875 -56.078125 C 55.722656 -55.804688 57.378906 -55.460938 59.015625 -55.046875 C 60.660156 -54.640625 62.25 -54.09375 63.78125 -53.40625 C 65.457031 -52.707031 66.941406 -51.753906 68.234375 -50.546875 C 71.085938 -47.796875 71.15625 -44.539062 68.4375 -40.78125 C 67.175781 -39.132812 65.738281 -37.664062 64.125 -36.375 C 62.082031 -34.695312 59.972656 -33.171875 57.796875 -31.796875 C 55.628906 -30.421875 53.40625 -29.144531 51.125 -27.96875 C 46.425781 -25.425781 41.65625 -23.113281 36.8125 -21.03125 C 31.96875 -18.957031 27.085938 -17.019531 22.171875 -15.21875 C 18.335938 -13.78125 14.5 -12.398438 10.65625 -11.078125 C 10.039062 -10.890625 9.503906 -10.609375 9.046875 -10.234375 C 8.585938 -9.859375 8.234375 -9.332031 7.984375 -8.65625 Z M 77.21875 3.828125 C 78.582031 4.867188 70.773438 3.425781 53.796875 -0.5 C 42.160156 -3.257812 30.4375 -5.816406 18.625 -8.171875 C 15.320312 -8.796875 12.019531 -9.390625 8.71875 -9.953125 C 7.382812 -10.210938 6.050781 -10.445312 4.71875 -10.65625 C 4.269531 -10.738281 3.816406 -10.796875 3.359375 -10.828125 C 3.296875 -10.828125 3.21875 -10.835938 3.125 -10.859375 C 2.820312 -10.835938 2.835938 -11.234375 3.171875 -12.046875 C 3.503906 -12.859375 3.957031 -13.132812 4.53125 -12.875 C 5.3125 -12.519531 7.101562 -12.046875 9.90625 -11.453125 C 12.707031 -10.867188 16.328125 -10.117188 20.765625 -9.203125 C 29.171875 -7.554688 39.226562 -5.414062 50.9375 -2.78125 C 67.09375 0.59375 75.851562 2.796875 77.21875 3.828125 Z M 77.21875 3.828125 "/></g></g></g><g fill="#dc3c4d" fill-opacity="0.502"><g transform="translate(178.998474, 197.298556)"><g><path d="M 2.921875 -4.984375 L 2.859375 -4.984375 C 0.890625 -4.890625 -0.425781 -5.242188 -1.09375 -6.046875 C -1.769531 -6.847656 -1.8125 -7.972656 -1.21875 -9.421875 C -0.726562 -10.523438 -0.0703125 -11.5 0.75 -12.34375 C 1.03125 -12.632812 1.316406 -12.867188 1.609375 -13.046875 C 1.910156 -13.234375 2.257812 -13.335938 2.65625 -13.359375 C 2.882812 -13.410156 3.144531 -13.382812 3.4375 -13.28125 C 3.539062 -13.269531 3.640625 -13.242188 3.734375 -13.203125 C 3.960938 -13.265625 4.179688 -13.351562 4.390625 -13.46875 C 4.441406 -13.507812 4.515625 -13.546875 4.609375 -13.578125 C 5.046875 -13.785156 5.515625 -13.894531 6.015625 -13.90625 C 6.210938 -13.914062 6.421875 -13.925781 6.640625 -13.9375 C 7.429688 -13.863281 8.046875 -13.566406 8.484375 -13.046875 C 8.929688 -12.535156 9.125 -11.882812 9.0625 -11.09375 C 9.019531 -10.613281 8.894531 -10.15625 8.6875 -9.71875 C 7.3125 -6.84375 5.429688 -5.265625 3.046875 -4.984375 Z M 5.640625 -12.4375 C 4.578125 -12.40625 3.648438 -12.035156 2.859375 -11.328125 C 2.078125 -10.628906 1.507812 -9.835938 1.15625 -8.953125 C 0.800781 -8.078125 0.734375 -7.375 0.953125 -6.84375 C 1.171875 -6.3125 1.75 -6.195312 2.6875 -6.5 C 3.726562 -6.894531 4.628906 -7.5625 5.390625 -8.5 C 6.148438 -9.445312 6.59375 -10.320312 6.71875 -11.125 C 6.851562 -11.9375 6.492188 -12.375 5.640625 -12.4375 Z M 5.640625 -12.4375 "/></g></g></g><g fill="#dc3c4d" fill-opacity="0.502"><g transform="translate(189.736145, 196.621407)"><g><path d="M 13.90625 -11.46875 C 13.976562 -11.46875 14.054688 -11.453125 14.140625 -11.421875 C 14.234375 -11.390625 14.3125 -11.351562 14.375 -11.3125 C 14.570312 -11.144531 14.601562 -10.9375 14.46875 -10.6875 C 14.289062 -10.46875 14.117188 -10.28125 13.953125 -10.125 C 12.984375 -9.09375 11.890625 -8.21875 10.671875 -7.5 C 8.734375 -6.351562 6.5625 -5.691406 4.15625 -5.515625 C 3.269531 -5.429688 2.347656 -5.519531 1.390625 -5.78125 C -0.378906 -6.351562 -1.160156 -7.5625 -0.953125 -9.40625 C -0.671875 -11.101562 0.1875 -12.554688 1.625 -13.765625 C 3.0625 -14.972656 4.648438 -15.5625 6.390625 -15.53125 C 6.722656 -15.5 7.050781 -15.445312 7.375 -15.375 C 7.6875 -15.257812 7.921875 -15.085938 8.078125 -14.859375 C 8.242188 -14.640625 8.269531 -14.453125 8.15625 -14.296875 C 7.851562 -13.921875 7.488281 -13.8125 7.0625 -13.96875 C 6.414062 -14.195312 5.835938 -14.234375 5.328125 -14.078125 C 4.828125 -13.921875 4.320312 -13.609375 3.8125 -13.140625 C 3.34375 -12.710938 2.832031 -12.109375 2.28125 -11.328125 C 1.738281 -10.546875 1.40625 -9.769531 1.28125 -9 C 1.164062 -8.238281 1.539062 -7.65625 2.40625 -7.25 C 3.375 -6.875 4.34375 -6.828125 5.3125 -7.109375 C 7.738281 -7.765625 9.957031 -8.84375 11.96875 -10.34375 C 12.15625 -10.445312 12.316406 -10.566406 12.453125 -10.703125 C 12.671875 -10.890625 12.894531 -11.046875 13.125 -11.171875 C 13.363281 -11.304688 13.625 -11.40625 13.90625 -11.46875 Z M 13.90625 -11.46875 "/></g></g></g><g fill="#dc3c4d" fill-opacity="0.502"><g transform="translate(203.223953, 195.770826)"><g><path d="M 15.015625 -11.296875 C 15.128906 -11.160156 15.164062 -11.015625 15.125 -10.859375 C 15.082031 -10.710938 14.992188 -10.570312 14.859375 -10.4375 C 13.972656 -9.550781 12.972656 -8.820312 11.859375 -8.25 C 9.953125 -7.195312 7.925781 -6.5 5.78125 -6.15625 C 4.101562 -5.875 2.472656 -6.023438 0.890625 -6.609375 C 0.304688 -6.835938 -0.101562 -6.675781 -0.34375 -6.125 C -0.675781 -5.363281 -1.03125 -4.597656 -1.40625 -3.828125 C -1.570312 -3.398438 -1.769531 -2.957031 -2 -2.5 C -2.007812 -2.445312 -2.03125 -2.382812 -2.0625 -2.3125 C -2.144531 -2.15625 -2.222656 -2.003906 -2.296875 -1.859375 C -2.378906 -1.722656 -2.53125 -1.617188 -2.75 -1.546875 C -2.851562 -1.523438 -2.960938 -1.507812 -3.078125 -1.5 C -3.203125 -1.488281 -3.3125 -1.507812 -3.40625 -1.5625 C -3.488281 -1.613281 -3.566406 -1.691406 -3.640625 -1.796875 C -3.710938 -1.910156 -3.753906 -2.03125 -3.765625 -2.15625 C -3.691406 -2.5625 -3.578125 -2.957031 -3.421875 -3.34375 C -3.109375 -4.21875 -2.796875 -5.085938 -2.484375 -5.953125 C -1.679688 -8.140625 -0.84375 -10.300781 0.03125 -12.4375 C 2.445312 -18.34375 4.738281 -24.296875 6.90625 -30.296875 C 7.070312 -30.878906 7.316406 -31.40625 7.640625 -31.875 C 7.890625 -32.207031 8.253906 -32.316406 8.734375 -32.203125 C 9.234375 -32.023438 9.40625 -31.691406 9.25 -31.203125 C 8.988281 -30.179688 8.695312 -29.15625 8.375 -28.125 C 6.789062 -23.375 5.023438 -18.707031 3.078125 -14.125 C 2.679688 -13.132812 2.554688 -12.519531 2.703125 -12.28125 C 2.859375 -12.050781 3.175781 -12.050781 3.65625 -12.28125 C 4.132812 -12.519531 4.691406 -12.835938 5.328125 -13.234375 C 5.796875 -13.523438 6.253906 -13.789062 6.703125 -14.03125 C 6.796875 -14.09375 6.882812 -14.144531 6.96875 -14.1875 C 7.507812 -14.539062 8.113281 -14.753906 8.78125 -14.828125 C 9.039062 -14.847656 9.234375 -14.742188 9.359375 -14.515625 C 9.441406 -14.367188 9.453125 -14.238281 9.390625 -14.125 C 9.335938 -14.019531 9.269531 -13.929688 9.1875 -13.859375 C 8.207031 -13.203125 7.210938 -12.582031 6.203125 -12 C 5.722656 -11.726562 5.21875 -11.445312 4.6875 -11.15625 C 4.175781 -10.875 3.679688 -10.578125 3.203125 -10.265625 C 2.859375 -10.046875 2.546875 -9.796875 2.265625 -9.515625 C 1.628906 -8.742188 1.742188 -8.148438 2.609375 -7.734375 C 3.296875 -7.484375 3.988281 -7.375 4.6875 -7.40625 C 5.382812 -7.4375 6.070312 -7.554688 6.75 -7.765625 C 8.863281 -8.378906 10.816406 -9.285156 12.609375 -10.484375 C 12.753906 -10.566406 12.898438 -10.648438 13.046875 -10.734375 C 13.378906 -10.984375 13.738281 -11.210938 14.125 -11.421875 C 14.257812 -11.492188 14.414062 -11.53125 14.59375 -11.53125 C 14.769531 -11.53125 14.910156 -11.453125 15.015625 -11.296875 Z M 15.015625 -11.296875 "/></g></g></g><g fill="#d72323" fill-opacity="1"><g transform="translate(135.357005, 199.295016)"><g><path d="M 7.984375 -8.65625 C 5.265625 -2.132812 3.832031 1.304688 3.6875 1.671875 C 3.507812 2.066406 3.320312 2.476562 3.125 2.90625 C 3.082031 3.019531 3.050781 3.140625 3.03125 3.265625 C 2.664062 4.085938 2.3125 4.925781 1.96875 5.78125 C -0.175781 10.894531 -2.203125 16.023438 -4.109375 21.171875 C -4.109375 21.234375 -4.117188 21.289062 -4.140625 21.34375 C -4.160156 21.46875 -4.210938 21.597656 -4.296875 21.734375 C -4.554688 22.171875 -4.914062 22.367188 -5.375 22.328125 C -5.488281 22.359375 -5.613281 22.367188 -5.75 22.359375 C -5.988281 22.304688 -6.175781 22.210938 -6.3125 22.078125 C -6.445312 21.941406 -6.484375 21.734375 -6.421875 21.453125 C -6.160156 20.453125 -5.835938 19.457031 -5.453125 18.46875 C -4.109375 15.0625 -2.773438 11.648438 -1.453125 8.234375 C -0.660156 6.179688 0.140625 4.132812 0.953125 2.09375 C 1.304688 1.269531 2.394531 -1.328125 4.21875 -5.703125 C 6.039062 -10.085938 7.109375 -12.664062 7.421875 -13.4375 C 9.828125 -19.25 12.378906 -25.015625 15.078125 -30.734375 C 16.796875 -34.472656 18.492188 -38.234375 20.171875 -42.015625 C 20.359375 -42.460938 20.601562 -42.875 20.90625 -43.25 C 21.164062 -43.539062 21.484375 -43.722656 21.859375 -43.796875 C 21.960938 -43.878906 22.078125 -43.898438 22.203125 -43.859375 C 22.503906 -43.921875 22.738281 -43.859375 22.90625 -43.671875 C 23.082031 -43.484375 23.132812 -43.253906 23.0625 -42.984375 C 22.988281 -42.773438 22.914062 -42.5625 22.84375 -42.34375 C 22.382812 -41.03125 21.867188 -39.722656 21.296875 -38.421875 C 19.359375 -34.054688 17.398438 -29.691406 15.421875 -25.328125 C 14.390625 -23.097656 13.382812 -20.867188 12.40625 -18.640625 C 11.90625 -17.554688 11.414062 -16.46875 10.9375 -15.375 C 10.769531 -14.96875 10.597656 -14.550781 10.421875 -14.125 C 10.378906 -14.0625 10.351562 -14 10.34375 -13.9375 C 10.257812 -13.789062 10.195312 -13.640625 10.15625 -13.484375 C 10.125 -13.335938 10.140625 -13.203125 10.203125 -13.078125 C 10.304688 -12.960938 10.4375 -12.898438 10.59375 -12.890625 C 10.738281 -12.921875 10.882812 -12.957031 11.03125 -13 C 11.0625 -13.039062 11.113281 -13.070312 11.1875 -13.09375 C 12.789062 -13.675781 14.394531 -14.253906 16 -14.828125 C 20.476562 -16.460938 24.929688 -18.160156 29.359375 -19.921875 C 33.785156 -21.679688 38.164062 -23.609375 42.5 -25.703125 C 45.226562 -27.015625 47.90625 -28.382812 50.53125 -29.8125 C 53.164062 -31.238281 55.742188 -32.804688 58.265625 -34.515625 C 60.367188 -35.929688 62.332031 -37.566406 64.15625 -39.421875 C 65.050781 -40.328125 65.820312 -41.34375 66.46875 -42.46875 C 67.78125 -44.71875 67.742188 -46.734375 66.359375 -48.515625 C 65.515625 -49.585938 64.484375 -50.445312 63.265625 -51.09375 C 61.410156 -52.132812 59.421875 -52.921875 57.296875 -53.453125 C 52.109375 -54.671875 46.757812 -55.316406 41.25 -55.390625 C 38.007812 -55.410156 34.742188 -55.332031 31.453125 -55.15625 C 29.660156 -55.050781 27.867188 -54.898438 26.078125 -54.703125 C 23.378906 -54.398438 20.6875 -53.984375 18 -53.453125 C 15.3125 -52.921875 12.640625 -52.144531 9.984375 -51.125 C 8.316406 -50.46875 6.695312 -49.65625 5.125 -48.6875 C 3.894531 -48.007812 2.828125 -47.144531 1.921875 -46.09375 C 1.671875 -45.789062 1.375 -45.554688 1.03125 -45.390625 C 0.851562 -45.296875 0.691406 -45.253906 0.546875 -45.265625 C 0.242188 -45.222656 -0.0078125 -45.296875 -0.21875 -45.484375 C -0.507812 -45.765625 -0.53125 -46.09375 -0.28125 -46.46875 C 0.101562 -47.050781 0.550781 -47.566406 1.0625 -48.015625 C 1.582031 -48.472656 2.128906 -48.882812 2.703125 -49.25 C 5.328125 -50.988281 8.085938 -52.328125 10.984375 -53.265625 C 14.503906 -54.398438 18.0625 -55.179688 21.65625 -55.609375 C 25.125 -56.097656 28.609375 -56.46875 32.109375 -56.71875 L 32.1875 -56.734375 C 32.851562 -56.773438 33.519531 -56.816406 34.1875 -56.859375 C 37.550781 -57.015625 40.882812 -57.050781 44.1875 -56.96875 C 47.5 -56.894531 50.785156 -56.597656 54.046875 -56.078125 C 55.722656 -55.804688 57.378906 -55.460938 59.015625 -55.046875 C 60.660156 -54.640625 62.25 -54.09375 63.78125 -53.40625 C 65.457031 -52.707031 66.941406 -51.753906 68.234375 -50.546875 C 71.085938 -47.796875 71.15625 -44.539062 68.4375 -40.78125 C 67.175781 -39.132812 65.738281 -37.664062 64.125 -36.375 C 62.082031 -34.695312 59.972656 -33.171875 57.796875 -31.796875 C 55.628906 -30.421875 53.40625 -29.144531 51.125 -27.96875 C 46.425781 -25.425781 41.65625 -23.113281 36.8125 -21.03125 C 31.96875 -18.957031 27.085938 -17.019531 22.171875 -15.21875 C 18.335938 -13.78125 14.5 -12.398438 10.65625 -11.078125 C 10.039062 -10.890625 9.503906 -10.609375 9.046875 -10.234375 C 8.585938 -9.859375 8.234375 -9.332031 7.984375 -8.65625 Z M 77.21875 3.828125 C 78.582031 4.867188 70.773438 3.425781 53.796875 -0.5 C 42.160156 -3.257812 30.4375 -5.816406 18.625 -8.171875 C 15.320312 -8.796875 12.019531 -9.390625 8.71875 -9.953125 C 7.382812 -10.210938 6.050781 -10.445312 4.71875 -10.65625 C 4.269531 -10.738281 3.816406 -10.796875 3.359375 -10.828125 C 3.296875 -10.828125 3.21875 -10.835938 3.125 -10.859375 C 2.820312 -10.835938 2.835938 -11.234375 3.171875 -12.046875 C 3.503906 -12.859375 3.957031 -13.132812 4.53125 -12.875 C 5.3125 -12.519531 7.101562 -12.046875 9.90625 -11.453125 C 12.707031 -10.867188 16.328125 -10.117188 20.765625 -9.203125 C 29.171875 -7.554688 39.226562 -5.414062 50.9375 -2.78125 C 67.09375 0.59375 75.851562 2.796875 77.21875 3.828125 Z M 77.21875 3.828125 "/></g></g></g><g fill="#d72323" fill-opacity="1"><g transform="translate(180.066952, 196.475476)"><g><path d="M 2.921875 -4.984375 L 2.859375 -4.984375 C 0.890625 -4.890625 -0.425781 -5.242188 -1.09375 -6.046875 C -1.769531 -6.847656 -1.8125 -7.972656 -1.21875 -9.421875 C -0.726562 -10.523438 -0.0703125 -11.5 0.75 -12.34375 C 1.03125 -12.632812 1.316406 -12.867188 1.609375 -13.046875 C 1.910156 -13.234375 2.257812 -13.335938 2.65625 -13.359375 C 2.882812 -13.410156 3.144531 -13.382812 3.4375 -13.28125 C 3.539062 -13.269531 3.640625 -13.242188 3.734375 -13.203125 C 3.960938 -13.265625 4.179688 -13.351562 4.390625 -13.46875 C 4.441406 -13.507812 4.515625 -13.546875 4.609375 -13.578125 C 5.046875 -13.785156 5.515625 -13.894531 6.015625 -13.90625 C 6.210938 -13.914062 6.421875 -13.925781 6.640625 -13.9375 C 7.429688 -13.863281 8.046875 -13.566406 8.484375 -13.046875 C 8.929688 -12.535156 9.125 -11.882812 9.0625 -11.09375 C 9.019531 -10.613281 8.894531 -10.15625 8.6875 -9.71875 C 7.3125 -6.84375 5.429688 -5.265625 3.046875 -4.984375 Z M 5.640625 -12.4375 C 4.578125 -12.40625 3.648438 -12.035156 2.859375 -11.328125 C 2.078125 -10.628906 1.507812 -9.835938 1.15625 -8.953125 C 0.800781 -8.078125 0.734375 -7.375 0.953125 -6.84375 C 1.171875 -6.3125 1.75 -6.195312 2.6875 -6.5 C 3.726562 -6.894531 4.628906 -7.5625 5.390625 -8.5 C 6.148438 -9.445312 6.59375 -10.320312 6.71875 -11.125 C 6.851562 -11.9375 6.492188 -12.375 5.640625 -12.4375 Z M 5.640625 -12.4375 "/></g></g></g><g fill="#d72323" fill-opacity="1"><g transform="translate(190.804624, 195.798327)"><g><path d="M 13.90625 -11.46875 C 13.976562 -11.46875 14.054688 -11.453125 14.140625 -11.421875 C 14.234375 -11.390625 14.3125 -11.351562 14.375 -11.3125 C 14.570312 -11.144531 14.601562 -10.9375 14.46875 -10.6875 C 14.289062 -10.46875 14.117188 -10.28125 13.953125 -10.125 C 12.984375 -9.09375 11.890625 -8.21875 10.671875 -7.5 C 8.734375 -6.351562 6.5625 -5.691406 4.15625 -5.515625 C 3.269531 -5.429688 2.347656 -5.519531 1.390625 -5.78125 C -0.378906 -6.351562 -1.160156 -7.5625 -0.953125 -9.40625 C -0.671875 -11.101562 0.1875 -12.554688 1.625 -13.765625 C 3.0625 -14.972656 4.648438 -15.5625 6.390625 -15.53125 C 6.722656 -15.5 7.050781 -15.445312 7.375 -15.375 C 7.6875 -15.257812 7.921875 -15.085938 8.078125 -14.859375 C 8.242188 -14.640625 8.269531 -14.453125 8.15625 -14.296875 C 7.851562 -13.921875 7.488281 -13.8125 7.0625 -13.96875 C 6.414062 -14.195312 5.835938 -14.234375 5.328125 -14.078125 C 4.828125 -13.921875 4.320312 -13.609375 3.8125 -13.140625 C 3.34375 -12.710938 2.832031 -12.109375 2.28125 -11.328125 C 1.738281 -10.546875 1.40625 -9.769531 1.28125 -9 C 1.164062 -8.238281 1.539062 -7.65625 2.40625 -7.25 C 3.375 -6.875 4.34375 -6.828125 5.3125 -7.109375 C 7.738281 -7.765625 9.957031 -8.84375 11.96875 -10.34375 C 12.15625 -10.445312 12.316406 -10.566406 12.453125 -10.703125 C 12.671875 -10.890625 12.894531 -11.046875 13.125 -11.171875 C 13.363281 -11.304688 13.625 -11.40625 13.90625 -11.46875 Z M 13.90625 -11.46875 "/></g></g></g><g fill="#d72323" fill-opacity="1"><g transform="translate(204.292432, 194.947746)"><g><path d="M 15.015625 -11.296875 C 15.128906 -11.160156 15.164062 -11.015625 15.125 -10.859375 C 15.082031 -10.710938 14.992188 -10.570312 14.859375 -10.4375 C 13.972656 -9.550781 12.972656 -8.820312 11.859375 -8.25 C 9.953125 -7.195312 7.925781 -6.5 5.78125 -6.15625 C 4.101562 -5.875 2.472656 -6.023438 0.890625 -6.609375 C 0.304688 -6.835938 -0.101562 -6.675781 -0.34375 -6.125 C -0.675781 -5.363281 -1.03125 -4.597656 -1.40625 -3.828125 C -1.570312 -3.398438 -1.769531 -2.957031 -2 -2.5 C -2.007812 -2.445312 -2.03125 -2.382812 -2.0625 -2.3125 C -2.144531 -2.15625 -2.222656 -2.003906 -2.296875 -1.859375 C -2.378906 -1.722656 -2.53125 -1.617188 -2.75 -1.546875 C -2.851562 -1.523438 -2.960938 -1.507812 -3.078125 -1.5 C -3.203125 -1.488281 -3.3125 -1.507812 -3.40625 -1.5625 C -3.488281 -1.613281 -3.566406 -1.691406 -3.640625 -1.796875 C -3.710938 -1.910156 -3.753906 -2.03125 -3.765625 -2.15625 C -3.691406 -2.5625 -3.578125 -2.957031 -3.421875 -3.34375 C -3.109375 -4.21875 -2.796875 -5.085938 -2.484375 -5.953125 C -1.679688 -8.140625 -0.84375 -10.300781 0.03125 -12.4375 C 2.445312 -18.34375 4.738281 -24.296875 6.90625 -30.296875 C 7.070312 -30.878906 7.316406 -31.40625 7.640625 -31.875 C 7.890625 -32.207031 8.253906 -32.316406 8.734375 -32.203125 C 9.234375 -32.023438 9.40625 -31.691406 9.25 -31.203125 C 8.988281 -30.179688 8.695312 -29.15625 8.375 -28.125 C 6.789062 -23.375 5.023438 -18.707031 3.078125 -14.125 C 2.679688 -13.132812 2.554688 -12.519531 2.703125 -12.28125 C 2.859375 -12.050781 3.175781 -12.050781 3.65625 -12.28125 C 4.132812 -12.519531 4.691406 -12.835938 5.328125 -13.234375 C 5.796875 -13.523438 6.253906 -13.789062 6.703125 -14.03125 C 6.796875 -14.09375 6.882812 -14.144531 6.96875 -14.1875 C 7.507812 -14.539062 8.113281 -14.753906 8.78125 -14.828125 C 9.039062 -14.847656 9.234375 -14.742188 9.359375 -14.515625 C 9.441406 -14.367188 9.453125 -14.238281 9.390625 -14.125 C 9.335938 -14.019531 9.269531 -13.929688 9.1875 -13.859375 C 8.207031 -13.203125 7.210938 -12.582031 6.203125 -12 C 5.722656 -11.726562 5.21875 -11.445312 4.6875 -11.15625 C 4.175781 -10.875 3.679688 -10.578125 3.203125 -10.265625 C 2.859375 -10.046875 2.546875 -9.796875 2.265625 -9.515625 C 1.628906 -8.742188 1.742188 -8.148438 2.609375 -7.734375 C 3.296875 -7.484375 3.988281 -7.375 4.6875 -7.40625 C 5.382812 -7.4375 6.070312 -7.554688 6.75 -7.765625 C 8.863281 -8.378906 10.816406 -9.285156 12.609375 -10.484375 C 12.753906 -10.566406 12.898438 -10.648438 13.046875 -10.734375 C 13.378906 -10.984375 13.738281 -11.210938 14.125 -11.421875 C 14.257812 -11.492188 14.414062 -11.53125 14.59375 -11.53125 C 14.769531 -11.53125 14.910156 -11.453125 15.015625 -11.296875 Z M 15.015625 -11.296875 "/></g></g></g><g fill="#303841" fill-opacity="1"><g transform="translate(13.127941, 240.578757)"><g><path d="M 5.828125 -1.703125 C 7.285156 -1.816406 8.289062 -2 8.84375 -2.25 C 9.394531 -2.5 9.757812 -2.953125 9.9375 -3.609375 C 10.113281 -4.265625 10.203125 -5.425781 10.203125 -7.09375 L 10.203125 -26.171875 C 7.722656 -26.085938 6.035156 -25.945312 5.140625 -25.75 C 4.253906 -25.5625 3.648438 -25.140625 3.328125 -24.484375 C 3.003906 -23.828125 2.710938 -22.550781 2.453125 -20.65625 L 0.390625 -20.484375 C 0.742188 -23.253906 0.960938 -25.773438 1.046875 -28.046875 L 1.4375 -28.40625 L 5.078125 -27.921875 L 18.640625 -27.921875 L 22.359375 -28.40625 L 22.765625 -28.046875 C 22.847656 -25.660156 23.066406 -23.195312 23.421875 -20.65625 L 21.359375 -20.484375 C 21.035156 -22.410156 20.710938 -23.707031 20.390625 -24.375 C 20.066406 -25.050781 19.5 -25.488281 18.6875 -25.6875 C 17.875 -25.894531 16.300781 -26.054688 13.96875 -26.171875 C 13.789062 -24.421875 13.628906 -21.328125 13.484375 -16.890625 C 13.335938 -12.453125 13.265625 -8.457031 13.265625 -4.90625 C 13.265625 -3.820312 13.453125 -3.050781 13.828125 -2.59375 C 14.210938 -2.144531 14.851562 -1.921875 15.75 -1.921875 C 16.625 -1.921875 17.425781 -1.96875 18.15625 -2.0625 L 18.296875 -1.875 L 17.90625 0.125 L 16.453125 0.09375 L 11.46875 0 C 9.863281 0 7.863281 0.0546875 5.46875 0.171875 Z M 5.828125 -1.703125 "/></g></g></g><g fill="#303841" fill-opacity="1"><g transform="translate(37.024307, 240.578757)"><g><path d="M 2.796875 -1.484375 C 4.140625 -1.742188 5.046875 -2.128906 5.515625 -2.640625 C 5.984375 -3.148438 6.21875 -4.019531 6.21875 -5.25 L 6.265625 -23.640625 C 6.265625 -24.566406 6.15625 -25.191406 5.9375 -25.515625 C 5.71875 -25.835938 5.285156 -26 4.640625 -26 L 3.15625 -25.90625 L 3.0625 -26.078125 L 3.375 -28.015625 C 3.75 -28.015625 4.039062 -28 4.25 -27.96875 C 6 -27.90625 7.328125 -27.875 8.234375 -27.875 C 9.453125 -27.875 11.007812 -28.003906 12.90625 -28.265625 L 12.734375 -26.296875 C 11.859375 -26.148438 11.238281 -25.972656 10.875 -25.765625 C 10.507812 -25.566406 10.257812 -25.226562 10.125 -24.75 C 10 -24.269531 9.90625 -23.472656 9.84375 -22.359375 L 9.578125 -15.28125 L 16.9375 -15.234375 C 18.769531 -15.234375 20.929688 -15.378906 23.421875 -15.671875 L 23.453125 -23.640625 C 23.453125 -24.566406 23.34375 -25.191406 23.125 -25.515625 C 22.90625 -25.835938 22.476562 -26 21.84375 -26 C 21.425781 -26 20.925781 -25.96875 20.34375 -25.90625 L 20.265625 -26.078125 L 20.5625 -28.015625 C 20.882812 -27.984375 21.46875 -27.953125 22.3125 -27.921875 C 23.164062 -27.890625 24.015625 -27.875 24.859375 -27.875 C 26.253906 -27.875 28.003906 -28.003906 30.109375 -28.265625 L 29.9375 -26.296875 C 28.851562 -26.148438 28.117188 -25.910156 27.734375 -25.578125 C 27.359375 -25.242188 27.160156 -24.65625 27.140625 -23.8125 C 26.960938 -20.507812 26.8125 -16.96875 26.6875 -13.1875 C 26.570312 -9.414062 26.515625 -6.566406 26.515625 -4.640625 C 26.515625 -3.554688 26.644531 -2.832031 26.90625 -2.46875 C 27.175781 -2.101562 27.691406 -1.921875 28.453125 -1.921875 C 28.796875 -1.921875 29.453125 -1.96875 30.421875 -2.0625 L 30.5 -1.875 L 30.109375 0.125 C 29.703125 0.125 29.378906 0.113281 29.140625 0.09375 C 27.222656 0.03125 25.753906 0 24.734375 0 L 19.6875 0.09375 L 20.09375 -1.875 C 21.050781 -1.90625 21.753906 -2.035156 22.203125 -2.265625 C 22.660156 -2.503906 22.976562 -2.941406 23.15625 -3.578125 C 23.332031 -4.222656 23.421875 -5.21875 23.421875 -6.5625 L 23.421875 -13.171875 L 16.765625 -13.21875 C 16.035156 -13.1875 15.015625 -13.132812 13.703125 -13.0625 C 12.390625 -12.988281 10.988281 -12.878906 9.5 -12.734375 L 9.328125 -4.90625 C 9.328125 -3.707031 9.457031 -2.910156 9.71875 -2.515625 C 9.976562 -2.117188 10.488281 -1.921875 11.25 -1.921875 C 11.59375 -1.921875 12.25 -1.96875 13.21875 -2.0625 L 13.3125 -1.875 L 12.90625 0.125 C 12.644531 0.101562 12.148438 0.078125 11.421875 0.046875 C 10.691406 0.015625 9.945312 0 9.1875 0 C 7.84375 0 6.40625 0.0546875 4.875 0.171875 C 3.34375 0.285156 2.5625 0.40625 2.53125 0.53125 Z M 2.796875 -1.484375 "/></g></g></g><g fill="#303841" fill-opacity="1"><g transform="translate(70.024049, 240.578757)"><g><path d="M 23.28125 -7.3125 C 22.789062 -4.945312 22.398438 -2.492188 22.109375 0.046875 L 21.875 0.3125 C 15.75 0.101562 11.332031 0 8.625 0 C 6.46875 0 4.4375 0.144531 2.53125 0.4375 L 2.796875 -1.578125 C 4.109375 -1.753906 5.003906 -2.097656 5.484375 -2.609375 C 5.972656 -3.117188 6.21875 -4 6.21875 -5.25 L 6.265625 -23.640625 C 6.265625 -24.566406 6.15625 -25.191406 5.9375 -25.515625 C 5.71875 -25.835938 5.285156 -26 4.640625 -26 L 3.15625 -25.90625 L 3.0625 -26.078125 L 3.375 -28.015625 C 6.34375 -27.921875 8.367188 -27.875 9.453125 -27.875 C 12.921875 -27.875 15.617188 -27.910156 17.546875 -27.984375 C 19.472656 -28.054688 21.148438 -28.195312 22.578125 -28.40625 L 22.71875 -28.140625 C 22.1875 -25.835938 21.847656 -23.414062 21.703125 -20.875 L 19.609375 -20.703125 L 19.6875 -22.578125 C 19.6875 -23.597656 19.554688 -24.304688 19.296875 -24.703125 C 19.035156 -25.097656 18.46875 -25.359375 17.59375 -25.484375 C 16.71875 -25.617188 15.1875 -25.6875 13 -25.6875 C 11.976562 -25.6875 11.273438 -25.65625 10.890625 -25.59375 C 10.515625 -25.539062 10.269531 -25.40625 10.15625 -25.1875 C 10.039062 -24.96875 9.96875 -24.566406 9.9375 -23.984375 L 9.578125 -15.5 L 14.09375 -15.453125 C 15.226562 -15.453125 17.007812 -15.613281 19.4375 -15.9375 L 19.609375 -15.71875 L 19 -13.125 C 15.757812 -13.21875 13.710938 -13.265625 12.859375 -13.265625 C 11.898438 -13.265625 10.78125 -13.160156 9.5 -12.953125 L 9.328125 -4.59375 C 9.328125 -3.75 9.398438 -3.15625 9.546875 -2.8125 C 9.691406 -2.476562 9.988281 -2.253906 10.4375 -2.140625 C 10.882812 -2.023438 11.664062 -1.96875 12.78125 -1.96875 C 15.226562 -1.96875 16.96875 -2.082031 18 -2.3125 C 19.039062 -2.550781 19.78125 -3.019531 20.21875 -3.71875 C 20.65625 -4.414062 20.988281 -5.613281 21.21875 -7.3125 L 23.15625 -7.53125 Z M 23.28125 -7.3125 "/></g></g></g><g fill="#303841" fill-opacity="1"><g transform="translate(95.889888, 240.578757)"><g/></g></g><g fill="#303841" fill-opacity="1"><g transform="translate(104.555603, 240.578757)"><g><path d="M 22.40625 0.703125 C 21.675781 0.703125 20.894531 0.332031 20.0625 -0.40625 C 19.226562 -1.15625 18.460938 -2.171875 17.765625 -3.453125 L 13.078125 -11.953125 L 9.453125 -11.953125 L 9.328125 -5.421875 C 9.328125 -4.316406 9.398438 -3.519531 9.546875 -3.03125 C 9.691406 -2.550781 9.96875 -2.234375 10.375 -2.078125 C 10.78125 -1.921875 11.476562 -1.84375 12.46875 -1.84375 L 12.5625 -1.65625 L 12.171875 0.171875 C 11.816406 0.140625 11.113281 0.109375 10.0625 0.078125 C 9.007812 0.0546875 7.914062 0.046875 6.78125 0.046875 C 5.757812 0.046875 4.851562 0.0546875 4.0625 0.078125 C 3.28125 0.109375 2.757812 0.140625 2.5 0.171875 L 2.890625 -1.796875 C 3.816406 -1.910156 4.515625 -2.066406 4.984375 -2.265625 C 5.453125 -2.472656 5.773438 -2.800781 5.953125 -3.25 C 6.128906 -3.707031 6.21875 -4.375 6.21875 -5.25 L 6.265625 -23.640625 C 6.265625 -24.566406 6.15625 -25.191406 5.9375 -25.515625 C 5.71875 -25.835938 5.285156 -26 4.640625 -26 C 4.347656 -26 4.054688 -25.984375 3.765625 -25.953125 C 3.472656 -25.921875 3.269531 -25.90625 3.15625 -25.90625 L 3.0625 -26.078125 L 3.375 -28.015625 C 3.71875 -27.984375 4.367188 -27.953125 5.328125 -27.921875 C 6.296875 -27.890625 7.265625 -27.875 8.234375 -27.875 C 9.222656 -27.875 10.265625 -27.894531 11.359375 -27.9375 C 12.453125 -27.988281 13.203125 -28.023438 13.609375 -28.046875 C 16.328125 -28.046875 18.472656 -27.429688 20.046875 -26.203125 C 21.617188 -24.984375 22.40625 -23.3125 22.40625 -21.1875 C 22.40625 -19.4375 21.84375 -17.832031 20.71875 -16.375 C 19.59375 -14.914062 18.007812 -13.71875 15.96875 -12.78125 L 20.78125 -5.171875 C 21.632812 -3.765625 22.460938 -2.789062 23.265625 -2.25 C 24.066406 -1.707031 25.050781 -1.4375 26.21875 -1.4375 L 26.390625 -1.265625 L 26.125 0.21875 Z M 14.046875 -13.96875 C 14.046875 -13.875 14.484375 -14.0625 15.359375 -14.53125 C 16.234375 -15 17.019531 -15.710938 17.71875 -16.671875 C 18.425781 -17.640625 18.78125 -18.878906 18.78125 -20.390625 C 18.78125 -24.242188 16.109375 -26.171875 10.765625 -26.171875 C 10.472656 -26.171875 10.273438 -26.101562 10.171875 -25.96875 C 10.066406 -25.84375 10.003906 -25.578125 9.984375 -25.171875 C 9.710938 -20.703125 9.566406 -17.113281 9.546875 -14.40625 Z M 14.046875 -13.96875 "/></g></g></g><g fill="#303841" fill-opacity="1"><g transform="translate(131.296764, 240.578757)"><g><path d="M 23.28125 -7.3125 C 22.789062 -4.945312 22.398438 -2.492188 22.109375 0.046875 L 21.875 0.3125 C 15.75 0.101562 11.332031 0 8.625 0 C 6.46875 0 4.4375 0.144531 2.53125 0.4375 L 2.796875 -1.578125 C 4.109375 -1.753906 5.003906 -2.097656 5.484375 -2.609375 C 5.972656 -3.117188 6.21875 -4 6.21875 -5.25 L 6.265625 -23.640625 C 6.265625 -24.566406 6.15625 -25.191406 5.9375 -25.515625 C 5.71875 -25.835938 5.285156 -26 4.640625 -26 L 3.15625 -25.90625 L 3.0625 -26.078125 L 3.375 -28.015625 C 6.34375 -27.921875 8.367188 -27.875 9.453125 -27.875 C 12.921875 -27.875 15.617188 -27.910156 17.546875 -27.984375 C 19.472656 -28.054688 21.148438 -28.195312 22.578125 -28.40625 L 22.71875 -28.140625 C 22.1875 -25.835938 21.847656 -23.414062 21.703125 -20.875 L 19.609375 -20.703125 L 19.6875 -22.578125 C 19.6875 -23.597656 19.554688 -24.304688 19.296875 -24.703125 C 19.035156 -25.097656 18.46875 -25.359375 17.59375 -25.484375 C 16.71875 -25.617188 15.1875 -25.6875 13 -25.6875 C 11.976562 -25.6875 11.273438 -25.65625 10.890625 -25.59375 C 10.515625 -25.539062 10.269531 -25.40625 10.15625 -25.1875 C 10.039062 -24.96875 9.96875 -24.566406 9.9375 -23.984375 L 9.578125 -15.5 L 14.09375 -15.453125 C 15.226562 -15.453125 17.007812 -15.613281 19.4375 -15.9375 L 19.609375 -15.71875 L 19 -13.125 C 15.757812 -13.21875 13.710938 -13.265625 12.859375 -13.265625 C 11.898438 -13.265625 10.78125 -13.160156 9.5 -12.953125 L 9.328125 -4.59375 C 9.328125 -3.75 9.398438 -3.15625 9.546875 -2.8125 C 9.691406 -2.476562 9.988281 -2.253906 10.4375 -2.140625 C 10.882812 -2.023438 11.664062 -1.96875 12.78125 -1.96875 C 15.226562 -1.96875 16.96875 -2.082031 18 -2.3125 C 19.039062 -2.550781 19.78125 -3.019531 20.21875 -3.71875 C 20.65625 -4.414062 20.988281 -5.613281 21.21875 -7.3125 L 23.15625 -7.53125 Z M 23.28125 -7.3125 "/></g></g></g><g fill="#303841" fill-opacity="1"><g transform="translate(157.162603, 240.578757)"><g><path d="M 14.40625 0.125 L 14.578125 -1.578125 C 16.066406 -1.691406 17.085938 -1.863281 17.640625 -2.09375 C 18.191406 -2.332031 18.46875 -2.710938 18.46875 -3.234375 C 18.46875 -3.816406 18.335938 -4.519531 18.078125 -5.34375 L 16.625 -10.109375 C 15.925781 -10.140625 14.410156 -10.15625 12.078125 -10.15625 C 10.679688 -10.15625 9.09375 -10.035156 7.3125 -9.796875 L 5.6875 -5.25 C 5.425781 -4.457031 5.296875 -3.890625 5.296875 -3.546875 C 5.296875 -2.898438 5.5 -2.4375 5.90625 -2.15625 C 6.3125 -1.882812 6.984375 -1.75 7.921875 -1.75 L 10.421875 -1.75 L 10.5 -1.578125 L 10.234375 0.3125 C 9.890625 0.28125 9.085938 0.21875 7.828125 0.125 C 6.578125 0.0390625 5.351562 0 4.15625 0 C 3.070312 0 2.070312 0.015625 1.15625 0.046875 C 0.238281 0.078125 -0.363281 0.101562 -0.65625 0.125 L -0.3125 -1.921875 C 0.507812 -2.015625 1.164062 -2.300781 1.65625 -2.78125 C 2.15625 -3.257812 2.640625 -4.097656 3.109375 -5.296875 L 11.640625 -27.65625 L 14.40625 -28.40625 L 14.75 -28.40625 C 14.925781 -27.707031 15.367188 -26.085938 16.078125 -23.546875 C 16.796875 -21.003906 17.671875 -18 18.703125 -14.53125 C 19.742188 -11.0625 20.742188 -7.867188 21.703125 -4.953125 C 22.054688 -3.867188 22.523438 -3.109375 23.109375 -2.671875 C 23.691406 -2.234375 24.625 -1.957031 25.90625 -1.84375 L 26 -1.65625 L 25.6875 0.125 C 25.34375 0.125 24.707031 0.101562 23.78125 0.0625 C 22.863281 0.0195312 21.953125 0 21.046875 0 C 19.648438 0 18.300781 0.0546875 17 0.171875 C 15.707031 0.285156 14.882812 0.375 14.53125 0.4375 Z M 11.953125 -11.953125 C 13.003906 -11.953125 14.359375 -12.023438 16.015625 -12.171875 L 12.5625 -23.640625 L 12.25 -23.640625 L 8.09375 -11.953125 Z M 11.953125 -11.953125 "/></g></g></g><g fill="#303841" fill-opacity="1"><g transform="translate(182.722088, 240.578757)"><g><path d="M 3.234375 -1.578125 C 4.378906 -1.753906 5.160156 -2.097656 5.578125 -2.609375 C 6.003906 -3.117188 6.21875 -4 6.21875 -5.25 L 6.265625 -23.640625 C 6.265625 -24.566406 6.15625 -25.191406 5.9375 -25.515625 C 5.71875 -25.835938 5.285156 -26 4.640625 -26 C 4.347656 -26 4.054688 -25.984375 3.765625 -25.953125 C 3.472656 -25.921875 3.269531 -25.90625 3.15625 -25.90625 L 3.0625 -26.078125 L 3.375 -28.015625 C 3.71875 -27.984375 4.367188 -27.953125 5.328125 -27.921875 C 6.296875 -27.890625 7.273438 -27.875 8.265625 -27.875 C 9.054688 -27.875 9.953125 -27.925781 10.953125 -28.03125 C 11.960938 -28.132812 12.628906 -28.210938 12.953125 -28.265625 L 12.78125 -26.296875 C 11.8125 -26.179688 11.144531 -25.992188 10.78125 -25.734375 C 10.414062 -25.472656 10.195312 -25.164062 10.125 -24.8125 C 10.050781 -24.46875 9.972656 -23.609375 9.890625 -22.234375 C 9.710938 -19.753906 9.578125 -16.921875 9.484375 -13.734375 C 9.398438 -10.554688 9.359375 -7.757812 9.359375 -5.34375 C 9.359375 -4.289062 9.445312 -3.535156 9.625 -3.078125 C 9.800781 -2.628906 10.128906 -2.332031 10.609375 -2.1875 C 11.085938 -2.039062 11.910156 -1.96875 13.078125 -1.96875 C 14.859375 -1.96875 16.164062 -2.113281 17 -2.40625 C 17.832031 -2.695312 18.457031 -3.265625 18.875 -4.109375 C 19.300781 -4.960938 19.691406 -6.320312 20.046875 -8.1875 L 21.96875 -8.40625 L 22.109375 -8.1875 C 22.015625 -7.71875 21.828125 -6.664062 21.546875 -5.03125 C 21.273438 -3.394531 21.035156 -1.675781 20.828125 0.125 L 20.609375 0.390625 C 19.765625 0.335938 18.019531 0.257812 15.375 0.15625 C 12.738281 0.0507812 10.5625 0 8.84375 0 C 7.46875 0 6.21875 0.0546875 5.09375 0.171875 C 3.96875 0.285156 3.257812 0.375 2.96875 0.4375 Z M 3.234375 -1.578125 "/></g></g></g><g fill="#303841" fill-opacity="1"><g transform="translate(204.911568, 240.578757)"><g/></g></g><g fill="#303841" fill-opacity="1"><g transform="translate(213.577283, 240.578757)"><g><path d="M 23.28125 -7.3125 C 22.789062 -4.945312 22.398438 -2.492188 22.109375 0.046875 L 21.875 0.3125 C 15.75 0.101562 11.332031 0 8.625 0 C 6.46875 0 4.4375 0.144531 2.53125 0.4375 L 2.796875 -1.578125 C 4.109375 -1.753906 5.003906 -2.097656 5.484375 -2.609375 C 5.972656 -3.117188 6.21875 -4 6.21875 -5.25 L 6.265625 -23.640625 C 6.265625 -24.566406 6.15625 -25.191406 5.9375 -25.515625 C 5.71875 -25.835938 5.285156 -26 4.640625 -26 L 3.15625 -25.90625 L 3.0625 -26.078125 L 3.375 -28.015625 C 6.34375 -27.921875 8.367188 -27.875 9.453125 -27.875 C 12.921875 -27.875 15.617188 -27.910156 17.546875 -27.984375 C 19.472656 -28.054688 21.148438 -28.195312 22.578125 -28.40625 L 22.71875 -28.140625 C 22.1875 -25.835938 21.847656 -23.414062 21.703125 -20.875 L 19.609375 -20.703125 L 19.6875 -22.578125 C 19.6875 -23.597656 19.554688 -24.304688 19.296875 -24.703125 C 19.035156 -25.097656 18.46875 -25.359375 17.59375 -25.484375 C 16.71875 -25.617188 15.1875 -25.6875 13 -25.6875 C 11.976562 -25.6875 11.273438 -25.65625 10.890625 -25.59375 C 10.515625 -25.539062 10.269531 -25.40625 10.15625 -25.1875 C 10.039062 -24.96875 9.96875 -24.566406 9.9375 -23.984375 L 9.578125 -15.5 L 14.09375 -15.453125 C 15.226562 -15.453125 17.007812 -15.613281 19.4375 -15.9375 L 19.609375 -15.71875 L 19 -13.125 C 15.757812 -13.21875 13.710938 -13.265625 12.859375 -13.265625 C 11.898438 -13.265625 10.78125 -13.160156 9.5 -12.953125 L 9.328125 -4.59375 C 9.328125 -3.75 9.398438 -3.15625 9.546875 -2.8125 C 9.691406 -2.476562 9.988281 -2.253906 10.4375 -2.140625 C 10.882812 -2.023438 11.664062 -1.96875 12.78125 -1.96875 C 15.226562 -1.96875 16.96875 -2.082031 18 -2.3125 C 19.039062 -2.550781 19.78125 -3.019531 20.21875 -3.71875 C 20.65625 -4.414062 20.988281 -5.613281 21.21875 -7.3125 L 23.15625 -7.53125 Z M 23.28125 -7.3125 "/></g></g></g><g fill="#303841" fill-opacity="1"><g transform="translate(239.443135, 240.578757)"><g><path d="M 9.578125 0.53125 C 8.359375 0.53125 7.238281 0.421875 6.21875 0.203125 C 5.195312 -0.015625 4.359375 -0.253906 3.703125 -0.515625 C 3.046875 -0.785156 2.71875 -0.9375 2.71875 -0.96875 L 2.5 -1.40625 C 2.519531 -1.570312 2.570312 -2.003906 2.65625 -2.703125 C 2.75 -3.410156 2.832031 -4.328125 2.90625 -5.453125 C 2.976562 -6.578125 3.015625 -7.765625 3.015625 -9.015625 L 4.984375 -9.234375 C 4.984375 -7.046875 5.128906 -5.425781 5.421875 -4.375 C 5.710938 -3.320312 6.253906 -2.597656 7.046875 -2.203125 C 7.835938 -1.816406 9.046875 -1.625 10.671875 -1.625 C 12.515625 -1.625 13.988281 -2.050781 15.09375 -2.90625 C 16.207031 -3.769531 16.765625 -4.945312 16.765625 -6.4375 C 16.765625 -7.3125 16.460938 -8.097656 15.859375 -8.796875 C 15.265625 -9.492188 14.554688 -10.085938 13.734375 -10.578125 C 12.921875 -11.078125 11.710938 -11.753906 10.109375 -12.609375 C 8.585938 -13.390625 7.347656 -14.109375 6.390625 -14.765625 C 5.429688 -15.421875 4.617188 -16.203125 3.953125 -17.109375 C 3.296875 -18.015625 2.96875 -19.066406 2.96875 -20.265625 C 2.96875 -21.785156 3.410156 -23.164062 4.296875 -24.40625 C 5.191406 -25.644531 6.40625 -26.617188 7.9375 -27.328125 C 9.46875 -28.046875 11.171875 -28.40625 13.046875 -28.40625 C 14.210938 -28.40625 15.289062 -28.320312 16.28125 -28.15625 C 17.269531 -28 18.054688 -27.832031 18.640625 -27.65625 C 19.222656 -27.476562 19.585938 -27.363281 19.734375 -27.3125 L 19.875 -27.046875 C 19.84375 -26.867188 19.765625 -26.457031 19.640625 -25.8125 C 19.523438 -25.175781 19.394531 -24.285156 19.25 -23.140625 C 19.101562 -22.003906 18.988281 -20.84375 18.90625 -19.65625 L 17.203125 -19.46875 L 16.9375 -19.6875 C 16.96875 -19.8125 16.992188 -20.082031 17.015625 -20.5 C 17.046875 -20.925781 17.0625 -21.414062 17.0625 -21.96875 C 17.0625 -23.519531 16.679688 -24.585938 15.921875 -25.171875 C 15.171875 -25.753906 13.816406 -26.046875 11.859375 -26.046875 C 10.253906 -26.046875 8.929688 -25.644531 7.890625 -24.84375 C 6.859375 -24.039062 6.34375 -23.039062 6.34375 -21.84375 C 6.34375 -20.675781 6.84375 -19.660156 7.84375 -18.796875 C 8.851562 -17.929688 10.335938 -16.988281 12.296875 -15.96875 C 14.191406 -15.007812 15.632812 -14.210938 16.625 -13.578125 C 17.625 -12.953125 18.5 -12.171875 19.25 -11.234375 C 20.007812 -10.304688 20.390625 -9.234375 20.390625 -8.015625 C 20.390625 -6.378906 19.929688 -4.910156 19.015625 -3.609375 C 18.097656 -2.304688 16.820312 -1.289062 15.1875 -0.5625 C 13.550781 0.164062 11.679688 0.53125 9.578125 0.53125 Z M 9.578125 0.53125 "/></g></g></g><g fill="#303841" fill-opacity="1"><g transform="translate(262.639229, 240.578757)"><g><path d="M 5.828125 -1.703125 C 7.285156 -1.816406 8.289062 -2 8.84375 -2.25 C 9.394531 -2.5 9.757812 -2.953125 9.9375 -3.609375 C 10.113281 -4.265625 10.203125 -5.425781 10.203125 -7.09375 L 10.203125 -26.171875 C 7.722656 -26.085938 6.035156 -25.945312 5.140625 -25.75 C 4.253906 -25.5625 3.648438 -25.140625 3.328125 -24.484375 C 3.003906 -23.828125 2.710938 -22.550781 2.453125 -20.65625 L 0.390625 -20.484375 C 0.742188 -23.253906 0.960938 -25.773438 1.046875 -28.046875 L 1.4375 -28.40625 L 5.078125 -27.921875 L 18.640625 -27.921875 L 22.359375 -28.40625 L 22.765625 -28.046875 C 22.847656 -25.660156 23.066406 -23.195312 23.421875 -20.65625 L 21.359375 -20.484375 C 21.035156 -22.410156 20.710938 -23.707031 20.390625 -24.375 C 20.066406 -25.050781 19.5 -25.488281 18.6875 -25.6875 C 17.875 -25.894531 16.300781 -26.054688 13.96875 -26.171875 C 13.789062 -24.421875 13.628906 -21.328125 13.484375 -16.890625 C 13.335938 -12.453125 13.265625 -8.457031 13.265625 -4.90625 C 13.265625 -3.820312 13.453125 -3.050781 13.828125 -2.59375 C 14.210938 -2.144531 14.851562 -1.921875 15.75 -1.921875 C 16.625 -1.921875 17.425781 -1.96875 18.15625 -2.0625 L 18.296875 -1.875 L 17.90625 0.125 L 16.453125 0.09375 L 11.46875 0 C 9.863281 0 7.863281 0.0546875 5.46875 0.171875 Z M 5.828125 -1.703125 "/></g></g></g><g fill="#303841" fill-opacity="1"><g transform="translate(286.535595, 240.578757)"><g><path d="M 14.40625 0.125 L 14.578125 -1.578125 C 16.066406 -1.691406 17.085938 -1.863281 17.640625 -2.09375 C 18.191406 -2.332031 18.46875 -2.710938 18.46875 -3.234375 C 18.46875 -3.816406 18.335938 -4.519531 18.078125 -5.34375 L 16.625 -10.109375 C 15.925781 -10.140625 14.410156 -10.15625 12.078125 -10.15625 C 10.679688 -10.15625 9.09375 -10.035156 7.3125 -9.796875 L 5.6875 -5.25 C 5.425781 -4.457031 5.296875 -3.890625 5.296875 -3.546875 C 5.296875 -2.898438 5.5 -2.4375 5.90625 -2.15625 C 6.3125 -1.882812 6.984375 -1.75 7.921875 -1.75 L 10.421875 -1.75 L 10.5 -1.578125 L 10.234375 0.3125 C 9.890625 0.28125 9.085938 0.21875 7.828125 0.125 C 6.578125 0.0390625 5.351562 0 4.15625 0 C 3.070312 0 2.070312 0.015625 1.15625 0.046875 C 0.238281 0.078125 -0.363281 0.101562 -0.65625 0.125 L -0.3125 -1.921875 C 0.507812 -2.015625 1.164062 -2.300781 1.65625 -2.78125 C 2.15625 -3.257812 2.640625 -4.097656 3.109375 -5.296875 L 11.640625 -27.65625 L 14.40625 -28.40625 L 14.75 -28.40625 C 14.925781 -27.707031 15.367188 -26.085938 16.078125 -23.546875 C 16.796875 -21.003906 17.671875 -18 18.703125 -14.53125 C 19.742188 -11.0625 20.742188 -7.867188 21.703125 -4.953125 C 22.054688 -3.867188 22.523438 -3.109375 23.109375 -2.671875 C 23.691406 -2.234375 24.625 -1.957031 25.90625 -1.84375 L 26 -1.65625 L 25.6875 0.125 C 25.34375 0.125 24.707031 0.101562 23.78125 0.0625 C 22.863281 0.0195312 21.953125 0 21.046875 0 C 19.648438 0 18.300781 0.0546875 17 0.171875 C 15.707031 0.285156 14.882812 0.375 14.53125 0.4375 Z M 11.953125 -11.953125 C 13.003906 -11.953125 14.359375 -12.023438 16.015625 -12.171875 L 12.5625 -23.640625 L 12.25 -23.640625 L 8.09375 -11.953125 Z M 11.953125 -11.953125 "/></g></g></g><g fill="#303841" fill-opacity="1"><g transform="translate(312.095066, 240.578757)"><g><path d="M 5.828125 -1.703125 C 7.285156 -1.816406 8.289062 -2 8.84375 -2.25 C 9.394531 -2.5 9.757812 -2.953125 9.9375 -3.609375 C 10.113281 -4.265625 10.203125 -5.425781 10.203125 -7.09375 L 10.203125 -26.171875 C 7.722656 -26.085938 6.035156 -25.945312 5.140625 -25.75 C 4.253906 -25.5625 3.648438 -25.140625 3.328125 -24.484375 C 3.003906 -23.828125 2.710938 -22.550781 2.453125 -20.65625 L 0.390625 -20.484375 C 0.742188 -23.253906 0.960938 -25.773438 1.046875 -28.046875 L 1.4375 -28.40625 L 5.078125 -27.921875 L 18.640625 -27.921875 L 22.359375 -28.40625 L 22.765625 -28.046875 C 22.847656 -25.660156 23.066406 -23.195312 23.421875 -20.65625 L 21.359375 -20.484375 C 21.035156 -22.410156 20.710938 -23.707031 20.390625 -24.375 C 20.066406 -25.050781 19.5 -25.488281 18.6875 -25.6875 C 17.875 -25.894531 16.300781 -26.054688 13.96875 -26.171875 C 13.789062 -24.421875 13.628906 -21.328125 13.484375 -16.890625 C 13.335938 -12.453125 13.265625 -8.457031 13.265625 -4.90625 C 13.265625 -3.820312 13.453125 -3.050781 13.828125 -2.59375 C 14.210938 -2.144531 14.851562 -1.921875 15.75 -1.921875 C 16.625 -1.921875 17.425781 -1.96875 18.15625 -2.0625 L 18.296875 -1.875 L 17.90625 0.125 L 16.453125 0.09375 L 11.46875 0 C 9.863281 0 7.863281 0.0546875 5.46875 0.171875 Z M 5.828125 -1.703125 "/></g></g></g><g fill="#303841" fill-opacity="1"><g transform="translate(335.991433, 240.578757)"><g><path d="M 23.28125 -7.3125 C 22.789062 -4.945312 22.398438 -2.492188 22.109375 0.046875 L 21.875 0.3125 C 15.75 0.101562 11.332031 0 8.625 0 C 6.46875 0 4.4375 0.144531 2.53125 0.4375 L 2.796875 -1.578125 C 4.109375 -1.753906 5.003906 -2.097656 5.484375 -2.609375 C 5.972656 -3.117188 6.21875 -4 6.21875 -5.25 L 6.265625 -23.640625 C 6.265625 -24.566406 6.15625 -25.191406 5.9375 -25.515625 C 5.71875 -25.835938 5.285156 -26 4.640625 -26 L 3.15625 -25.90625 L 3.0625 -26.078125 L 3.375 -28.015625 C 6.34375 -27.921875 8.367188 -27.875 9.453125 -27.875 C 12.921875 -27.875 15.617188 -27.910156 17.546875 -27.984375 C 19.472656 -28.054688 21.148438 -28.195312 22.578125 -28.40625 L 22.71875 -28.140625 C 22.1875 -25.835938 21.847656 -23.414062 21.703125 -20.875 L 19.609375 -20.703125 L 19.6875 -22.578125 C 19.6875 -23.597656 19.554688 -24.304688 19.296875 -24.703125 C 19.035156 -25.097656 18.46875 -25.359375 17.59375 -25.484375 C 16.71875 -25.617188 15.1875 -25.6875 13 -25.6875 C 11.976562 -25.6875 11.273438 -25.65625 10.890625 -25.59375 C 10.515625 -25.539062 10.269531 -25.40625 10.15625 -25.1875 C 10.039062 -24.96875 9.96875 -24.566406 9.9375 -23.984375 L 9.578125 -15.5 L 14.09375 -15.453125 C 15.226562 -15.453125 17.007812 -15.613281 19.4375 -15.9375 L 19.609375 -15.71875 L 19 -13.125 C 15.757812 -13.21875 13.710938 -13.265625 12.859375 -13.265625 C 11.898438 -13.265625 10.78125 -13.160156 9.5 -12.953125 L 9.328125 -4.59375 C 9.328125 -3.75 9.398438 -3.15625 9.546875 -2.8125 C 9.691406 -2.476562 9.988281 -2.253906 10.4375 -2.140625 C 10.882812 -2.023438 11.664062 -1.96875 12.78125 -1.96875 C 15.226562 -1.96875 16.96875 -2.082031 18 -2.3125 C 19.039062 -2.550781 19.78125 -3.019531 20.21875 -3.71875 C 20.65625 -4.414062 20.988281 -5.613281 21.21875 -7.3125 L 23.15625 -7.53125 Z M 23.28125 -7.3125 "/></g></g></g><g clip-path="url(#id1)"><path fill="#303841" d="M 245.953125 187.832031 C 245.5625 187.832031 245.175781 187.699219 244.855469 187.425781 L 209.984375 157.628906 C 209.601562 157.304688 209.382812 156.832031 209.382812 156.324219 L 209.382812 119.296875 L 192.371094 119.296875 L 192.371094 138.445312 C 192.371094 139.117188 191.980469 139.730469 191.367188 140.007812 C 190.761719 140.285156 190.042969 140.175781 189.542969 139.730469 L 166.152344 118.871094 C 165.449219 118.242188 165.382812 117.160156 166.003906 116.449219 C 166.636719 115.742188 167.707031 115.675781 168.40625 116.304688 L 188.964844 134.644531 L 188.964844 117.585938 C 188.964844 116.640625 189.726562 115.871094 190.667969 115.871094 L 211.078125 115.871094 C 212.015625 115.871094 212.78125 116.640625 212.78125 117.585938 L 212.78125 155.53125 L 247.050781 184.8125 C 247.765625 185.429688 247.851562 186.507812 247.246094 187.226562 C 246.917969 187.625 246.4375 187.832031 245.953125 187.832031 Z M 245.953125 187.832031 " fill-opacity="1" fill-rule="nonzero"/></g></svg>