<svg xmlns="http://www.w3.org/2000/svg" xmlns:xlink="http://www.w3.org/1999/xlink" width="500" zoomAndPan="magnify" viewBox="0 0 375 374.999991" height="500" preserveAspectRatio="xMidYMid meet" version="1.0"><defs><g/><clipPath id="id1"><path d="M 137 74 L 355.867188 74 L 355.867188 264.558594 L 137 264.558594 Z M 137 74 " clip-rule="nonzero"/></clipPath></defs><rect x="-37.5" width="450" fill="#ffffff" y="-37.499999" height="449.999989" fill-opacity="1"/><rect x="-37.5" width="450" fill="#ffffff" y="-37.499999" height="449.999989" fill-opacity="1"/><rect x="-37.5" width="450" fill="#ffffff" y="-37.499999" height="449.999989" fill-opacity="1"/><g fill="#dc3c4d" fill-opacity="0.302"><g transform="translate(51.450295, 300.455505)"><g><path d="M 21.140625 -22.953125 C 13.953125 -5.679688 10.15625 3.429688 9.75 4.390625 C 9.269531 5.453125 8.78125 6.5625 8.28125 7.71875 C 8.164062 8 8.082031 8.304688 8.03125 8.640625 C 7.050781 10.847656 6.109375 13.078125 5.203125 15.328125 C -0.453125 28.890625 -5.8125 42.484375 -10.875 56.109375 C -10.863281 56.285156 -10.90625 56.453125 -11 56.609375 C -11.050781 56.921875 -11.175781 57.242188 -11.375 57.578125 C -12.09375 58.742188 -13.050781 59.273438 -14.25 59.171875 C -14.5625 59.265625 -14.882812 59.285156 -15.21875 59.234375 C -15.863281 59.128906 -16.363281 58.890625 -16.71875 58.515625 C -17.082031 58.140625 -17.179688 57.59375 -17.015625 56.875 C -16.335938 54.207031 -15.484375 51.546875 -14.453125 48.890625 C -10.898438 39.929688 -7.359375 30.90625 -3.828125 21.8125 C -1.742188 16.40625 0.363281 10.976562 2.5 5.53125 C 3.445312 3.375 6.335938 -3.515625 11.171875 -15.140625 C 16.015625 -26.765625 18.84375 -33.59375 19.65625 -35.625 C 26.03125 -51.007812 32.796875 -66.28125 39.953125 -81.4375 C 44.523438 -91.34375 49.023438 -101.296875 53.453125 -111.296875 C 53.953125 -112.515625 54.597656 -113.613281 55.390625 -114.59375 C 56.066406 -115.351562 56.898438 -115.835938 57.890625 -116.046875 C 58.203125 -116.242188 58.523438 -116.300781 58.859375 -116.21875 C 59.628906 -116.375 60.242188 -116.203125 60.703125 -115.703125 C 61.160156 -115.210938 61.289062 -114.601562 61.09375 -113.875 C 60.90625 -113.320312 60.703125 -112.753906 60.484375 -112.171875 C 59.316406 -108.722656 57.960938 -105.289062 56.421875 -101.875 C 51.304688 -90.269531 46.113281 -78.691406 40.84375 -67.140625 C 38.132812 -61.234375 35.476562 -55.3125 32.875 -49.375 C 31.5625 -46.53125 30.273438 -43.648438 29.015625 -40.734375 C 28.546875 -39.660156 28.070312 -38.566406 27.59375 -37.453125 C 27.5 -37.285156 27.421875 -37.125 27.359375 -36.96875 C 27.171875 -36.5625 27.023438 -36.160156 26.921875 -35.765625 C 26.816406 -35.367188 26.847656 -35.007812 27.015625 -34.6875 C 27.285156 -34.382812 27.625 -34.207031 28.03125 -34.15625 C 28.414062 -34.257812 28.800781 -34.359375 29.1875 -34.453125 C 29.320312 -34.566406 29.476562 -34.664062 29.65625 -34.75 C 33.894531 -36.269531 38.140625 -37.785156 42.390625 -39.296875 C 54.273438 -43.609375 66.085938 -48.109375 77.828125 -52.796875 C 89.566406 -57.484375 101.179688 -62.585938 112.671875 -68.109375 C 119.847656 -71.585938 126.925781 -75.21875 133.90625 -79 C 140.894531 -82.789062 147.734375 -86.945312 154.421875 -91.46875 C 159.984375 -95.226562 165.175781 -99.550781 170 -104.4375 C 172.394531 -106.851562 174.445312 -109.550781 176.15625 -112.53125 C 179.625 -118.488281 179.519531 -123.835938 175.84375 -128.578125 C 173.625 -131.429688 170.878906 -133.703125 167.609375 -135.390625 C 162.710938 -138.160156 157.453125 -140.226562 151.828125 -141.59375 C 138.097656 -144.851562 123.929688 -146.582031 109.328125 -146.78125 C 100.753906 -146.84375 92.085938 -146.632812 83.328125 -146.15625 C 78.609375 -145.851562 73.863281 -145.445312 69.09375 -144.9375 C 61.957031 -144.164062 54.816406 -143.082031 47.671875 -141.6875 C 40.535156 -140.289062 33.472656 -138.222656 26.484375 -135.484375 C 22.035156 -133.722656 17.722656 -131.566406 13.546875 -129.015625 C 10.316406 -127.234375 7.5 -124.957031 5.09375 -122.1875 C 4.4375 -121.351562 3.632812 -120.707031 2.6875 -120.25 C 2.25 -120.019531 1.828125 -119.925781 1.421875 -119.96875 C 0.640625 -119.84375 -0.0351562 -120.03125 -0.609375 -120.53125 C -1.367188 -121.28125 -1.421875 -122.132812 -0.765625 -123.09375 C 0.242188 -124.675781 1.4375 -126.066406 2.8125 -127.265625 C 4.1875 -128.460938 5.632812 -129.539062 7.15625 -130.5 C 14.113281 -135.132812 21.421875 -138.675781 29.078125 -141.125 C 38.421875 -144.15625 47.851562 -146.238281 57.375 -147.375 C 66.582031 -148.675781 75.820312 -149.65625 85.09375 -150.3125 L 85.3125 -150.328125 C 87.070312 -150.441406 88.835938 -150.550781 90.609375 -150.65625 C 99.523438 -151.070312 108.363281 -151.179688 117.125 -150.984375 C 125.882812 -150.785156 134.582031 -150.003906 143.21875 -148.640625 C 147.675781 -147.929688 152.070312 -147.019531 156.40625 -145.90625 C 160.75 -144.789062 164.945312 -143.320312 169 -141.5 C 173.457031 -139.664062 177.398438 -137.148438 180.828125 -133.953125 C 188.390625 -126.660156 188.570312 -118.046875 181.375 -108.109375 C 178.039062 -103.710938 174.222656 -99.796875 169.921875 -96.359375 C 164.523438 -91.929688 158.945312 -87.894531 153.1875 -84.25 C 147.425781 -80.601562 141.523438 -77.210938 135.484375 -74.078125 C 123.023438 -67.378906 110.378906 -61.273438 97.546875 -55.765625 C 84.722656 -50.253906 71.804688 -45.113281 58.796875 -40.34375 C 48.597656 -36.550781 38.40625 -32.882812 28.21875 -29.34375 C 26.613281 -28.84375 25.203125 -28.09375 23.984375 -27.09375 C 22.773438 -26.101562 21.828125 -24.722656 21.140625 -22.953125 Z M 204.640625 10.15625 C 208.242188 12.882812 187.546875 9.050781 142.546875 -1.34375 C 111.703125 -8.65625 80.625 -15.4375 49.3125 -21.6875 C 40.59375 -23.3125 31.851562 -24.867188 23.09375 -26.359375 C 19.5625 -27.035156 16.039062 -27.664062 12.53125 -28.25 C 11.332031 -28.4375 10.140625 -28.582031 8.953125 -28.6875 C 8.742188 -28.675781 8.507812 -28.695312 8.25 -28.75 C 7.457031 -28.707031 7.503906 -29.765625 8.390625 -31.921875 C 9.273438 -34.078125 10.492188 -34.8125 12.046875 -34.125 C 14.078125 -33.207031 18.8125 -31.957031 26.25 -30.375 C 33.6875 -28.800781 43.289062 -26.804688 55.0625 -24.390625 C 77.332031 -20.023438 103.96875 -14.351562 134.96875 -7.375 C 177.8125 1.582031 201.035156 7.425781 204.640625 10.15625 Z M 204.640625 10.15625 "/></g></g></g><g fill="#dc3c4d" fill-opacity="0.302"><g transform="translate(169.939936, 292.983203)"><g><path d="M 7.71875 -13.21875 L 7.5625 -13.21875 C 2.375 -12.957031 -1.109375 -13.894531 -2.890625 -16.03125 C -4.671875 -18.175781 -4.789062 -21.15625 -3.25 -24.96875 C -1.914062 -27.882812 -0.175781 -30.472656 1.96875 -32.734375 C 2.707031 -33.492188 3.472656 -34.113281 4.265625 -34.59375 C 5.054688 -35.082031 5.972656 -35.359375 7.015625 -35.421875 C 7.628906 -35.566406 8.335938 -35.503906 9.140625 -35.234375 C 9.390625 -35.171875 9.640625 -35.097656 9.890625 -35.015625 C 10.492188 -35.148438 11.070312 -35.382812 11.625 -35.71875 C 11.757812 -35.832031 11.945312 -35.929688 12.1875 -36.015625 C 13.351562 -36.546875 14.597656 -36.816406 15.921875 -36.828125 C 16.460938 -36.867188 17.015625 -36.90625 17.578125 -36.9375 C 19.703125 -36.757812 21.34375 -35.976562 22.5 -34.59375 C 23.664062 -33.207031 24.160156 -31.46875 23.984375 -29.375 C 23.878906 -28.125 23.554688 -26.921875 23.015625 -25.765625 C 19.378906 -18.140625 14.390625 -13.96875 8.046875 -13.25 Z M 14.96875 -32.96875 C 12.144531 -32.882812 9.6875 -31.910156 7.59375 -30.046875 C 5.507812 -28.179688 4.003906 -26.085938 3.078125 -23.765625 C 2.148438 -21.441406 1.96875 -19.570312 2.53125 -18.15625 C 3.101562 -16.738281 4.625 -16.429688 7.09375 -17.234375 C 9.851562 -18.273438 12.242188 -20.039062 14.265625 -22.53125 C 16.285156 -25.019531 17.460938 -27.34375 17.796875 -29.5 C 18.140625 -31.65625 17.195312 -32.8125 14.96875 -32.96875 Z M 14.96875 -32.96875 "/></g></g></g><g fill="#dc3c4d" fill-opacity="0.302"><g transform="translate(198.396754, 291.188633)"><g><path d="M 36.875 -30.34375 C 37.050781 -30.351562 37.257812 -30.320312 37.5 -30.25 C 37.738281 -30.175781 37.929688 -30.082031 38.078125 -29.96875 C 38.609375 -29.53125 38.703125 -28.972656 38.359375 -28.296875 C 37.890625 -27.722656 37.4375 -27.226562 37 -26.8125 C 34.40625 -24.101562 31.476562 -21.785156 28.21875 -19.859375 C 23.113281 -16.847656 17.378906 -15.101562 11.015625 -14.625 C 8.660156 -14.40625 6.207031 -14.648438 3.65625 -15.359375 C -1.03125 -16.847656 -3.097656 -20.03125 -2.546875 -24.90625 C -1.785156 -29.4375 0.5 -33.300781 4.3125 -36.5 C 8.132812 -39.707031 12.34375 -41.253906 16.9375 -41.140625 C 17.800781 -41.054688 18.664062 -40.914062 19.53125 -40.71875 C 20.34375 -40.445312 20.96875 -40.007812 21.40625 -39.40625 C 21.84375 -38.800781 21.910156 -38.289062 21.609375 -37.875 C 20.804688 -36.90625 19.835938 -36.617188 18.703125 -37.015625 C 17.023438 -37.617188 15.503906 -37.71875 14.140625 -37.3125 C 12.785156 -36.90625 11.445312 -36.070312 10.125 -34.8125 C 8.832031 -33.6875 7.460938 -32.09375 6.015625 -30.03125 C 4.566406 -27.96875 3.6875 -25.921875 3.375 -23.890625 C 3.070312 -21.859375 4.078125 -20.289062 6.390625 -19.1875 C 8.953125 -18.238281 11.519531 -18.128906 14.09375 -18.859375 C 20.507812 -20.585938 26.394531 -23.4375 31.75 -27.40625 C 32.226562 -27.6875 32.648438 -28 33.015625 -28.34375 C 33.597656 -28.851562 34.191406 -29.273438 34.796875 -29.609375 C 35.398438 -29.941406 36.09375 -30.1875 36.875 -30.34375 Z M 36.875 -30.34375 "/></g></g></g><g fill="#dc3c4d" fill-opacity="0.302"><g transform="translate(234.141944, 288.934437)"><g><path d="M 39.8125 -29.96875 C 40.125 -29.582031 40.21875 -29.1875 40.09375 -28.78125 C 39.976562 -28.382812 39.738281 -28.007812 39.375 -27.65625 C 37.03125 -25.28125 34.382812 -23.335938 31.4375 -21.828125 C 26.382812 -19.066406 21.015625 -17.222656 15.328125 -16.296875 C 10.859375 -15.554688 6.53125 -15.96875 2.34375 -17.53125 C 0.800781 -18.113281 -0.285156 -17.679688 -0.921875 -16.234375 C -1.796875 -14.203125 -2.726562 -12.175781 -3.71875 -10.15625 C -4.175781 -9.007812 -4.6875 -7.828125 -5.25 -6.609375 C -5.3125 -6.460938 -5.375 -6.296875 -5.4375 -6.109375 C -5.664062 -5.703125 -5.882812 -5.3125 -6.09375 -4.9375 C -6.300781 -4.5625 -6.6875 -4.285156 -7.25 -4.109375 C -7.53125 -4.015625 -7.832031 -3.957031 -8.15625 -3.9375 C -8.476562 -3.914062 -8.769531 -3.972656 -9.03125 -4.109375 C -9.257812 -4.265625 -9.460938 -4.488281 -9.640625 -4.78125 C -9.828125 -5.082031 -9.929688 -5.394531 -9.953125 -5.71875 C -9.765625 -6.769531 -9.46875 -7.8125 -9.0625 -8.84375 C -8.207031 -11.1875 -7.363281 -13.5 -6.53125 -15.78125 C -4.457031 -21.570312 -2.257812 -27.3125 0.0625 -33 C 6.507812 -48.632812 12.582031 -64.398438 18.28125 -80.296875 C 18.726562 -81.828125 19.378906 -83.210938 20.234375 -84.453125 C 20.898438 -85.347656 21.863281 -85.644531 23.125 -85.34375 C 24.445312 -84.875 24.898438 -83.984375 24.484375 -82.671875 C 23.785156 -79.972656 23.023438 -77.253906 22.203125 -74.515625 C 18.015625 -61.953125 13.347656 -49.582031 8.203125 -37.40625 C 7.097656 -34.800781 6.742188 -33.175781 7.140625 -32.53125 C 7.546875 -31.894531 8.390625 -31.894531 9.671875 -32.53125 C 10.953125 -33.175781 12.445312 -34.019531 14.15625 -35.0625 C 15.351562 -35.851562 16.554688 -36.550781 17.765625 -37.15625 C 18.003906 -37.351562 18.234375 -37.5 18.453125 -37.59375 C 19.890625 -38.539062 21.488281 -39.101562 23.25 -39.28125 C 23.925781 -39.320312 24.445312 -39.046875 24.8125 -38.453125 C 25.007812 -38.085938 25.035156 -37.757812 24.890625 -37.46875 C 24.742188 -37.175781 24.550781 -36.945312 24.3125 -36.78125 C 21.726562 -35.039062 19.113281 -33.363281 16.46875 -31.75 C 15.175781 -31.0625 13.835938 -30.316406 12.453125 -29.515625 C 11.085938 -28.773438 9.757812 -28.015625 8.46875 -27.234375 C 7.5625 -26.628906 6.738281 -25.945312 6 -25.1875 C 4.289062 -23.164062 4.582031 -21.601562 6.875 -20.5 C 8.757812 -19.832031 10.625 -19.535156 12.46875 -19.609375 C 14.3125 -19.691406 16.128906 -20.023438 17.921875 -20.609375 C 23.472656 -22.203125 28.644531 -24.585938 33.4375 -27.765625 C 33.8125 -28.015625 34.1875 -28.238281 34.5625 -28.4375 C 35.457031 -29.101562 36.410156 -29.695312 37.421875 -30.21875 C 37.804688 -30.414062 38.226562 -30.507812 38.6875 -30.5 C 39.15625 -30.5 39.53125 -30.320312 39.8125 -29.96875 Z M 39.8125 -29.96875 "/></g></g></g><g fill="#dc3c4d" fill-opacity="0.502"><g transform="translate(54.281971, 298.274162)"><g><path d="M 21.140625 -22.953125 C 13.953125 -5.679688 10.15625 3.429688 9.75 4.390625 C 9.269531 5.453125 8.78125 6.5625 8.28125 7.71875 C 8.164062 8 8.082031 8.304688 8.03125 8.640625 C 7.050781 10.847656 6.109375 13.078125 5.203125 15.328125 C -0.453125 28.890625 -5.8125 42.484375 -10.875 56.109375 C -10.863281 56.285156 -10.90625 56.453125 -11 56.609375 C -11.050781 56.921875 -11.175781 57.242188 -11.375 57.578125 C -12.09375 58.742188 -13.050781 59.273438 -14.25 59.171875 C -14.5625 59.265625 -14.882812 59.285156 -15.21875 59.234375 C -15.863281 59.128906 -16.363281 58.890625 -16.71875 58.515625 C -17.082031 58.140625 -17.179688 57.59375 -17.015625 56.875 C -16.335938 54.207031 -15.484375 51.546875 -14.453125 48.890625 C -10.898438 39.929688 -7.359375 30.90625 -3.828125 21.8125 C -1.742188 16.40625 0.363281 10.976562 2.5 5.53125 C 3.445312 3.375 6.335938 -3.515625 11.171875 -15.140625 C 16.015625 -26.765625 18.84375 -33.59375 19.65625 -35.625 C 26.03125 -51.007812 32.796875 -66.28125 39.953125 -81.4375 C 44.523438 -91.34375 49.023438 -101.296875 53.453125 -111.296875 C 53.953125 -112.515625 54.597656 -113.613281 55.390625 -114.59375 C 56.066406 -115.351562 56.898438 -115.835938 57.890625 -116.046875 C 58.203125 -116.242188 58.523438 -116.300781 58.859375 -116.21875 C 59.628906 -116.375 60.242188 -116.203125 60.703125 -115.703125 C 61.160156 -115.210938 61.289062 -114.601562 61.09375 -113.875 C 60.90625 -113.320312 60.703125 -112.753906 60.484375 -112.171875 C 59.316406 -108.722656 57.960938 -105.289062 56.421875 -101.875 C 51.304688 -90.269531 46.113281 -78.691406 40.84375 -67.140625 C 38.132812 -61.234375 35.476562 -55.3125 32.875 -49.375 C 31.5625 -46.53125 30.273438 -43.648438 29.015625 -40.734375 C 28.546875 -39.660156 28.070312 -38.566406 27.59375 -37.453125 C 27.5 -37.285156 27.421875 -37.125 27.359375 -36.96875 C 27.171875 -36.5625 27.023438 -36.160156 26.921875 -35.765625 C 26.816406 -35.367188 26.847656 -35.007812 27.015625 -34.6875 C 27.285156 -34.382812 27.625 -34.207031 28.03125 -34.15625 C 28.414062 -34.257812 28.800781 -34.359375 29.1875 -34.453125 C 29.320312 -34.566406 29.476562 -34.664062 29.65625 -34.75 C 33.894531 -36.269531 38.140625 -37.785156 42.390625 -39.296875 C 54.273438 -43.609375 66.085938 -48.109375 77.828125 -52.796875 C 89.566406 -57.484375 101.179688 -62.585938 112.671875 -68.109375 C 119.847656 -71.585938 126.925781 -75.21875 133.90625 -79 C 140.894531 -82.789062 147.734375 -86.945312 154.421875 -91.46875 C 159.984375 -95.226562 165.175781 -99.550781 170 -104.4375 C 172.394531 -106.851562 174.445312 -109.550781 176.15625 -112.53125 C 179.625 -118.488281 179.519531 -123.835938 175.84375 -128.578125 C 173.625 -131.429688 170.878906 -133.703125 167.609375 -135.390625 C 162.710938 -138.160156 157.453125 -140.226562 151.828125 -141.59375 C 138.097656 -144.851562 123.929688 -146.582031 109.328125 -146.78125 C 100.753906 -146.84375 92.085938 -146.632812 83.328125 -146.15625 C 78.609375 -145.851562 73.863281 -145.445312 69.09375 -144.9375 C 61.957031 -144.164062 54.816406 -143.082031 47.671875 -141.6875 C 40.535156 -140.289062 33.472656 -138.222656 26.484375 -135.484375 C 22.035156 -133.722656 17.722656 -131.566406 13.546875 -129.015625 C 10.316406 -127.234375 7.5 -124.957031 5.09375 -122.1875 C 4.4375 -121.351562 3.632812 -120.707031 2.6875 -120.25 C 2.25 -120.019531 1.828125 -119.925781 1.421875 -119.96875 C 0.640625 -119.84375 -0.0351562 -120.03125 -0.609375 -120.53125 C -1.367188 -121.28125 -1.421875 -122.132812 -0.765625 -123.09375 C 0.242188 -124.675781 1.4375 -126.066406 2.8125 -127.265625 C 4.1875 -128.460938 5.632812 -129.539062 7.15625 -130.5 C 14.113281 -135.132812 21.421875 -138.675781 29.078125 -141.125 C 38.421875 -144.15625 47.851562 -146.238281 57.375 -147.375 C 66.582031 -148.675781 75.820312 -149.65625 85.09375 -150.3125 L 85.3125 -150.328125 C 87.070312 -150.441406 88.835938 -150.550781 90.609375 -150.65625 C 99.523438 -151.070312 108.363281 -151.179688 117.125 -150.984375 C 125.882812 -150.785156 134.582031 -150.003906 143.21875 -148.640625 C 147.675781 -147.929688 152.070312 -147.019531 156.40625 -145.90625 C 160.75 -144.789062 164.945312 -143.320312 169 -141.5 C 173.457031 -139.664062 177.398438 -137.148438 180.828125 -133.953125 C 188.390625 -126.660156 188.570312 -118.046875 181.375 -108.109375 C 178.039062 -103.710938 174.222656 -99.796875 169.921875 -96.359375 C 164.523438 -91.929688 158.945312 -87.894531 153.1875 -84.25 C 147.425781 -80.601562 141.523438 -77.210938 135.484375 -74.078125 C 123.023438 -67.378906 110.378906 -61.273438 97.546875 -55.765625 C 84.722656 -50.253906 71.804688 -45.113281 58.796875 -40.34375 C 48.597656 -36.550781 38.40625 -32.882812 28.21875 -29.34375 C 26.613281 -28.84375 25.203125 -28.09375 23.984375 -27.09375 C 22.773438 -26.101562 21.828125 -24.722656 21.140625 -22.953125 Z M 204.640625 10.15625 C 208.242188 12.882812 187.546875 9.050781 142.546875 -1.34375 C 111.703125 -8.65625 80.625 -15.4375 49.3125 -21.6875 C 40.59375 -23.3125 31.851562 -24.867188 23.09375 -26.359375 C 19.5625 -27.035156 16.039062 -27.664062 12.53125 -28.25 C 11.332031 -28.4375 10.140625 -28.582031 8.953125 -28.6875 C 8.742188 -28.675781 8.507812 -28.695312 8.25 -28.75 C 7.457031 -28.707031 7.503906 -29.765625 8.390625 -31.921875 C 9.273438 -34.078125 10.492188 -34.8125 12.046875 -34.125 C 14.078125 -33.207031 18.8125 -31.957031 26.25 -30.375 C 33.6875 -28.800781 43.289062 -26.804688 55.0625 -24.390625 C 77.332031 -20.023438 103.96875 -14.351562 134.96875 -7.375 C 177.8125 1.582031 201.035156 7.425781 204.640625 10.15625 Z M 204.640625 10.15625 "/></g></g></g><g fill="#dc3c4d" fill-opacity="0.502"><g transform="translate(172.771612, 290.80186)"><g><path d="M 7.71875 -13.21875 L 7.5625 -13.21875 C 2.375 -12.957031 -1.109375 -13.894531 -2.890625 -16.03125 C -4.671875 -18.175781 -4.789062 -21.15625 -3.25 -24.96875 C -1.914062 -27.882812 -0.175781 -30.472656 1.96875 -32.734375 C 2.707031 -33.492188 3.472656 -34.113281 4.265625 -34.59375 C 5.054688 -35.082031 5.972656 -35.359375 7.015625 -35.421875 C 7.628906 -35.566406 8.335938 -35.503906 9.140625 -35.234375 C 9.390625 -35.171875 9.640625 -35.097656 9.890625 -35.015625 C 10.492188 -35.148438 11.070312 -35.382812 11.625 -35.71875 C 11.757812 -35.832031 11.945312 -35.929688 12.1875 -36.015625 C 13.351562 -36.546875 14.597656 -36.816406 15.921875 -36.828125 C 16.460938 -36.867188 17.015625 -36.90625 17.578125 -36.9375 C 19.703125 -36.757812 21.34375 -35.976562 22.5 -34.59375 C 23.664062 -33.207031 24.160156 -31.46875 23.984375 -29.375 C 23.878906 -28.125 23.554688 -26.921875 23.015625 -25.765625 C 19.378906 -18.140625 14.390625 -13.96875 8.046875 -13.25 Z M 14.96875 -32.96875 C 12.144531 -32.882812 9.6875 -31.910156 7.59375 -30.046875 C 5.507812 -28.179688 4.003906 -26.085938 3.078125 -23.765625 C 2.148438 -21.441406 1.96875 -19.570312 2.53125 -18.15625 C 3.101562 -16.738281 4.625 -16.429688 7.09375 -17.234375 C 9.851562 -18.273438 12.242188 -20.039062 14.265625 -22.53125 C 16.285156 -25.019531 17.460938 -27.34375 17.796875 -29.5 C 18.140625 -31.65625 17.195312 -32.8125 14.96875 -32.96875 Z M 14.96875 -32.96875 "/></g></g></g><g fill="#dc3c4d" fill-opacity="0.502"><g transform="translate(201.22843, 289.00729)"><g><path d="M 36.875 -30.34375 C 37.050781 -30.351562 37.257812 -30.320312 37.5 -30.25 C 37.738281 -30.175781 37.929688 -30.082031 38.078125 -29.96875 C 38.609375 -29.53125 38.703125 -28.972656 38.359375 -28.296875 C 37.890625 -27.722656 37.4375 -27.226562 37 -26.8125 C 34.40625 -24.101562 31.476562 -21.785156 28.21875 -19.859375 C 23.113281 -16.847656 17.378906 -15.101562 11.015625 -14.625 C 8.660156 -14.40625 6.207031 -14.648438 3.65625 -15.359375 C -1.03125 -16.847656 -3.097656 -20.03125 -2.546875 -24.90625 C -1.785156 -29.4375 0.5 -33.300781 4.3125 -36.5 C 8.132812 -39.707031 12.34375 -41.253906 16.9375 -41.140625 C 17.800781 -41.054688 18.664062 -40.914062 19.53125 -40.71875 C 20.34375 -40.445312 20.96875 -40.007812 21.40625 -39.40625 C 21.84375 -38.800781 21.910156 -38.289062 21.609375 -37.875 C 20.804688 -36.90625 19.835938 -36.617188 18.703125 -37.015625 C 17.023438 -37.617188 15.503906 -37.71875 14.140625 -37.3125 C 12.785156 -36.90625 11.445312 -36.070312 10.125 -34.8125 C 8.832031 -33.6875 7.460938 -32.09375 6.015625 -30.03125 C 4.566406 -27.96875 3.6875 -25.921875 3.375 -23.890625 C 3.070312 -21.859375 4.078125 -20.289062 6.390625 -19.1875 C 8.953125 -18.238281 11.519531 -18.128906 14.09375 -18.859375 C 20.507812 -20.585938 26.394531 -23.4375 31.75 -27.40625 C 32.226562 -27.6875 32.648438 -28 33.015625 -28.34375 C 33.597656 -28.851562 34.191406 -29.273438 34.796875 -29.609375 C 35.398438 -29.941406 36.09375 -30.1875 36.875 -30.34375 Z M 36.875 -30.34375 "/></g></g></g><g fill="#dc3c4d" fill-opacity="0.502"><g transform="translate(236.97362, 286.753094)"><g><path d="M 39.8125 -29.96875 C 40.125 -29.582031 40.21875 -29.1875 40.09375 -28.78125 C 39.976562 -28.382812 39.738281 -28.007812 39.375 -27.65625 C 37.03125 -25.28125 34.382812 -23.335938 31.4375 -21.828125 C 26.382812 -19.066406 21.015625 -17.222656 15.328125 -16.296875 C 10.859375 -15.554688 6.53125 -15.96875 2.34375 -17.53125 C 0.800781 -18.113281 -0.285156 -17.679688 -0.921875 -16.234375 C -1.796875 -14.203125 -2.726562 -12.175781 -3.71875 -10.15625 C -4.175781 -9.007812 -4.6875 -7.828125 -5.25 -6.609375 C -5.3125 -6.460938 -5.375 -6.296875 -5.4375 -6.109375 C -5.664062 -5.703125 -5.882812 -5.3125 -6.09375 -4.9375 C -6.300781 -4.5625 -6.6875 -4.285156 -7.25 -4.109375 C -7.53125 -4.015625 -7.832031 -3.957031 -8.15625 -3.9375 C -8.476562 -3.914062 -8.769531 -3.972656 -9.03125 -4.109375 C -9.257812 -4.265625 -9.460938 -4.488281 -9.640625 -4.78125 C -9.828125 -5.082031 -9.929688 -5.394531 -9.953125 -5.71875 C -9.765625 -6.769531 -9.46875 -7.8125 -9.0625 -8.84375 C -8.207031 -11.1875 -7.363281 -13.5 -6.53125 -15.78125 C -4.457031 -21.570312 -2.257812 -27.3125 0.0625 -33 C 6.507812 -48.632812 12.582031 -64.398438 18.28125 -80.296875 C 18.726562 -81.828125 19.378906 -83.210938 20.234375 -84.453125 C 20.898438 -85.347656 21.863281 -85.644531 23.125 -85.34375 C 24.445312 -84.875 24.898438 -83.984375 24.484375 -82.671875 C 23.785156 -79.972656 23.023438 -77.253906 22.203125 -74.515625 C 18.015625 -61.953125 13.347656 -49.582031 8.203125 -37.40625 C 7.097656 -34.800781 6.742188 -33.175781 7.140625 -32.53125 C 7.546875 -31.894531 8.390625 -31.894531 9.671875 -32.53125 C 10.953125 -33.175781 12.445312 -34.019531 14.15625 -35.0625 C 15.351562 -35.851562 16.554688 -36.550781 17.765625 -37.15625 C 18.003906 -37.351562 18.234375 -37.5 18.453125 -37.59375 C 19.890625 -38.539062 21.488281 -39.101562 23.25 -39.28125 C 23.925781 -39.320312 24.445312 -39.046875 24.8125 -38.453125 C 25.007812 -38.085938 25.035156 -37.757812 24.890625 -37.46875 C 24.742188 -37.175781 24.550781 -36.945312 24.3125 -36.78125 C 21.726562 -35.039062 19.113281 -33.363281 16.46875 -31.75 C 15.175781 -31.0625 13.835938 -30.316406 12.453125 -29.515625 C 11.085938 -28.773438 9.757812 -28.015625 8.46875 -27.234375 C 7.5625 -26.628906 6.738281 -25.945312 6 -25.1875 C 4.289062 -23.164062 4.582031 -21.601562 6.875 -20.5 C 8.757812 -19.832031 10.625 -19.535156 12.46875 -19.609375 C 14.3125 -19.691406 16.128906 -20.023438 17.921875 -20.609375 C 23.472656 -22.203125 28.644531 -24.585938 33.4375 -27.765625 C 33.8125 -28.015625 34.1875 -28.238281 34.5625 -28.4375 C 35.457031 -29.101562 36.410156 -29.695312 37.421875 -30.21875 C 37.804688 -30.414062 38.226562 -30.507812 38.6875 -30.5 C 39.15625 -30.5 39.53125 -30.320312 39.8125 -29.96875 Z M 39.8125 -29.96875 "/></g></g></g><g fill="#d72323" fill-opacity="1"><g transform="translate(57.11363, 296.092819)"><g><path d="M 21.140625 -22.953125 C 13.953125 -5.679688 10.15625 3.429688 9.75 4.390625 C 9.269531 5.453125 8.78125 6.5625 8.28125 7.71875 C 8.164062 8 8.082031 8.304688 8.03125 8.640625 C 7.050781 10.847656 6.109375 13.078125 5.203125 15.328125 C -0.453125 28.890625 -5.8125 42.484375 -10.875 56.109375 C -10.863281 56.285156 -10.90625 56.453125 -11 56.609375 C -11.050781 56.921875 -11.175781 57.242188 -11.375 57.578125 C -12.09375 58.742188 -13.050781 59.273438 -14.25 59.171875 C -14.5625 59.265625 -14.882812 59.285156 -15.21875 59.234375 C -15.863281 59.128906 -16.363281 58.890625 -16.71875 58.515625 C -17.082031 58.140625 -17.179688 57.59375 -17.015625 56.875 C -16.335938 54.207031 -15.484375 51.546875 -14.453125 48.890625 C -10.898438 39.929688 -7.359375 30.90625 -3.828125 21.8125 C -1.742188 16.40625 0.363281 10.976562 2.5 5.53125 C 3.445312 3.375 6.335938 -3.515625 11.171875 -15.140625 C 16.015625 -26.765625 18.84375 -33.59375 19.65625 -35.625 C 26.03125 -51.007812 32.796875 -66.28125 39.953125 -81.4375 C 44.523438 -91.34375 49.023438 -101.296875 53.453125 -111.296875 C 53.953125 -112.515625 54.597656 -113.613281 55.390625 -114.59375 C 56.066406 -115.351562 56.898438 -115.835938 57.890625 -116.046875 C 58.203125 -116.242188 58.523438 -116.300781 58.859375 -116.21875 C 59.628906 -116.375 60.242188 -116.203125 60.703125 -115.703125 C 61.160156 -115.210938 61.289062 -114.601562 61.09375 -113.875 C 60.90625 -113.320312 60.703125 -112.753906 60.484375 -112.171875 C 59.316406 -108.722656 57.960938 -105.289062 56.421875 -101.875 C 51.304688 -90.269531 46.113281 -78.691406 40.84375 -67.140625 C 38.132812 -61.234375 35.476562 -55.3125 32.875 -49.375 C 31.5625 -46.53125 30.273438 -43.648438 29.015625 -40.734375 C 28.546875 -39.660156 28.070312 -38.566406 27.59375 -37.453125 C 27.5 -37.285156 27.421875 -37.125 27.359375 -36.96875 C 27.171875 -36.5625 27.023438 -36.160156 26.921875 -35.765625 C 26.816406 -35.367188 26.847656 -35.007812 27.015625 -34.6875 C 27.285156 -34.382812 27.625 -34.207031 28.03125 -34.15625 C 28.414062 -34.257812 28.800781 -34.359375 29.1875 -34.453125 C 29.320312 -34.566406 29.476562 -34.664062 29.65625 -34.75 C 33.894531 -36.269531 38.140625 -37.785156 42.390625 -39.296875 C 54.273438 -43.609375 66.085938 -48.109375 77.828125 -52.796875 C 89.566406 -57.484375 101.179688 -62.585938 112.671875 -68.109375 C 119.847656 -71.585938 126.925781 -75.21875 133.90625 -79 C 140.894531 -82.789062 147.734375 -86.945312 154.421875 -91.46875 C 159.984375 -95.226562 165.175781 -99.550781 170 -104.4375 C 172.394531 -106.851562 174.445312 -109.550781 176.15625 -112.53125 C 179.625 -118.488281 179.519531 -123.835938 175.84375 -128.578125 C 173.625 -131.429688 170.878906 -133.703125 167.609375 -135.390625 C 162.710938 -138.160156 157.453125 -140.226562 151.828125 -141.59375 C 138.097656 -144.851562 123.929688 -146.582031 109.328125 -146.78125 C 100.753906 -146.84375 92.085938 -146.632812 83.328125 -146.15625 C 78.609375 -145.851562 73.863281 -145.445312 69.09375 -144.9375 C 61.957031 -144.164062 54.816406 -143.082031 47.671875 -141.6875 C 40.535156 -140.289062 33.472656 -138.222656 26.484375 -135.484375 C 22.035156 -133.722656 17.722656 -131.566406 13.546875 -129.015625 C 10.316406 -127.234375 7.5 -124.957031 5.09375 -122.1875 C 4.4375 -121.351562 3.632812 -120.707031 2.6875 -120.25 C 2.25 -120.019531 1.828125 -119.925781 1.421875 -119.96875 C 0.640625 -119.84375 -0.0351562 -120.03125 -0.609375 -120.53125 C -1.367188 -121.28125 -1.421875 -122.132812 -0.765625 -123.09375 C 0.242188 -124.675781 1.4375 -126.066406 2.8125 -127.265625 C 4.1875 -128.460938 5.632812 -129.539062 7.15625 -130.5 C 14.113281 -135.132812 21.421875 -138.675781 29.078125 -141.125 C 38.421875 -144.15625 47.851562 -146.238281 57.375 -147.375 C 66.582031 -148.675781 75.820312 -149.65625 85.09375 -150.3125 L 85.3125 -150.328125 C 87.070312 -150.441406 88.835938 -150.550781 90.609375 -150.65625 C 99.523438 -151.070312 108.363281 -151.179688 117.125 -150.984375 C 125.882812 -150.785156 134.582031 -150.003906 143.21875 -148.640625 C 147.675781 -147.929688 152.070312 -147.019531 156.40625 -145.90625 C 160.75 -144.789062 164.945312 -143.320312 169 -141.5 C 173.457031 -139.664062 177.398438 -137.148438 180.828125 -133.953125 C 188.390625 -126.660156 188.570312 -118.046875 181.375 -108.109375 C 178.039062 -103.710938 174.222656 -99.796875 169.921875 -96.359375 C 164.523438 -91.929688 158.945312 -87.894531 153.1875 -84.25 C 147.425781 -80.601562 141.523438 -77.210938 135.484375 -74.078125 C 123.023438 -67.378906 110.378906 -61.273438 97.546875 -55.765625 C 84.722656 -50.253906 71.804688 -45.113281 58.796875 -40.34375 C 48.597656 -36.550781 38.40625 -32.882812 28.21875 -29.34375 C 26.613281 -28.84375 25.203125 -28.09375 23.984375 -27.09375 C 22.773438 -26.101562 21.828125 -24.722656 21.140625 -22.953125 Z M 204.640625 10.15625 C 208.242188 12.882812 187.546875 9.050781 142.546875 -1.34375 C 111.703125 -8.65625 80.625 -15.4375 49.3125 -21.6875 C 40.59375 -23.3125 31.851562 -24.867188 23.09375 -26.359375 C 19.5625 -27.035156 16.039062 -27.664062 12.53125 -28.25 C 11.332031 -28.4375 10.140625 -28.582031 8.953125 -28.6875 C 8.742188 -28.675781 8.507812 -28.695312 8.25 -28.75 C 7.457031 -28.707031 7.503906 -29.765625 8.390625 -31.921875 C 9.273438 -34.078125 10.492188 -34.8125 12.046875 -34.125 C 14.078125 -33.207031 18.8125 -31.957031 26.25 -30.375 C 33.6875 -28.800781 43.289062 -26.804688 55.0625 -24.390625 C 77.332031 -20.023438 103.96875 -14.351562 134.96875 -7.375 C 177.8125 1.582031 201.035156 7.425781 204.640625 10.15625 Z M 204.640625 10.15625 "/></g></g></g><g fill="#d72323" fill-opacity="1"><g transform="translate(175.603271, 288.620517)"><g><path d="M 7.71875 -13.21875 L 7.5625 -13.21875 C 2.375 -12.957031 -1.109375 -13.894531 -2.890625 -16.03125 C -4.671875 -18.175781 -4.789062 -21.15625 -3.25 -24.96875 C -1.914062 -27.882812 -0.175781 -30.472656 1.96875 -32.734375 C 2.707031 -33.492188 3.472656 -34.113281 4.265625 -34.59375 C 5.054688 -35.082031 5.972656 -35.359375 7.015625 -35.421875 C 7.628906 -35.566406 8.335938 -35.503906 9.140625 -35.234375 C 9.390625 -35.171875 9.640625 -35.097656 9.890625 -35.015625 C 10.492188 -35.148438 11.070312 -35.382812 11.625 -35.71875 C 11.757812 -35.832031 11.945312 -35.929688 12.1875 -36.015625 C 13.351562 -36.546875 14.597656 -36.816406 15.921875 -36.828125 C 16.460938 -36.867188 17.015625 -36.90625 17.578125 -36.9375 C 19.703125 -36.757812 21.34375 -35.976562 22.5 -34.59375 C 23.664062 -33.207031 24.160156 -31.46875 23.984375 -29.375 C 23.878906 -28.125 23.554688 -26.921875 23.015625 -25.765625 C 19.378906 -18.140625 14.390625 -13.96875 8.046875 -13.25 Z M 14.96875 -32.96875 C 12.144531 -32.882812 9.6875 -31.910156 7.59375 -30.046875 C 5.507812 -28.179688 4.003906 -26.085938 3.078125 -23.765625 C 2.148438 -21.441406 1.96875 -19.570312 2.53125 -18.15625 C 3.101562 -16.738281 4.625 -16.429688 7.09375 -17.234375 C 9.851562 -18.273438 12.242188 -20.039062 14.265625 -22.53125 C 16.285156 -25.019531 17.460938 -27.34375 17.796875 -29.5 C 18.140625 -31.65625 17.195312 -32.8125 14.96875 -32.96875 Z M 14.96875 -32.96875 "/></g></g></g><g fill="#d72323" fill-opacity="1"><g transform="translate(204.060089, 286.825947)"><g><path d="M 36.875 -30.34375 C 37.050781 -30.351562 37.257812 -30.320312 37.5 -30.25 C 37.738281 -30.175781 37.929688 -30.082031 38.078125 -29.96875 C 38.609375 -29.53125 38.703125 -28.972656 38.359375 -28.296875 C 37.890625 -27.722656 37.4375 -27.226562 37 -26.8125 C 34.40625 -24.101562 31.476562 -21.785156 28.21875 -19.859375 C 23.113281 -16.847656 17.378906 -15.101562 11.015625 -14.625 C 8.660156 -14.40625 6.207031 -14.648438 3.65625 -15.359375 C -1.03125 -16.847656 -3.097656 -20.03125 -2.546875 -24.90625 C -1.785156 -29.4375 0.5 -33.300781 4.3125 -36.5 C 8.132812 -39.707031 12.34375 -41.253906 16.9375 -41.140625 C 17.800781 -41.054688 18.664062 -40.914062 19.53125 -40.71875 C 20.34375 -40.445312 20.96875 -40.007812 21.40625 -39.40625 C 21.84375 -38.800781 21.910156 -38.289062 21.609375 -37.875 C 20.804688 -36.90625 19.835938 -36.617188 18.703125 -37.015625 C 17.023438 -37.617188 15.503906 -37.71875 14.140625 -37.3125 C 12.785156 -36.90625 11.445312 -36.070312 10.125 -34.8125 C 8.832031 -33.6875 7.460938 -32.09375 6.015625 -30.03125 C 4.566406 -27.96875 3.6875 -25.921875 3.375 -23.890625 C 3.070312 -21.859375 4.078125 -20.289062 6.390625 -19.1875 C 8.953125 -18.238281 11.519531 -18.128906 14.09375 -18.859375 C 20.507812 -20.585938 26.394531 -23.4375 31.75 -27.40625 C 32.226562 -27.6875 32.648438 -28 33.015625 -28.34375 C 33.597656 -28.851562 34.191406 -29.273438 34.796875 -29.609375 C 35.398438 -29.941406 36.09375 -30.1875 36.875 -30.34375 Z M 36.875 -30.34375 "/></g></g></g><g fill="#d72323" fill-opacity="1"><g transform="translate(239.805279, 284.571751)"><g><path d="M 39.8125 -29.96875 C 40.125 -29.582031 40.21875 -29.1875 40.09375 -28.78125 C 39.976562 -28.382812 39.738281 -28.007812 39.375 -27.65625 C 37.03125 -25.28125 34.382812 -23.335938 31.4375 -21.828125 C 26.382812 -19.066406 21.015625 -17.222656 15.328125 -16.296875 C 10.859375 -15.554688 6.53125 -15.96875 2.34375 -17.53125 C 0.800781 -18.113281 -0.285156 -17.679688 -0.921875 -16.234375 C -1.796875 -14.203125 -2.726562 -12.175781 -3.71875 -10.15625 C -4.175781 -9.007812 -4.6875 -7.828125 -5.25 -6.609375 C -5.3125 -6.460938 -5.375 -6.296875 -5.4375 -6.109375 C -5.664062 -5.703125 -5.882812 -5.3125 -6.09375 -4.9375 C -6.300781 -4.5625 -6.6875 -4.285156 -7.25 -4.109375 C -7.53125 -4.015625 -7.832031 -3.957031 -8.15625 -3.9375 C -8.476562 -3.914062 -8.769531 -3.972656 -9.03125 -4.109375 C -9.257812 -4.265625 -9.460938 -4.488281 -9.640625 -4.78125 C -9.828125 -5.082031 -9.929688 -5.394531 -9.953125 -5.71875 C -9.765625 -6.769531 -9.46875 -7.8125 -9.0625 -8.84375 C -8.207031 -11.1875 -7.363281 -13.5 -6.53125 -15.78125 C -4.457031 -21.570312 -2.257812 -27.3125 0.0625 -33 C 6.507812 -48.632812 12.582031 -64.398438 18.28125 -80.296875 C 18.726562 -81.828125 19.378906 -83.210938 20.234375 -84.453125 C 20.898438 -85.347656 21.863281 -85.644531 23.125 -85.34375 C 24.445312 -84.875 24.898438 -83.984375 24.484375 -82.671875 C 23.785156 -79.972656 23.023438 -77.253906 22.203125 -74.515625 C 18.015625 -61.953125 13.347656 -49.582031 8.203125 -37.40625 C 7.097656 -34.800781 6.742188 -33.175781 7.140625 -32.53125 C 7.546875 -31.894531 8.390625 -31.894531 9.671875 -32.53125 C 10.953125 -33.175781 12.445312 -34.019531 14.15625 -35.0625 C 15.351562 -35.851562 16.554688 -36.550781 17.765625 -37.15625 C 18.003906 -37.351562 18.234375 -37.5 18.453125 -37.59375 C 19.890625 -38.539062 21.488281 -39.101562 23.25 -39.28125 C 23.925781 -39.320312 24.445312 -39.046875 24.8125 -38.453125 C 25.007812 -38.085938 25.035156 -37.757812 24.890625 -37.46875 C 24.742188 -37.175781 24.550781 -36.945312 24.3125 -36.78125 C 21.726562 -35.039062 19.113281 -33.363281 16.46875 -31.75 C 15.175781 -31.0625 13.835938 -30.316406 12.453125 -29.515625 C 11.085938 -28.773438 9.757812 -28.015625 8.46875 -27.234375 C 7.5625 -26.628906 6.738281 -25.945312 6 -25.1875 C 4.289062 -23.164062 4.582031 -21.601562 6.875 -20.5 C 8.757812 -19.832031 10.625 -19.535156 12.46875 -19.609375 C 14.3125 -19.691406 16.128906 -20.023438 17.921875 -20.609375 C 23.472656 -22.203125 28.644531 -24.585938 33.4375 -27.765625 C 33.8125 -28.015625 34.1875 -28.238281 34.5625 -28.4375 C 35.457031 -29.101562 36.410156 -29.695312 37.421875 -30.21875 C 37.804688 -30.414062 38.226562 -30.507812 38.6875 -30.5 C 39.15625 -30.5 39.53125 -30.320312 39.8125 -29.96875 Z M 39.8125 -29.96875 "/></g></g></g><g clip-path="url(#id1)"><path fill="#303841" d="M 350.566406 264.492188 C 349.53125 264.492188 348.5 264.140625 347.652344 263.417969 L 255.082031 184.925781 C 254.074219 184.066406 253.484375 182.824219 253.484375 181.484375 L 253.484375 83.945312 L 208.332031 83.945312 L 208.332031 134.382812 C 208.332031 136.160156 207.292969 137.765625 205.667969 138.5 C 204.058594 139.230469 202.144531 138.949219 200.816406 137.765625 L 138.730469 82.816406 C 136.859375 81.164062 136.6875 78.3125 138.339844 76.445312 C 140.011719 74.574219 142.855469 74.40625 144.71875 76.054688 L 199.289062 124.371094 L 199.289062 79.433594 C 199.289062 76.941406 201.3125 74.917969 203.804688 74.917969 L 257.992188 74.917969 C 260.476562 74.917969 262.507812 76.941406 262.507812 79.433594 L 262.507812 179.402344 L 353.476562 256.539062 C 355.382812 258.164062 355.605469 261 354 262.894531 C 353.125 263.941406 351.851562 264.492188 350.566406 264.492188 Z M 350.566406 264.492188 " fill-opacity="1" fill-rule="nonzero"/></g></svg>