<svg xmlns="http://www.w3.org/2000/svg" xmlns:xlink="http://www.w3.org/1999/xlink" width="500" zoomAndPan="magnify" viewBox="0 0 375 374.999991" height="500" preserveAspectRatio="xMidYMid meet" version="1.0"><defs><clipPath id="id1"><path d="M 22 4.921875 L 353 4.921875 L 353 158 L 22 158 Z M 22 4.921875 " clip-rule="nonzero"/></clipPath><clipPath id="id2"><path d="M 0 176 L 179 176 L 179 370.171875 L 0 370.171875 Z M 0 176 " clip-rule="nonzero"/></clipPath><clipPath id="id3"><path d="M 196 176 L 375 176 L 375 370.171875 L 196 370.171875 Z M 196 176 " clip-rule="nonzero"/></clipPath></defs><rect x="-37.5" width="450" fill="#ffffff" y="-37.499999" height="449.999989" fill-opacity="1"/><rect x="-37.5" width="450" fill="#ffffff" y="-37.499999" height="449.999989" fill-opacity="1"/><rect x="-37.5" width="450" fill="#ffffff" y="-37.499999" height="449.999989" fill-opacity="1"/><g clip-path="url(#id1)"><path fill="#303841" d="M 341.445312 157.40625 L 187.492188 27.273438 L 33.535156 157.40625 L 22.519531 144.359375 L 187.492188 4.910156 L 352.464844 144.359375 L 341.445312 157.40625 " fill-opacity="1" fill-rule="nonzero"/></g><path fill="#303841" d="M 49.863281 152.148438 L 66.9375 137.71875 L 66.9375 259.289062 L 49.863281 247.273438 L 49.863281 152.148438 " fill-opacity="1" fill-rule="nonzero"/><path fill="#303841" d="M 90.65625 269.992188 L 95.253906 274.492188 L 85.921875 272.652344 L 81.785156 269.742188 L 90.414062 269.742188 C 90.492188 269.828125 90.570312 269.914062 90.65625 269.992188 " fill-opacity="1" fill-rule="nonzero"/><path fill="#303841" d="M 228.015625 269.742188 L 210.574219 286.820312 L 164.410156 286.820312 L 146.96875 269.742188 L 228.015625 269.742188 " fill-opacity="1" fill-rule="nonzero"/><path fill="#303841" d="M 284.5625 269.742188 L 293.203125 269.742188 L 289.058594 272.652344 L 279.730469 274.492188 L 284.332031 269.980469 C 284.40625 269.90625 284.484375 269.828125 284.5625 269.742188 " fill-opacity="1" fill-rule="nonzero"/><path fill="#303841" d="M 325.117188 152.148438 L 325.117188 247.273438 L 308.039062 259.300781 L 308.039062 137.71875 L 325.117188 152.148438 " fill-opacity="1" fill-rule="nonzero"/><path fill="#303841" d="M 103.242188 27.222656 L 103.242188 67.582031 L 86.167969 82.015625 L 86.167969 44.300781 L 55.875 44.300781 L 55.875 107.617188 L 38.800781 122.050781 L 38.800781 27.222656 L 103.242188 27.222656 " fill-opacity="1" fill-rule="nonzero"/><path fill="#303841" d="M 191.546875 166.375 L 216.507812 166.375 L 216.507812 141.410156 L 191.546875 141.410156 L 191.546875 166.375 " fill-opacity="1" fill-rule="nonzero"/><path fill="#303841" d="M 183.4375 166.375 L 183.4375 141.410156 L 158.476562 141.410156 L 158.476562 166.375 L 183.4375 166.375 " fill-opacity="1" fill-rule="nonzero"/><path fill="#303841" d="M 183.4375 174.488281 L 158.476562 174.488281 L 158.476562 199.453125 L 183.4375 199.453125 L 183.4375 174.488281 " fill-opacity="1" fill-rule="nonzero"/><path fill="#303841" d="M 191.546875 174.488281 L 191.546875 199.453125 L 216.507812 199.453125 L 216.507812 174.488281 L 191.546875 174.488281 " fill-opacity="1" fill-rule="nonzero"/><g clip-path="url(#id2)"><path fill="#d72323" d="M 110.117188 344.828125 C 111.496094 346.347656 112.050781 348.863281 112.078125 351.871094 L 112.082031 351.867188 L 112.082031 370.164062 L 178.449219 370.164062 L 178.449219 337.285156 C 178.449219 323.835938 177.230469 310.394531 173.328125 303.488281 C 172.703125 302.304688 171.992188 301.316406 171.21875 300.53125 L 171.210938 300.523438 C 170.75 299.902344 170.238281 299.300781 169.667969 298.746094 L 114.949219 245.167969 C 109.046875 239.394531 99.585938 239.5 93.816406 245.390625 C 88.042969 251.289062 88.148438 260.75 94.039062 266.527344 L 110.214844 282.367188 L 83.980469 277.210938 L 30.34375 239.460938 L 30.203125 191.890625 C 30.175781 183.628906 23.464844 176.960938 15.21875 176.984375 C 6.964844 177.011719 0.292969 183.722656 0.320312 191.972656 L 0.492188 248.273438 C 0.507812 252.933594 2.683594 257.253906 6.296875 260.054688 C 7.671875 261.113281 95.566406 328.867188 110.117188 344.828125 " fill-opacity="1" fill-rule="nonzero"/></g><g clip-path="url(#id3)"><path fill="#d72323" d="M 264.867188 344.828125 C 263.488281 346.347656 262.929688 348.863281 262.902344 351.871094 L 262.902344 351.867188 L 262.902344 370.164062 L 196.535156 370.164062 L 196.535156 337.285156 C 196.535156 323.835938 197.753906 310.394531 201.65625 303.488281 C 202.28125 302.304688 202.988281 301.316406 203.761719 300.53125 L 203.773438 300.523438 C 204.234375 299.902344 204.746094 299.300781 205.316406 298.746094 L 260.035156 245.167969 C 265.933594 239.394531 275.398438 239.5 281.167969 245.390625 C 286.9375 251.289062 286.835938 260.75 280.945312 266.527344 L 264.765625 282.367188 L 291 277.210938 L 344.636719 239.460938 L 344.78125 191.890625 C 344.804688 183.628906 351.519531 176.960938 359.765625 176.984375 C 368.019531 177.011719 374.6875 183.722656 374.664062 191.972656 L 374.492188 248.273438 C 374.472656 252.933594 372.300781 257.253906 368.6875 260.054688 C 367.3125 261.113281 279.414062 328.867188 264.867188 344.828125 " fill-opacity="1" fill-rule="nonzero"/></g></svg>