<svg xmlns="http://www.w3.org/2000/svg" xmlns:xlink="http://www.w3.org/1999/xlink" width="500" zoomAndPan="magnify" viewBox="0 0 375 374.999991" height="500" preserveAspectRatio="xMidYMid meet" version="1.0"><defs><g/></defs><rect x="-37.5" width="450" fill="#ffffff" y="-37.499999" height="449.999989" fill-opacity="1"/><rect x="-37.5" width="450" fill="#ffffff" y="-37.499999" height="449.999989" fill-opacity="1"/><rect x="-37.5" width="450" fill="#ffffff" y="-37.499999" height="449.999989" fill-opacity="1"/><g fill="#dc3c4d" fill-opacity="0.302"><g transform="translate(106.309664, 177.69951)"><g><path d="M 71.40625 -79.8125 C 74.988281 -78.132812 77.75 -75.796875 79.6875 -72.796875 C 81.625 -69.804688 82.578125 -66.484375 82.546875 -62.828125 C 82.453125 -58.359375 81.410156 -54.238281 79.421875 -50.46875 C 77.460938 -46.71875 75.085938 -43.269531 72.296875 -40.125 C 69.992188 -37.53125 67.566406 -35.0625 65.015625 -32.71875 C 62.472656 -30.375 59.835938 -28.128906 57.109375 -25.984375 C 53.554688 -23.160156 49.941406 -20.375 46.265625 -17.625 C 44.660156 -16.425781 43.054688 -15.238281 41.453125 -14.0625 C 41.390625 -13.957031 41.3125 -13.867188 41.21875 -13.796875 C 41 -13.628906 40.78125 -13.5 40.5625 -13.40625 C 39.625 -12.925781 39.007812 -12.34375 38.71875 -11.65625 C 38.4375 -10.96875 38.34375 -10.207031 38.4375 -9.375 C 38.539062 -8.539062 38.703125 -7.679688 38.921875 -6.796875 C 39.015625 -6.378906 39.296875 -6.117188 39.765625 -6.015625 C 40.273438 -5.898438 40.789062 -5.820312 41.3125 -5.78125 C 43.632812 -5.613281 45.945312 -5.476562 48.25 -5.375 C 52.09375 -5.101562 55.960938 -4.84375 59.859375 -4.59375 C 64.140625 -4.34375 68.414062 -4.0625 72.6875 -3.75 C 75.28125 -3.5625 77.894531 -3.375 80.53125 -3.1875 C 81.257812 -3.113281 81.976562 -3.070312 82.6875 -3.0625 C 83.488281 -3 84.285156 -2.941406 85.078125 -2.890625 C 85.691406 -2.878906 86.300781 -2.789062 86.90625 -2.625 C 87.082031 -2.550781 87.242188 -2.441406 87.390625 -2.296875 C 87.535156 -2.160156 87.601562 -1.976562 87.59375 -1.75 C 87.59375 -1.519531 87.535156 -1.375 87.421875 -1.3125 C 87.316406 -1.25 87.195312 -1.207031 87.0625 -1.1875 C 86.570312 -1.09375 86.070312 -1.054688 85.5625 -1.078125 C 83.375 -1.140625 81.175781 -1.191406 78.96875 -1.234375 C 75.320312 -1.296875 71.660156 -1.441406 67.984375 -1.671875 C 62.046875 -2.097656 56.117188 -2.5 50.203125 -2.875 C 48.953125 -2.9375 47.675781 -3.015625 46.375 -3.109375 C 44.488281 -3.273438 42.566406 -3.367188 40.609375 -3.390625 C 39.765625 -3.441406 39.40625 -3.03125 39.53125 -2.15625 C 39.582031 -1.539062 39.648438 -0.9375 39.734375 -0.34375 C 39.773438 -0.0390625 39.816406 0.253906 39.859375 0.546875 C 41.148438 10.515625 42.453125 20.484375 43.765625 30.453125 C 43.785156 30.554688 43.804688 30.679688 43.828125 30.828125 C 43.878906 31.203125 43.910156 31.578125 43.921875 31.953125 C 43.984375 32.898438 43.523438 33.367188 42.546875 33.359375 C 41.554688 33.359375 40.945312 32.921875 40.71875 32.046875 C 40.59375 31.609375 40.515625 31.171875 40.484375 30.734375 C 40.472656 30.660156 40.460938 30.609375 40.453125 30.578125 C 39.679688 25.335938 38.898438 20.179688 38.109375 15.109375 C 37.316406 9.984375 36.550781 4.765625 35.8125 -0.546875 C 35.78125 -0.773438 35.742188 -1.023438 35.703125 -1.296875 C 35.609375 -1.742188 35.546875 -2.1875 35.515625 -2.625 C 35.429688 -3.414062 34.992188 -3.925781 34.203125 -4.15625 C 34.128906 -4.175781 34.046875 -4.195312 33.953125 -4.21875 C 33.328125 -4.382812 32.71875 -4.609375 32.125 -4.890625 C 30.382812 -5.710938 29.828125 -6.929688 30.453125 -8.546875 C 30.953125 -9.679688 31.691406 -10.632812 32.671875 -11.40625 C 33.253906 -11.820312 33.617188 -12.316406 33.765625 -12.890625 C 33.921875 -13.472656 33.941406 -14.15625 33.828125 -14.9375 C 32.578125 -23.59375 31.359375 -32.238281 30.171875 -40.875 C 29.878906 -42.976562 29.582031 -45.09375 29.28125 -47.21875 C 29.269531 -47.3125 29.253906 -47.425781 29.234375 -47.5625 C 29.128906 -48.351562 29.035156 -49.128906 28.953125 -49.890625 C 28.941406 -50.859375 29.523438 -51.335938 30.703125 -51.328125 C 31.828125 -51.347656 32.476562 -50.847656 32.65625 -49.828125 C 32.738281 -49.210938 32.820312 -48.613281 32.90625 -48.03125 C 32.925781 -47.832031 32.953125 -47.632812 32.984375 -47.4375 C 33.703125 -42.707031 34.394531 -37.988281 35.0625 -33.28125 C 35.707031 -28.632812 36.378906 -23.972656 37.078125 -19.296875 C 37.078125 -19.265625 37.078125 -19.234375 37.078125 -19.203125 C 37.191406 -18.410156 37.316406 -17.648438 37.453125 -16.921875 C 37.617188 -16.179688 38.050781 -15.992188 38.75 -16.359375 C 38.957031 -16.503906 39.164062 -16.664062 39.375 -16.84375 C 39.425781 -16.84375 39.453125 -16.84375 39.453125 -16.84375 C 43.347656 -19.675781 47.191406 -22.585938 50.984375 -25.578125 C 54.785156 -28.578125 58.457031 -31.734375 62 -35.046875 C 64.414062 -37.296875 66.695312 -39.675781 68.84375 -42.1875 C 70.988281 -44.707031 72.878906 -47.425781 74.515625 -50.34375 C 76.285156 -53.488281 77.421875 -56.878906 77.921875 -60.515625 C 78.242188 -62.921875 78.070312 -65.378906 77.40625 -67.890625 C 76.320312 -71.703125 74.046875 -74.734375 70.578125 -76.984375 C 68.921875 -78.023438 67.191406 -78.8125 65.390625 -79.34375 C 58.742188 -81.382812 52.289062 -82 46.03125 -81.1875 C 39.769531 -80.382812 33.898438 -78.523438 28.421875 -75.609375 C 22.953125 -72.703125 18.070312 -69.109375 13.78125 -64.828125 C 9.488281 -60.546875 5.960938 -55.9375 3.203125 -51 C 2.078125 -49.269531 1.148438 -47.4375 0.421875 -45.5 C -0.109375 -44.28125 -0.550781 -43.035156 -0.90625 -41.765625 C -1.269531 -40.503906 -1.429688 -39.171875 -1.390625 -37.765625 C -1.378906 -37.410156 -1.476562 -37.144531 -1.6875 -36.96875 C -1.894531 -36.800781 -2.15625 -36.71875 -2.46875 -36.71875 C -2.863281 -36.65625 -3.257812 -36.660156 -3.65625 -36.734375 C -4.476562 -36.910156 -4.960938 -37.40625 -5.109375 -38.21875 C -5.296875 -39.300781 -5.257812 -40.363281 -5 -41.40625 C -4.1875 -45.269531 -2.722656 -48.828125 -0.609375 -52.078125 C 2.640625 -57.171875 6.644531 -61.914062 11.40625 -66.3125 C 16.164062 -70.71875 21.484375 -74.414062 27.359375 -77.40625 C 33.234375 -80.40625 39.476562 -82.347656 46.09375 -83.234375 C 52.707031 -84.128906 59.476562 -83.617188 66.40625 -81.703125 C 68.113281 -81.222656 69.78125 -80.59375 71.40625 -79.8125 Z M 71.40625 -79.8125 "/></g></g><g transform="translate(178.512354, 167.53924)"><g><path d="M 16.046875 -15.21875 C 16.253906 -15.476562 16.414062 -15.207031 16.53125 -14.40625 C 16.65625 -13.613281 16.085938 -12.398438 14.828125 -10.765625 C 13.566406 -9.128906 12.15625 -8.242188 10.59375 -8.109375 C 10.238281 -8.085938 9.945312 -8.015625 9.71875 -7.890625 C 9.5 -7.765625 9.328125 -7.535156 9.203125 -7.203125 C 9.066406 -6.910156 8.898438 -6.632812 8.703125 -6.375 C 8.703125 -6.375 8.6875 -6.351562 8.65625 -6.3125 C 7.84375 -5.15625 6.8125 -4.320312 5.5625 -3.8125 C 4.3125 -3.300781 3.066406 -3.226562 1.828125 -3.59375 C 0.597656 -3.957031 -0.375 -4.835938 -1.09375 -6.234375 C -1.65625 -7.515625 -1.875 -8.835938 -1.75 -10.203125 C -1.644531 -11.390625 -1.375 -12.535156 -0.9375 -13.640625 C -0.40625 -15.097656 0.390625 -16.191406 1.453125 -16.921875 C 2.515625 -17.648438 3.753906 -18.148438 5.171875 -18.421875 C 7.285156 -18.816406 8.773438 -18 9.640625 -15.96875 C 10.148438 -14.789062 10.40625 -13.5625 10.40625 -12.28125 C 10.40625 -12.007812 10.394531 -11.710938 10.375 -11.390625 C 10.34375 -11.171875 10.320312 -10.957031 10.3125 -10.75 C 10.34375 -10.070312 10.675781 -9.804688 11.3125 -9.953125 C 13.0625 -10.523438 14.640625 -12.28125 16.046875 -15.21875 Z M 4.53125 -5.515625 C 5.5625 -6.179688 6.207031 -7.15625 6.46875 -8.4375 C 4.476562 -9.34375 3.019531 -10.84375 2.09375 -12.9375 C 1.65625 -11.832031 1.46875 -10.585938 1.53125 -9.203125 C 1.601562 -7.828125 1.898438 -6.722656 2.421875 -5.890625 C 2.953125 -5.054688 3.65625 -4.929688 4.53125 -5.515625 Z M 6.96875 -10.96875 C 7.1875 -11.4375 7.28125 -11.992188 7.25 -12.640625 C 7.21875 -13.285156 7.097656 -13.910156 6.890625 -14.515625 C 6.691406 -15.128906 6.460938 -15.597656 6.203125 -15.921875 C 5.941406 -16.253906 5.703125 -16.332031 5.484375 -16.15625 C 5.128906 -15.726562 4.976562 -15.160156 5.03125 -14.453125 C 5.082031 -13.753906 5.28125 -13.070312 5.625 -12.40625 C 5.976562 -11.75 6.425781 -11.269531 6.96875 -10.96875 Z M 6.96875 -10.96875 "/></g></g><g transform="translate(195.802937, 165.106132)"><g><path d="M 19.9375 -14.359375 C 20.539062 -14.847656 20.957031 -15.019531 21.1875 -14.875 C 21.414062 -14.738281 21.335938 -14.3125 20.953125 -13.59375 C 19.796875 -11.726562 18.285156 -9.925781 16.421875 -8.1875 C 14.566406 -6.457031 12.660156 -5.128906 10.703125 -4.203125 C 9.453125 -3.546875 8.082031 -3.113281 6.59375 -2.90625 C 5.539062 -2.726562 4.453125 -2.726562 3.328125 -2.90625 C 0.921875 -3.332031 -0.609375 -4.726562 -1.265625 -7.09375 C -1.617188 -8.394531 -1.71875 -9.738281 -1.5625 -11.125 C -1.351562 -12.539062 -0.863281 -13.820312 -0.09375 -14.96875 C 0.664062 -16.125 1.675781 -17.0625 2.9375 -17.78125 C 4.101562 -18.445312 5.367188 -18.820312 6.734375 -18.90625 C 8.097656 -18.988281 9.257812 -18.71875 10.21875 -18.09375 C 10.375 -17.96875 10.460938 -17.800781 10.484375 -17.59375 C 10.515625 -17.394531 10.507812 -17.191406 10.46875 -16.984375 C 10.34375 -16.335938 10.09375 -16.003906 9.71875 -15.984375 C 9.34375 -15.972656 8.882812 -16.066406 8.34375 -16.265625 C 7.945312 -16.398438 7.515625 -16.519531 7.046875 -16.625 C 6.578125 -16.738281 6.113281 -16.71875 5.65625 -16.5625 C 4.34375 -16.175781 3.332031 -15.304688 2.625 -13.953125 C 2.050781 -12.828125 1.722656 -11.617188 1.640625 -10.328125 C 1.554688 -9.035156 1.8125 -7.925781 2.40625 -7 C 3.082031 -6.050781 4.046875 -5.59375 5.296875 -5.625 C 6.554688 -5.664062 7.9375 -6.003906 9.4375 -6.640625 C 10.9375 -7.285156 12.414062 -8.09375 13.875 -9.0625 C 15.332031 -10.039062 16.613281 -11.003906 17.71875 -11.953125 C 18.820312 -12.898438 19.5625 -13.703125 19.9375 -14.359375 Z M 19.9375 -14.359375 "/></g></g><g transform="translate(217.155066, 162.101488)"><g><path d="M 21.3125 -14.390625 C 21.71875 -14.859375 22.003906 -15.097656 22.171875 -15.109375 C 22.347656 -15.117188 22.429688 -15 22.421875 -14.75 C 22.410156 -14.5 22.328125 -14.210938 22.171875 -13.890625 C 21.765625 -13.054688 21.222656 -12.1875 20.546875 -11.28125 C 19.867188 -10.382812 19.378906 -9.753906 19.078125 -9.390625 C 17.078125 -6.992188 15.164062 -5.578125 13.34375 -5.140625 C 11.519531 -4.710938 9.863281 -4.867188 8.375 -5.609375 C 6.882812 -6.359375 5.632812 -7.273438 4.625 -8.359375 C 3.625 -9.453125 2.9375 -10.316406 2.5625 -10.953125 C 2.5 -10.753906 2.5 -10.3125 2.5625 -9.625 C 2.625 -8.9375 2.722656 -8.128906 2.859375 -7.203125 C 2.953125 -6.285156 3.039062 -5.378906 3.125 -4.484375 C 3.207031 -3.597656 3.222656 -2.867188 3.171875 -2.296875 C 3.109375 -1.179688 2.507812 -0.617188 1.375 -0.609375 C 0.582031 -0.585938 0.078125 -0.929688 -0.140625 -1.640625 C -0.265625 -2.097656 -0.359375 -2.566406 -0.421875 -3.046875 C -0.566406 -4.066406 -0.710938 -5.070312 -0.859375 -6.0625 C -1.398438 -10.144531 -1.914062 -14.222656 -2.40625 -18.296875 C -2.675781 -20.265625 -3.015625 -23.390625 -3.421875 -27.671875 C -3.835938 -31.953125 -4.164062 -36.492188 -4.40625 -41.296875 C -4.65625 -46.109375 -4.671875 -50.28125 -4.453125 -53.8125 C -4.359375 -55.207031 -4.070312 -56.5625 -3.59375 -57.875 C -3.125 -59.1875 -2.238281 -60.101562 -0.9375 -60.625 C -0.351562 -60.832031 0.238281 -60.804688 0.84375 -60.546875 C 1.445312 -60.285156 2.039062 -59.675781 2.625 -58.71875 C 3.207031 -57.695312 3.609375 -56.609375 3.828125 -55.453125 C 4.285156 -52.878906 4.4375 -49.570312 4.28125 -45.53125 C 4.125 -41.488281 3.8125 -37.265625 3.34375 -32.859375 C 2.875 -28.453125 2.421875 -24.421875 1.984375 -20.765625 C 1.710938 -18.710938 1.488281 -16.953125 1.3125 -15.484375 C 1.613281 -16.273438 2.046875 -17.1875 2.609375 -18.21875 C 3.179688 -19.257812 3.753906 -20.109375 4.328125 -20.765625 C 5.691406 -22.191406 7.378906 -22.859375 9.390625 -22.765625 C 11.640625 -22.597656 12.476562 -21.445312 11.90625 -19.3125 C 11.25 -17.425781 10.3125 -15.921875 9.09375 -14.796875 C 7.875 -13.671875 6.675781 -12.765625 5.5 -12.078125 C 7.070312 -10.410156 8.773438 -9.148438 10.609375 -8.296875 C 11.890625 -7.773438 13.210938 -7.847656 14.578125 -8.515625 C 15.953125 -9.191406 17.234375 -10.101562 18.421875 -11.25 C 19.617188 -12.40625 20.582031 -13.453125 21.3125 -14.390625 Z M -1.265625 -52.6875 C -1.304688 -48.769531 -1.140625 -43.859375 -0.765625 -37.953125 C -0.398438 -32.054688 -0.0390625 -27.210938 0.3125 -23.421875 C 0.664062 -25.023438 0.960938 -27.679688 1.203125 -31.390625 C 1.453125 -35.097656 1.628906 -38.929688 1.734375 -42.890625 C 1.835938 -46.847656 1.851562 -50.023438 1.78125 -52.421875 C 1.695312 -55.046875 1.421875 -56.722656 0.953125 -57.453125 C 0.492188 -58.179688 0.0351562 -58.125 -0.421875 -57.28125 C -0.878906 -56.4375 -1.160156 -54.90625 -1.265625 -52.6875 Z M 2.578125 -13.484375 C 2.722656 -13.421875 3.097656 -13.535156 3.703125 -13.828125 C 4.304688 -14.128906 4.960938 -14.519531 5.671875 -15 C 6.378906 -15.476562 6.941406 -16.007812 7.359375 -16.59375 C 8.328125 -18.050781 8.71875 -19.003906 8.53125 -19.453125 C 8.351562 -19.910156 7.910156 -20.023438 7.203125 -19.796875 C 6.503906 -19.566406 5.859375 -19.109375 5.265625 -18.421875 C 4.597656 -17.578125 3.972656 -16.65625 3.390625 -15.65625 C 2.816406 -14.664062 2.546875 -13.941406 2.578125 -13.484375 Z M 2.578125 -13.484375 "/></g></g></g><g fill="#dc3c4d" fill-opacity="0.502"><g transform="translate(107.468792, 176.655472)"><g><path d="M 71.40625 -79.8125 C 74.988281 -78.132812 77.75 -75.796875 79.6875 -72.796875 C 81.625 -69.804688 82.578125 -66.484375 82.546875 -62.828125 C 82.453125 -58.359375 81.410156 -54.238281 79.421875 -50.46875 C 77.460938 -46.71875 75.085938 -43.269531 72.296875 -40.125 C 69.992188 -37.53125 67.566406 -35.0625 65.015625 -32.71875 C 62.472656 -30.375 59.835938 -28.128906 57.109375 -25.984375 C 53.554688 -23.160156 49.941406 -20.375 46.265625 -17.625 C 44.660156 -16.425781 43.054688 -15.238281 41.453125 -14.0625 C 41.390625 -13.957031 41.3125 -13.867188 41.21875 -13.796875 C 41 -13.628906 40.78125 -13.5 40.5625 -13.40625 C 39.625 -12.925781 39.007812 -12.34375 38.71875 -11.65625 C 38.4375 -10.96875 38.34375 -10.207031 38.4375 -9.375 C 38.539062 -8.539062 38.703125 -7.679688 38.921875 -6.796875 C 39.015625 -6.378906 39.296875 -6.117188 39.765625 -6.015625 C 40.273438 -5.898438 40.789062 -5.820312 41.3125 -5.78125 C 43.632812 -5.613281 45.945312 -5.476562 48.25 -5.375 C 52.09375 -5.101562 55.960938 -4.84375 59.859375 -4.59375 C 64.140625 -4.34375 68.414062 -4.0625 72.6875 -3.75 C 75.28125 -3.5625 77.894531 -3.375 80.53125 -3.1875 C 81.257812 -3.113281 81.976562 -3.070312 82.6875 -3.0625 C 83.488281 -3 84.285156 -2.941406 85.078125 -2.890625 C 85.691406 -2.878906 86.300781 -2.789062 86.90625 -2.625 C 87.082031 -2.550781 87.242188 -2.441406 87.390625 -2.296875 C 87.535156 -2.160156 87.601562 -1.976562 87.59375 -1.75 C 87.59375 -1.519531 87.535156 -1.375 87.421875 -1.3125 C 87.316406 -1.25 87.195312 -1.207031 87.0625 -1.1875 C 86.570312 -1.09375 86.070312 -1.054688 85.5625 -1.078125 C 83.375 -1.140625 81.175781 -1.191406 78.96875 -1.234375 C 75.320312 -1.296875 71.660156 -1.441406 67.984375 -1.671875 C 62.046875 -2.097656 56.117188 -2.5 50.203125 -2.875 C 48.953125 -2.9375 47.675781 -3.015625 46.375 -3.109375 C 44.488281 -3.273438 42.566406 -3.367188 40.609375 -3.390625 C 39.765625 -3.441406 39.40625 -3.03125 39.53125 -2.15625 C 39.582031 -1.539062 39.648438 -0.9375 39.734375 -0.34375 C 39.773438 -0.0390625 39.816406 0.253906 39.859375 0.546875 C 41.148438 10.515625 42.453125 20.484375 43.765625 30.453125 C 43.785156 30.554688 43.804688 30.679688 43.828125 30.828125 C 43.878906 31.203125 43.910156 31.578125 43.921875 31.953125 C 43.984375 32.898438 43.523438 33.367188 42.546875 33.359375 C 41.554688 33.359375 40.945312 32.921875 40.71875 32.046875 C 40.59375 31.609375 40.515625 31.171875 40.484375 30.734375 C 40.472656 30.660156 40.460938 30.609375 40.453125 30.578125 C 39.679688 25.335938 38.898438 20.179688 38.109375 15.109375 C 37.316406 9.984375 36.550781 4.765625 35.8125 -0.546875 C 35.78125 -0.773438 35.742188 -1.023438 35.703125 -1.296875 C 35.609375 -1.742188 35.546875 -2.1875 35.515625 -2.625 C 35.429688 -3.414062 34.992188 -3.925781 34.203125 -4.15625 C 34.128906 -4.175781 34.046875 -4.195312 33.953125 -4.21875 C 33.328125 -4.382812 32.71875 -4.609375 32.125 -4.890625 C 30.382812 -5.710938 29.828125 -6.929688 30.453125 -8.546875 C 30.953125 -9.679688 31.691406 -10.632812 32.671875 -11.40625 C 33.253906 -11.820312 33.617188 -12.316406 33.765625 -12.890625 C 33.921875 -13.472656 33.941406 -14.15625 33.828125 -14.9375 C 32.578125 -23.59375 31.359375 -32.238281 30.171875 -40.875 C 29.878906 -42.976562 29.582031 -45.09375 29.28125 -47.21875 C 29.269531 -47.3125 29.253906 -47.425781 29.234375 -47.5625 C 29.128906 -48.351562 29.035156 -49.128906 28.953125 -49.890625 C 28.941406 -50.859375 29.523438 -51.335938 30.703125 -51.328125 C 31.828125 -51.347656 32.476562 -50.847656 32.65625 -49.828125 C 32.738281 -49.210938 32.820312 -48.613281 32.90625 -48.03125 C 32.925781 -47.832031 32.953125 -47.632812 32.984375 -47.4375 C 33.703125 -42.707031 34.394531 -37.988281 35.0625 -33.28125 C 35.707031 -28.632812 36.378906 -23.972656 37.078125 -19.296875 C 37.078125 -19.265625 37.078125 -19.234375 37.078125 -19.203125 C 37.191406 -18.410156 37.316406 -17.648438 37.453125 -16.921875 C 37.617188 -16.179688 38.050781 -15.992188 38.75 -16.359375 C 38.957031 -16.503906 39.164062 -16.664062 39.375 -16.84375 C 39.425781 -16.84375 39.453125 -16.84375 39.453125 -16.84375 C 43.347656 -19.675781 47.191406 -22.585938 50.984375 -25.578125 C 54.785156 -28.578125 58.457031 -31.734375 62 -35.046875 C 64.414062 -37.296875 66.695312 -39.675781 68.84375 -42.1875 C 70.988281 -44.707031 72.878906 -47.425781 74.515625 -50.34375 C 76.285156 -53.488281 77.421875 -56.878906 77.921875 -60.515625 C 78.242188 -62.921875 78.070312 -65.378906 77.40625 -67.890625 C 76.320312 -71.703125 74.046875 -74.734375 70.578125 -76.984375 C 68.921875 -78.023438 67.191406 -78.8125 65.390625 -79.34375 C 58.742188 -81.382812 52.289062 -82 46.03125 -81.1875 C 39.769531 -80.382812 33.898438 -78.523438 28.421875 -75.609375 C 22.953125 -72.703125 18.070312 -69.109375 13.78125 -64.828125 C 9.488281 -60.546875 5.960938 -55.9375 3.203125 -51 C 2.078125 -49.269531 1.148438 -47.4375 0.421875 -45.5 C -0.109375 -44.28125 -0.550781 -43.035156 -0.90625 -41.765625 C -1.269531 -40.503906 -1.429688 -39.171875 -1.390625 -37.765625 C -1.378906 -37.410156 -1.476562 -37.144531 -1.6875 -36.96875 C -1.894531 -36.800781 -2.15625 -36.71875 -2.46875 -36.71875 C -2.863281 -36.65625 -3.257812 -36.660156 -3.65625 -36.734375 C -4.476562 -36.910156 -4.960938 -37.40625 -5.109375 -38.21875 C -5.296875 -39.300781 -5.257812 -40.363281 -5 -41.40625 C -4.1875 -45.269531 -2.722656 -48.828125 -0.609375 -52.078125 C 2.640625 -57.171875 6.644531 -61.914062 11.40625 -66.3125 C 16.164062 -70.71875 21.484375 -74.414062 27.359375 -77.40625 C 33.234375 -80.40625 39.476562 -82.347656 46.09375 -83.234375 C 52.707031 -84.128906 59.476562 -83.617188 66.40625 -81.703125 C 68.113281 -81.222656 69.78125 -80.59375 71.40625 -79.8125 Z M 71.40625 -79.8125 "/></g></g><g transform="translate(179.671482, 166.495202)"><g><path d="M 16.046875 -15.21875 C 16.253906 -15.476562 16.414062 -15.207031 16.53125 -14.40625 C 16.65625 -13.613281 16.085938 -12.398438 14.828125 -10.765625 C 13.566406 -9.128906 12.15625 -8.242188 10.59375 -8.109375 C 10.238281 -8.085938 9.945312 -8.015625 9.71875 -7.890625 C 9.5 -7.765625 9.328125 -7.535156 9.203125 -7.203125 C 9.066406 -6.910156 8.898438 -6.632812 8.703125 -6.375 C 8.703125 -6.375 8.6875 -6.351562 8.65625 -6.3125 C 7.84375 -5.15625 6.8125 -4.320312 5.5625 -3.8125 C 4.3125 -3.300781 3.066406 -3.226562 1.828125 -3.59375 C 0.597656 -3.957031 -0.375 -4.835938 -1.09375 -6.234375 C -1.65625 -7.515625 -1.875 -8.835938 -1.75 -10.203125 C -1.644531 -11.390625 -1.375 -12.535156 -0.9375 -13.640625 C -0.40625 -15.097656 0.390625 -16.191406 1.453125 -16.921875 C 2.515625 -17.648438 3.753906 -18.148438 5.171875 -18.421875 C 7.285156 -18.816406 8.773438 -18 9.640625 -15.96875 C 10.148438 -14.789062 10.40625 -13.5625 10.40625 -12.28125 C 10.40625 -12.007812 10.394531 -11.710938 10.375 -11.390625 C 10.34375 -11.171875 10.320312 -10.957031 10.3125 -10.75 C 10.34375 -10.070312 10.675781 -9.804688 11.3125 -9.953125 C 13.0625 -10.523438 14.640625 -12.28125 16.046875 -15.21875 Z M 4.53125 -5.515625 C 5.5625 -6.179688 6.207031 -7.15625 6.46875 -8.4375 C 4.476562 -9.34375 3.019531 -10.84375 2.09375 -12.9375 C 1.65625 -11.832031 1.46875 -10.585938 1.53125 -9.203125 C 1.601562 -7.828125 1.898438 -6.722656 2.421875 -5.890625 C 2.953125 -5.054688 3.65625 -4.929688 4.53125 -5.515625 Z M 6.96875 -10.96875 C 7.1875 -11.4375 7.28125 -11.992188 7.25 -12.640625 C 7.21875 -13.285156 7.097656 -13.910156 6.890625 -14.515625 C 6.691406 -15.128906 6.460938 -15.597656 6.203125 -15.921875 C 5.941406 -16.253906 5.703125 -16.332031 5.484375 -16.15625 C 5.128906 -15.726562 4.976562 -15.160156 5.03125 -14.453125 C 5.082031 -13.753906 5.28125 -13.070312 5.625 -12.40625 C 5.976562 -11.75 6.425781 -11.269531 6.96875 -10.96875 Z M 6.96875 -10.96875 "/></g></g><g transform="translate(196.962064, 164.062094)"><g><path d="M 19.9375 -14.359375 C 20.539062 -14.847656 20.957031 -15.019531 21.1875 -14.875 C 21.414062 -14.738281 21.335938 -14.3125 20.953125 -13.59375 C 19.796875 -11.726562 18.285156 -9.925781 16.421875 -8.1875 C 14.566406 -6.457031 12.660156 -5.128906 10.703125 -4.203125 C 9.453125 -3.546875 8.082031 -3.113281 6.59375 -2.90625 C 5.539062 -2.726562 4.453125 -2.726562 3.328125 -2.90625 C 0.921875 -3.332031 -0.609375 -4.726562 -1.265625 -7.09375 C -1.617188 -8.394531 -1.71875 -9.738281 -1.5625 -11.125 C -1.351562 -12.539062 -0.863281 -13.820312 -0.09375 -14.96875 C 0.664062 -16.125 1.675781 -17.0625 2.9375 -17.78125 C 4.101562 -18.445312 5.367188 -18.820312 6.734375 -18.90625 C 8.097656 -18.988281 9.257812 -18.71875 10.21875 -18.09375 C 10.375 -17.96875 10.460938 -17.800781 10.484375 -17.59375 C 10.515625 -17.394531 10.507812 -17.191406 10.46875 -16.984375 C 10.34375 -16.335938 10.09375 -16.003906 9.71875 -15.984375 C 9.34375 -15.972656 8.882812 -16.066406 8.34375 -16.265625 C 7.945312 -16.398438 7.515625 -16.519531 7.046875 -16.625 C 6.578125 -16.738281 6.113281 -16.71875 5.65625 -16.5625 C 4.34375 -16.175781 3.332031 -15.304688 2.625 -13.953125 C 2.050781 -12.828125 1.722656 -11.617188 1.640625 -10.328125 C 1.554688 -9.035156 1.8125 -7.925781 2.40625 -7 C 3.082031 -6.050781 4.046875 -5.59375 5.296875 -5.625 C 6.554688 -5.664062 7.9375 -6.003906 9.4375 -6.640625 C 10.9375 -7.285156 12.414062 -8.09375 13.875 -9.0625 C 15.332031 -10.039062 16.613281 -11.003906 17.71875 -11.953125 C 18.820312 -12.898438 19.5625 -13.703125 19.9375 -14.359375 Z M 19.9375 -14.359375 "/></g></g><g transform="translate(218.314194, 161.057449)"><g><path d="M 21.3125 -14.390625 C 21.71875 -14.859375 22.003906 -15.097656 22.171875 -15.109375 C 22.347656 -15.117188 22.429688 -15 22.421875 -14.75 C 22.410156 -14.5 22.328125 -14.210938 22.171875 -13.890625 C 21.765625 -13.054688 21.222656 -12.1875 20.546875 -11.28125 C 19.867188 -10.382812 19.378906 -9.753906 19.078125 -9.390625 C 17.078125 -6.992188 15.164062 -5.578125 13.34375 -5.140625 C 11.519531 -4.710938 9.863281 -4.867188 8.375 -5.609375 C 6.882812 -6.359375 5.632812 -7.273438 4.625 -8.359375 C 3.625 -9.453125 2.9375 -10.316406 2.5625 -10.953125 C 2.5 -10.753906 2.5 -10.3125 2.5625 -9.625 C 2.625 -8.9375 2.722656 -8.128906 2.859375 -7.203125 C 2.953125 -6.285156 3.039062 -5.378906 3.125 -4.484375 C 3.207031 -3.597656 3.222656 -2.867188 3.171875 -2.296875 C 3.109375 -1.179688 2.507812 -0.617188 1.375 -0.609375 C 0.582031 -0.585938 0.078125 -0.929688 -0.140625 -1.640625 C -0.265625 -2.097656 -0.359375 -2.566406 -0.421875 -3.046875 C -0.566406 -4.066406 -0.710938 -5.070312 -0.859375 -6.0625 C -1.398438 -10.144531 -1.914062 -14.222656 -2.40625 -18.296875 C -2.675781 -20.265625 -3.015625 -23.390625 -3.421875 -27.671875 C -3.835938 -31.953125 -4.164062 -36.492188 -4.40625 -41.296875 C -4.65625 -46.109375 -4.671875 -50.28125 -4.453125 -53.8125 C -4.359375 -55.207031 -4.070312 -56.5625 -3.59375 -57.875 C -3.125 -59.1875 -2.238281 -60.101562 -0.9375 -60.625 C -0.351562 -60.832031 0.238281 -60.804688 0.84375 -60.546875 C 1.445312 -60.285156 2.039062 -59.675781 2.625 -58.71875 C 3.207031 -57.695312 3.609375 -56.609375 3.828125 -55.453125 C 4.285156 -52.878906 4.4375 -49.570312 4.28125 -45.53125 C 4.125 -41.488281 3.8125 -37.265625 3.34375 -32.859375 C 2.875 -28.453125 2.421875 -24.421875 1.984375 -20.765625 C 1.710938 -18.710938 1.488281 -16.953125 1.3125 -15.484375 C 1.613281 -16.273438 2.046875 -17.1875 2.609375 -18.21875 C 3.179688 -19.257812 3.753906 -20.109375 4.328125 -20.765625 C 5.691406 -22.191406 7.378906 -22.859375 9.390625 -22.765625 C 11.640625 -22.597656 12.476562 -21.445312 11.90625 -19.3125 C 11.25 -17.425781 10.3125 -15.921875 9.09375 -14.796875 C 7.875 -13.671875 6.675781 -12.765625 5.5 -12.078125 C 7.070312 -10.410156 8.773438 -9.148438 10.609375 -8.296875 C 11.890625 -7.773438 13.210938 -7.847656 14.578125 -8.515625 C 15.953125 -9.191406 17.234375 -10.101562 18.421875 -11.25 C 19.617188 -12.40625 20.582031 -13.453125 21.3125 -14.390625 Z M -1.265625 -52.6875 C -1.304688 -48.769531 -1.140625 -43.859375 -0.765625 -37.953125 C -0.398438 -32.054688 -0.0390625 -27.210938 0.3125 -23.421875 C 0.664062 -25.023438 0.960938 -27.679688 1.203125 -31.390625 C 1.453125 -35.097656 1.628906 -38.929688 1.734375 -42.890625 C 1.835938 -46.847656 1.851562 -50.023438 1.78125 -52.421875 C 1.695312 -55.046875 1.421875 -56.722656 0.953125 -57.453125 C 0.492188 -58.179688 0.0351562 -58.125 -0.421875 -57.28125 C -0.878906 -56.4375 -1.160156 -54.90625 -1.265625 -52.6875 Z M 2.578125 -13.484375 C 2.722656 -13.421875 3.097656 -13.535156 3.703125 -13.828125 C 4.304688 -14.128906 4.960938 -14.519531 5.671875 -15 C 6.378906 -15.476562 6.941406 -16.007812 7.359375 -16.59375 C 8.328125 -18.050781 8.71875 -19.003906 8.53125 -19.453125 C 8.351562 -19.910156 7.910156 -20.023438 7.203125 -19.796875 C 6.503906 -19.566406 5.859375 -19.109375 5.265625 -18.421875 C 4.597656 -17.578125 3.972656 -16.65625 3.390625 -15.65625 C 2.816406 -14.664062 2.546875 -13.941406 2.578125 -13.484375 Z M 2.578125 -13.484375 "/></g></g></g><g fill="#d72323" fill-opacity="1"><g transform="translate(108.627915, 175.611419)"><g><path d="M 71.40625 -79.8125 C 74.988281 -78.132812 77.75 -75.796875 79.6875 -72.796875 C 81.625 -69.804688 82.578125 -66.484375 82.546875 -62.828125 C 82.453125 -58.359375 81.410156 -54.238281 79.421875 -50.46875 C 77.460938 -46.71875 75.085938 -43.269531 72.296875 -40.125 C 69.992188 -37.53125 67.566406 -35.0625 65.015625 -32.71875 C 62.472656 -30.375 59.835938 -28.128906 57.109375 -25.984375 C 53.554688 -23.160156 49.941406 -20.375 46.265625 -17.625 C 44.660156 -16.425781 43.054688 -15.238281 41.453125 -14.0625 C 41.390625 -13.957031 41.3125 -13.867188 41.21875 -13.796875 C 41 -13.628906 40.78125 -13.5 40.5625 -13.40625 C 39.625 -12.925781 39.007812 -12.34375 38.71875 -11.65625 C 38.4375 -10.96875 38.34375 -10.207031 38.4375 -9.375 C 38.539062 -8.539062 38.703125 -7.679688 38.921875 -6.796875 C 39.015625 -6.378906 39.296875 -6.117188 39.765625 -6.015625 C 40.273438 -5.898438 40.789062 -5.820312 41.3125 -5.78125 C 43.632812 -5.613281 45.945312 -5.476562 48.25 -5.375 C 52.09375 -5.101562 55.960938 -4.84375 59.859375 -4.59375 C 64.140625 -4.34375 68.414062 -4.0625 72.6875 -3.75 C 75.28125 -3.5625 77.894531 -3.375 80.53125 -3.1875 C 81.257812 -3.113281 81.976562 -3.070312 82.6875 -3.0625 C 83.488281 -3 84.285156 -2.941406 85.078125 -2.890625 C 85.691406 -2.878906 86.300781 -2.789062 86.90625 -2.625 C 87.082031 -2.550781 87.242188 -2.441406 87.390625 -2.296875 C 87.535156 -2.160156 87.601562 -1.976562 87.59375 -1.75 C 87.59375 -1.519531 87.535156 -1.375 87.421875 -1.3125 C 87.316406 -1.25 87.195312 -1.207031 87.0625 -1.1875 C 86.570312 -1.09375 86.070312 -1.054688 85.5625 -1.078125 C 83.375 -1.140625 81.175781 -1.191406 78.96875 -1.234375 C 75.320312 -1.296875 71.660156 -1.441406 67.984375 -1.671875 C 62.046875 -2.097656 56.117188 -2.5 50.203125 -2.875 C 48.953125 -2.9375 47.675781 -3.015625 46.375 -3.109375 C 44.488281 -3.273438 42.566406 -3.367188 40.609375 -3.390625 C 39.765625 -3.441406 39.40625 -3.03125 39.53125 -2.15625 C 39.582031 -1.539062 39.648438 -0.9375 39.734375 -0.34375 C 39.773438 -0.0390625 39.816406 0.253906 39.859375 0.546875 C 41.148438 10.515625 42.453125 20.484375 43.765625 30.453125 C 43.785156 30.554688 43.804688 30.679688 43.828125 30.828125 C 43.878906 31.203125 43.910156 31.578125 43.921875 31.953125 C 43.984375 32.898438 43.523438 33.367188 42.546875 33.359375 C 41.554688 33.359375 40.945312 32.921875 40.71875 32.046875 C 40.59375 31.609375 40.515625 31.171875 40.484375 30.734375 C 40.472656 30.660156 40.460938 30.609375 40.453125 30.578125 C 39.679688 25.335938 38.898438 20.179688 38.109375 15.109375 C 37.316406 9.984375 36.550781 4.765625 35.8125 -0.546875 C 35.78125 -0.773438 35.742188 -1.023438 35.703125 -1.296875 C 35.609375 -1.742188 35.546875 -2.1875 35.515625 -2.625 C 35.429688 -3.414062 34.992188 -3.925781 34.203125 -4.15625 C 34.128906 -4.175781 34.046875 -4.195312 33.953125 -4.21875 C 33.328125 -4.382812 32.71875 -4.609375 32.125 -4.890625 C 30.382812 -5.710938 29.828125 -6.929688 30.453125 -8.546875 C 30.953125 -9.679688 31.691406 -10.632812 32.671875 -11.40625 C 33.253906 -11.820312 33.617188 -12.316406 33.765625 -12.890625 C 33.921875 -13.472656 33.941406 -14.15625 33.828125 -14.9375 C 32.578125 -23.59375 31.359375 -32.238281 30.171875 -40.875 C 29.878906 -42.976562 29.582031 -45.09375 29.28125 -47.21875 C 29.269531 -47.3125 29.253906 -47.425781 29.234375 -47.5625 C 29.128906 -48.351562 29.035156 -49.128906 28.953125 -49.890625 C 28.941406 -50.859375 29.523438 -51.335938 30.703125 -51.328125 C 31.828125 -51.347656 32.476562 -50.847656 32.65625 -49.828125 C 32.738281 -49.210938 32.820312 -48.613281 32.90625 -48.03125 C 32.925781 -47.832031 32.953125 -47.632812 32.984375 -47.4375 C 33.703125 -42.707031 34.394531 -37.988281 35.0625 -33.28125 C 35.707031 -28.632812 36.378906 -23.972656 37.078125 -19.296875 C 37.078125 -19.265625 37.078125 -19.234375 37.078125 -19.203125 C 37.191406 -18.410156 37.316406 -17.648438 37.453125 -16.921875 C 37.617188 -16.179688 38.050781 -15.992188 38.75 -16.359375 C 38.957031 -16.503906 39.164062 -16.664062 39.375 -16.84375 C 39.425781 -16.84375 39.453125 -16.84375 39.453125 -16.84375 C 43.347656 -19.675781 47.191406 -22.585938 50.984375 -25.578125 C 54.785156 -28.578125 58.457031 -31.734375 62 -35.046875 C 64.414062 -37.296875 66.695312 -39.675781 68.84375 -42.1875 C 70.988281 -44.707031 72.878906 -47.425781 74.515625 -50.34375 C 76.285156 -53.488281 77.421875 -56.878906 77.921875 -60.515625 C 78.242188 -62.921875 78.070312 -65.378906 77.40625 -67.890625 C 76.320312 -71.703125 74.046875 -74.734375 70.578125 -76.984375 C 68.921875 -78.023438 67.191406 -78.8125 65.390625 -79.34375 C 58.742188 -81.382812 52.289062 -82 46.03125 -81.1875 C 39.769531 -80.382812 33.898438 -78.523438 28.421875 -75.609375 C 22.953125 -72.703125 18.070312 -69.109375 13.78125 -64.828125 C 9.488281 -60.546875 5.960938 -55.9375 3.203125 -51 C 2.078125 -49.269531 1.148438 -47.4375 0.421875 -45.5 C -0.109375 -44.28125 -0.550781 -43.035156 -0.90625 -41.765625 C -1.269531 -40.503906 -1.429688 -39.171875 -1.390625 -37.765625 C -1.378906 -37.410156 -1.476562 -37.144531 -1.6875 -36.96875 C -1.894531 -36.800781 -2.15625 -36.71875 -2.46875 -36.71875 C -2.863281 -36.65625 -3.257812 -36.660156 -3.65625 -36.734375 C -4.476562 -36.910156 -4.960938 -37.40625 -5.109375 -38.21875 C -5.296875 -39.300781 -5.257812 -40.363281 -5 -41.40625 C -4.1875 -45.269531 -2.722656 -48.828125 -0.609375 -52.078125 C 2.640625 -57.171875 6.644531 -61.914062 11.40625 -66.3125 C 16.164062 -70.71875 21.484375 -74.414062 27.359375 -77.40625 C 33.234375 -80.40625 39.476562 -82.347656 46.09375 -83.234375 C 52.707031 -84.128906 59.476562 -83.617188 66.40625 -81.703125 C 68.113281 -81.222656 69.78125 -80.59375 71.40625 -79.8125 Z M 71.40625 -79.8125 "/></g></g><g transform="translate(180.830605, 165.451149)"><g><path d="M 16.046875 -15.21875 C 16.253906 -15.476562 16.414062 -15.207031 16.53125 -14.40625 C 16.65625 -13.613281 16.085938 -12.398438 14.828125 -10.765625 C 13.566406 -9.128906 12.15625 -8.242188 10.59375 -8.109375 C 10.238281 -8.085938 9.945312 -8.015625 9.71875 -7.890625 C 9.5 -7.765625 9.328125 -7.535156 9.203125 -7.203125 C 9.066406 -6.910156 8.898438 -6.632812 8.703125 -6.375 C 8.703125 -6.375 8.6875 -6.351562 8.65625 -6.3125 C 7.84375 -5.15625 6.8125 -4.320312 5.5625 -3.8125 C 4.3125 -3.300781 3.066406 -3.226562 1.828125 -3.59375 C 0.597656 -3.957031 -0.375 -4.835938 -1.09375 -6.234375 C -1.65625 -7.515625 -1.875 -8.835938 -1.75 -10.203125 C -1.644531 -11.390625 -1.375 -12.535156 -0.9375 -13.640625 C -0.40625 -15.097656 0.390625 -16.191406 1.453125 -16.921875 C 2.515625 -17.648438 3.753906 -18.148438 5.171875 -18.421875 C 7.285156 -18.816406 8.773438 -18 9.640625 -15.96875 C 10.148438 -14.789062 10.40625 -13.5625 10.40625 -12.28125 C 10.40625 -12.007812 10.394531 -11.710938 10.375 -11.390625 C 10.34375 -11.171875 10.320312 -10.957031 10.3125 -10.75 C 10.34375 -10.070312 10.675781 -9.804688 11.3125 -9.953125 C 13.0625 -10.523438 14.640625 -12.28125 16.046875 -15.21875 Z M 4.53125 -5.515625 C 5.5625 -6.179688 6.207031 -7.15625 6.46875 -8.4375 C 4.476562 -9.34375 3.019531 -10.84375 2.09375 -12.9375 C 1.65625 -11.832031 1.46875 -10.585938 1.53125 -9.203125 C 1.601562 -7.828125 1.898438 -6.722656 2.421875 -5.890625 C 2.953125 -5.054688 3.65625 -4.929688 4.53125 -5.515625 Z M 6.96875 -10.96875 C 7.1875 -11.4375 7.28125 -11.992188 7.25 -12.640625 C 7.21875 -13.285156 7.097656 -13.910156 6.890625 -14.515625 C 6.691406 -15.128906 6.460938 -15.597656 6.203125 -15.921875 C 5.941406 -16.253906 5.703125 -16.332031 5.484375 -16.15625 C 5.128906 -15.726562 4.976562 -15.160156 5.03125 -14.453125 C 5.082031 -13.753906 5.28125 -13.070312 5.625 -12.40625 C 5.976562 -11.75 6.425781 -11.269531 6.96875 -10.96875 Z M 6.96875 -10.96875 "/></g></g><g transform="translate(198.121188, 163.018041)"><g><path d="M 19.9375 -14.359375 C 20.539062 -14.847656 20.957031 -15.019531 21.1875 -14.875 C 21.414062 -14.738281 21.335938 -14.3125 20.953125 -13.59375 C 19.796875 -11.726562 18.285156 -9.925781 16.421875 -8.1875 C 14.566406 -6.457031 12.660156 -5.128906 10.703125 -4.203125 C 9.453125 -3.546875 8.082031 -3.113281 6.59375 -2.90625 C 5.539062 -2.726562 4.453125 -2.726562 3.328125 -2.90625 C 0.921875 -3.332031 -0.609375 -4.726562 -1.265625 -7.09375 C -1.617188 -8.394531 -1.71875 -9.738281 -1.5625 -11.125 C -1.351562 -12.539062 -0.863281 -13.820312 -0.09375 -14.96875 C 0.664062 -16.125 1.675781 -17.0625 2.9375 -17.78125 C 4.101562 -18.445312 5.367188 -18.820312 6.734375 -18.90625 C 8.097656 -18.988281 9.257812 -18.71875 10.21875 -18.09375 C 10.375 -17.96875 10.460938 -17.800781 10.484375 -17.59375 C 10.515625 -17.394531 10.507812 -17.191406 10.46875 -16.984375 C 10.34375 -16.335938 10.09375 -16.003906 9.71875 -15.984375 C 9.34375 -15.972656 8.882812 -16.066406 8.34375 -16.265625 C 7.945312 -16.398438 7.515625 -16.519531 7.046875 -16.625 C 6.578125 -16.738281 6.113281 -16.71875 5.65625 -16.5625 C 4.34375 -16.175781 3.332031 -15.304688 2.625 -13.953125 C 2.050781 -12.828125 1.722656 -11.617188 1.640625 -10.328125 C 1.554688 -9.035156 1.8125 -7.925781 2.40625 -7 C 3.082031 -6.050781 4.046875 -5.59375 5.296875 -5.625 C 6.554688 -5.664062 7.9375 -6.003906 9.4375 -6.640625 C 10.9375 -7.285156 12.414062 -8.09375 13.875 -9.0625 C 15.332031 -10.039062 16.613281 -11.003906 17.71875 -11.953125 C 18.820312 -12.898438 19.5625 -13.703125 19.9375 -14.359375 Z M 19.9375 -14.359375 "/></g></g><g transform="translate(219.473317, 160.013397)"><g><path d="M 21.3125 -14.390625 C 21.71875 -14.859375 22.003906 -15.097656 22.171875 -15.109375 C 22.347656 -15.117188 22.429688 -15 22.421875 -14.75 C 22.410156 -14.5 22.328125 -14.210938 22.171875 -13.890625 C 21.765625 -13.054688 21.222656 -12.1875 20.546875 -11.28125 C 19.867188 -10.382812 19.378906 -9.753906 19.078125 -9.390625 C 17.078125 -6.992188 15.164062 -5.578125 13.34375 -5.140625 C 11.519531 -4.710938 9.863281 -4.867188 8.375 -5.609375 C 6.882812 -6.359375 5.632812 -7.273438 4.625 -8.359375 C 3.625 -9.453125 2.9375 -10.316406 2.5625 -10.953125 C 2.5 -10.753906 2.5 -10.3125 2.5625 -9.625 C 2.625 -8.9375 2.722656 -8.128906 2.859375 -7.203125 C 2.953125 -6.285156 3.039062 -5.378906 3.125 -4.484375 C 3.207031 -3.597656 3.222656 -2.867188 3.171875 -2.296875 C 3.109375 -1.179688 2.507812 -0.617188 1.375 -0.609375 C 0.582031 -0.585938 0.078125 -0.929688 -0.140625 -1.640625 C -0.265625 -2.097656 -0.359375 -2.566406 -0.421875 -3.046875 C -0.566406 -4.066406 -0.710938 -5.070312 -0.859375 -6.0625 C -1.398438 -10.144531 -1.914062 -14.222656 -2.40625 -18.296875 C -2.675781 -20.265625 -3.015625 -23.390625 -3.421875 -27.671875 C -3.835938 -31.953125 -4.164062 -36.492188 -4.40625 -41.296875 C -4.65625 -46.109375 -4.671875 -50.28125 -4.453125 -53.8125 C -4.359375 -55.207031 -4.070312 -56.5625 -3.59375 -57.875 C -3.125 -59.1875 -2.238281 -60.101562 -0.9375 -60.625 C -0.351562 -60.832031 0.238281 -60.804688 0.84375 -60.546875 C 1.445312 -60.285156 2.039062 -59.675781 2.625 -58.71875 C 3.207031 -57.695312 3.609375 -56.609375 3.828125 -55.453125 C 4.285156 -52.878906 4.4375 -49.570312 4.28125 -45.53125 C 4.125 -41.488281 3.8125 -37.265625 3.34375 -32.859375 C 2.875 -28.453125 2.421875 -24.421875 1.984375 -20.765625 C 1.710938 -18.710938 1.488281 -16.953125 1.3125 -15.484375 C 1.613281 -16.273438 2.046875 -17.1875 2.609375 -18.21875 C 3.179688 -19.257812 3.753906 -20.109375 4.328125 -20.765625 C 5.691406 -22.191406 7.378906 -22.859375 9.390625 -22.765625 C 11.640625 -22.597656 12.476562 -21.445312 11.90625 -19.3125 C 11.25 -17.425781 10.3125 -15.921875 9.09375 -14.796875 C 7.875 -13.671875 6.675781 -12.765625 5.5 -12.078125 C 7.070312 -10.410156 8.773438 -9.148438 10.609375 -8.296875 C 11.890625 -7.773438 13.210938 -7.847656 14.578125 -8.515625 C 15.953125 -9.191406 17.234375 -10.101562 18.421875 -11.25 C 19.617188 -12.40625 20.582031 -13.453125 21.3125 -14.390625 Z M -1.265625 -52.6875 C -1.304688 -48.769531 -1.140625 -43.859375 -0.765625 -37.953125 C -0.398438 -32.054688 -0.0390625 -27.210938 0.3125 -23.421875 C 0.664062 -25.023438 0.960938 -27.679688 1.203125 -31.390625 C 1.453125 -35.097656 1.628906 -38.929688 1.734375 -42.890625 C 1.835938 -46.847656 1.851562 -50.023438 1.78125 -52.421875 C 1.695312 -55.046875 1.421875 -56.722656 0.953125 -57.453125 C 0.492188 -58.179688 0.0351562 -58.125 -0.421875 -57.28125 C -0.878906 -56.4375 -1.160156 -54.90625 -1.265625 -52.6875 Z M 2.578125 -13.484375 C 2.722656 -13.421875 3.097656 -13.535156 3.703125 -13.828125 C 4.304688 -14.128906 4.960938 -14.519531 5.671875 -15 C 6.378906 -15.476562 6.941406 -16.007812 7.359375 -16.59375 C 8.328125 -18.050781 8.71875 -19.003906 8.53125 -19.453125 C 8.351562 -19.910156 7.910156 -20.023438 7.203125 -19.796875 C 6.503906 -19.566406 5.859375 -19.109375 5.265625 -18.421875 C 4.597656 -17.578125 3.972656 -16.65625 3.390625 -15.65625 C 2.816406 -14.664062 2.546875 -13.941406 2.578125 -13.484375 Z M 2.578125 -13.484375 "/></g></g></g><g fill="#303841" fill-opacity="1"><g transform="translate(36.132504, 222.718814)"><g><path d="M 5.046875 -1.484375 C 6.316406 -1.585938 7.191406 -1.742188 7.671875 -1.953125 C 8.148438 -2.171875 8.46875 -2.5625 8.625 -3.125 C 8.78125 -3.695312 8.859375 -4.707031 8.859375 -6.15625 L 8.859375 -22.71875 C 6.703125 -22.644531 5.238281 -22.523438 4.46875 -22.359375 C 3.695312 -22.191406 3.171875 -21.820312 2.890625 -21.25 C 2.609375 -20.6875 2.351562 -19.582031 2.125 -17.9375 L 0.34375 -17.78125 C 0.644531 -20.1875 0.832031 -22.378906 0.90625 -24.359375 L 1.25 -24.65625 L 4.40625 -24.25 L 16.1875 -24.25 L 19.421875 -24.65625 L 19.765625 -24.359375 C 19.835938 -22.273438 20.023438 -20.132812 20.328125 -17.9375 L 18.546875 -17.78125 C 18.265625 -19.457031 17.984375 -20.585938 17.703125 -21.171875 C 17.429688 -21.753906 16.9375 -22.132812 16.21875 -22.3125 C 15.507812 -22.488281 14.144531 -22.625 12.125 -22.71875 C 11.96875 -21.195312 11.828125 -18.507812 11.703125 -14.65625 C 11.578125 -10.8125 11.515625 -7.34375 11.515625 -4.25 C 11.515625 -3.3125 11.675781 -2.644531 12 -2.25 C 12.332031 -1.863281 12.894531 -1.671875 13.6875 -1.671875 C 14.4375 -1.671875 15.128906 -1.707031 15.765625 -1.78125 L 15.890625 -1.640625 L 15.546875 0.109375 L 14.28125 0.078125 L 9.953125 0 C 8.554688 0 6.820312 0.0507812 4.75 0.15625 Z M 5.046875 -1.484375 "/></g></g></g><g fill="#303841" fill-opacity="1"><g transform="translate(56.87627, 222.718814)"><g><path d="M 2.4375 -1.296875 C 3.601562 -1.523438 4.382812 -1.859375 4.78125 -2.296875 C 5.1875 -2.742188 5.390625 -3.5 5.390625 -4.5625 L 5.4375 -20.515625 C 5.4375 -21.328125 5.335938 -21.875 5.140625 -22.15625 C 4.953125 -22.4375 4.582031 -22.578125 4.03125 -22.578125 L 2.734375 -22.5 L 2.65625 -22.640625 L 2.921875 -24.3125 C 3.253906 -24.3125 3.507812 -24.300781 3.6875 -24.28125 C 5.207031 -24.226562 6.359375 -24.203125 7.140625 -24.203125 C 8.203125 -24.203125 9.554688 -24.316406 11.203125 -24.546875 L 11.0625 -22.84375 C 10.300781 -22.707031 9.757812 -22.550781 9.4375 -22.375 C 9.125 -22.195312 8.910156 -21.898438 8.796875 -21.484375 C 8.679688 -21.066406 8.597656 -20.378906 8.546875 -19.421875 L 8.328125 -13.265625 L 14.703125 -13.21875 C 16.296875 -13.21875 18.171875 -13.347656 20.328125 -13.609375 L 20.375 -20.515625 C 20.375 -21.328125 20.273438 -21.875 20.078125 -22.15625 C 19.890625 -22.4375 19.519531 -22.578125 18.96875 -22.578125 C 18.613281 -22.578125 18.179688 -22.550781 17.671875 -22.5 L 17.59375 -22.640625 L 17.859375 -24.3125 C 18.140625 -24.289062 18.644531 -24.265625 19.375 -24.234375 C 20.113281 -24.210938 20.847656 -24.203125 21.578125 -24.203125 C 22.796875 -24.203125 24.316406 -24.316406 26.140625 -24.546875 L 25.984375 -22.84375 C 25.054688 -22.707031 24.425781 -22.492188 24.09375 -22.203125 C 23.757812 -21.921875 23.582031 -21.410156 23.5625 -20.671875 C 23.40625 -17.804688 23.273438 -14.734375 23.171875 -11.453125 C 23.078125 -8.171875 23.03125 -5.695312 23.03125 -4.03125 C 23.03125 -3.09375 23.144531 -2.460938 23.375 -2.140625 C 23.601562 -1.828125 24.046875 -1.671875 24.703125 -1.671875 C 25.003906 -1.671875 25.570312 -1.707031 26.40625 -1.78125 L 26.484375 -1.640625 L 26.140625 0.109375 C 25.785156 0.109375 25.507812 0.0976562 25.3125 0.078125 C 23.632812 0.0234375 22.351562 0 21.46875 0 L 17.09375 0.078125 L 17.4375 -1.640625 C 18.28125 -1.660156 18.894531 -1.769531 19.28125 -1.96875 C 19.675781 -2.175781 19.945312 -2.554688 20.09375 -3.109375 C 20.25 -3.671875 20.328125 -4.535156 20.328125 -5.703125 L 20.328125 -11.4375 L 14.546875 -11.46875 C 13.921875 -11.445312 13.035156 -11.40625 11.890625 -11.34375 C 10.753906 -11.28125 9.539062 -11.1875 8.25 -11.0625 L 8.09375 -4.25 C 8.09375 -3.21875 8.207031 -2.53125 8.4375 -2.1875 C 8.664062 -1.84375 9.109375 -1.671875 9.765625 -1.671875 C 10.066406 -1.671875 10.632812 -1.707031 11.46875 -1.78125 L 11.546875 -1.640625 L 11.203125 0.109375 C 10.984375 0.0859375 10.554688 0.0625 9.921875 0.03125 C 9.285156 0.0078125 8.640625 0 7.984375 0 C 6.816406 0 5.566406 0.046875 4.234375 0.140625 C 2.898438 0.242188 2.222656 0.347656 2.203125 0.453125 Z M 2.4375 -1.296875 "/></g></g></g><g fill="#303841" fill-opacity="1"><g transform="translate(85.52242, 222.718814)"><g><path d="M 20.21875 -6.34375 C 19.78125 -4.289062 19.4375 -2.164062 19.1875 0.03125 L 19 0.265625 C 13.675781 0.0859375 9.835938 0 7.484375 0 C 5.609375 0 3.847656 0.125 2.203125 0.375 L 2.4375 -1.375 C 3.570312 -1.519531 4.347656 -1.8125 4.765625 -2.25 C 5.179688 -2.695312 5.390625 -3.46875 5.390625 -4.5625 L 5.4375 -20.515625 C 5.4375 -21.328125 5.335938 -21.875 5.140625 -22.15625 C 4.953125 -22.4375 4.582031 -22.578125 4.03125 -22.578125 L 2.734375 -22.5 L 2.65625 -22.640625 L 2.921875 -24.3125 C 5.503906 -24.238281 7.265625 -24.203125 8.203125 -24.203125 C 11.222656 -24.203125 13.566406 -24.234375 15.234375 -24.296875 C 16.910156 -24.359375 18.367188 -24.476562 19.609375 -24.65625 L 19.71875 -24.4375 C 19.257812 -22.4375 18.96875 -20.332031 18.84375 -18.125 L 17.03125 -17.96875 L 17.09375 -19.609375 C 17.09375 -20.492188 16.976562 -21.109375 16.75 -21.453125 C 16.53125 -21.796875 16.039062 -22.023438 15.28125 -22.140625 C 14.519531 -22.253906 13.1875 -22.3125 11.28125 -22.3125 C 10.394531 -22.3125 9.785156 -22.285156 9.453125 -22.234375 C 9.128906 -22.179688 8.914062 -22.054688 8.8125 -21.859375 C 8.707031 -21.671875 8.644531 -21.328125 8.625 -20.828125 L 8.328125 -13.453125 L 12.234375 -13.40625 C 13.222656 -13.40625 14.769531 -13.546875 16.875 -13.828125 L 17.03125 -13.640625 L 16.484375 -11.40625 C 13.679688 -11.476562 11.910156 -11.515625 11.171875 -11.515625 C 10.335938 -11.515625 9.363281 -11.425781 8.25 -11.25 L 8.09375 -3.984375 C 8.09375 -3.253906 8.15625 -2.742188 8.28125 -2.453125 C 8.40625 -2.160156 8.664062 -1.960938 9.0625 -1.859375 C 9.457031 -1.753906 10.132812 -1.703125 11.09375 -1.703125 C 13.21875 -1.703125 14.726562 -1.800781 15.625 -2 C 16.53125 -2.207031 17.171875 -2.613281 17.546875 -3.21875 C 17.929688 -3.832031 18.226562 -4.875 18.4375 -6.34375 L 20.109375 -6.53125 Z M 20.21875 -6.34375 "/></g></g></g><g fill="#303841" fill-opacity="1"><g transform="translate(107.97583, 222.718814)"><g/></g></g><g fill="#303841" fill-opacity="1"><g transform="translate(115.498294, 222.718814)"><g><path d="M 19.453125 0.609375 C 18.816406 0.609375 18.140625 0.285156 17.421875 -0.359375 C 16.703125 -1.003906 16.035156 -1.882812 15.421875 -3 L 11.359375 -10.375 L 8.203125 -10.375 L 8.09375 -4.71875 C 8.09375 -3.75 8.15625 -3.054688 8.28125 -2.640625 C 8.40625 -2.222656 8.644531 -1.941406 9 -1.796875 C 9.351562 -1.660156 9.960938 -1.59375 10.828125 -1.59375 L 10.90625 -1.4375 L 10.5625 0.15625 C 10.257812 0.125 9.648438 0.09375 8.734375 0.0625 C 7.828125 0.0390625 6.878906 0.03125 5.890625 0.03125 C 5.003906 0.03125 4.21875 0.0390625 3.53125 0.0625 C 2.851562 0.09375 2.398438 0.125 2.171875 0.15625 L 2.515625 -1.5625 C 3.316406 -1.65625 3.921875 -1.789062 4.328125 -1.96875 C 4.734375 -2.144531 5.007812 -2.429688 5.15625 -2.828125 C 5.3125 -3.222656 5.390625 -3.800781 5.390625 -4.5625 L 5.4375 -20.515625 C 5.4375 -21.328125 5.335938 -21.875 5.140625 -22.15625 C 4.953125 -22.4375 4.582031 -22.578125 4.03125 -22.578125 C 3.769531 -22.578125 3.515625 -22.5625 3.265625 -22.53125 C 3.015625 -22.507812 2.835938 -22.5 2.734375 -22.5 L 2.65625 -22.640625 L 2.921875 -24.3125 C 3.222656 -24.289062 3.789062 -24.265625 4.625 -24.234375 C 5.46875 -24.210938 6.304688 -24.203125 7.140625 -24.203125 C 8.003906 -24.203125 8.910156 -24.21875 9.859375 -24.25 C 10.804688 -24.289062 11.457031 -24.328125 11.8125 -24.359375 C 14.175781 -24.359375 16.039062 -23.828125 17.40625 -22.765625 C 18.769531 -21.703125 19.453125 -20.242188 19.453125 -18.390625 C 19.453125 -16.867188 18.960938 -15.472656 17.984375 -14.203125 C 17.015625 -12.941406 15.644531 -11.90625 13.875 -11.09375 L 18.046875 -4.484375 C 18.785156 -3.265625 19.5 -2.421875 20.1875 -1.953125 C 20.882812 -1.484375 21.742188 -1.25 22.765625 -1.25 L 22.921875 -1.109375 L 22.6875 0.1875 Z M 12.203125 -12.125 C 12.203125 -12.050781 12.582031 -12.210938 13.34375 -12.609375 C 14.101562 -13.015625 14.785156 -13.632812 15.390625 -14.46875 C 15.992188 -15.3125 16.296875 -16.390625 16.296875 -17.703125 C 16.296875 -21.046875 13.976562 -22.71875 9.34375 -22.71875 C 9.09375 -22.71875 8.921875 -22.660156 8.828125 -22.546875 C 8.742188 -22.429688 8.6875 -22.195312 8.65625 -21.84375 C 8.4375 -17.96875 8.3125 -14.851562 8.28125 -12.5 Z M 12.203125 -12.125 "/></g></g></g><g fill="#303841" fill-opacity="1"><g transform="translate(138.711545, 222.718814)"><g><path d="M 20.21875 -6.34375 C 19.78125 -4.289062 19.4375 -2.164062 19.1875 0.03125 L 19 0.265625 C 13.675781 0.0859375 9.835938 0 7.484375 0 C 5.609375 0 3.847656 0.125 2.203125 0.375 L 2.4375 -1.375 C 3.570312 -1.519531 4.347656 -1.8125 4.765625 -2.25 C 5.179688 -2.695312 5.390625 -3.46875 5.390625 -4.5625 L 5.4375 -20.515625 C 5.4375 -21.328125 5.335938 -21.875 5.140625 -22.15625 C 4.953125 -22.4375 4.582031 -22.578125 4.03125 -22.578125 L 2.734375 -22.5 L 2.65625 -22.640625 L 2.921875 -24.3125 C 5.503906 -24.238281 7.265625 -24.203125 8.203125 -24.203125 C 11.222656 -24.203125 13.566406 -24.234375 15.234375 -24.296875 C 16.910156 -24.359375 18.367188 -24.476562 19.609375 -24.65625 L 19.71875 -24.4375 C 19.257812 -22.4375 18.96875 -20.332031 18.84375 -18.125 L 17.03125 -17.96875 L 17.09375 -19.609375 C 17.09375 -20.492188 16.976562 -21.109375 16.75 -21.453125 C 16.53125 -21.796875 16.039062 -22.023438 15.28125 -22.140625 C 14.519531 -22.253906 13.1875 -22.3125 11.28125 -22.3125 C 10.394531 -22.3125 9.785156 -22.285156 9.453125 -22.234375 C 9.128906 -22.179688 8.914062 -22.054688 8.8125 -21.859375 C 8.707031 -21.671875 8.644531 -21.328125 8.625 -20.828125 L 8.328125 -13.453125 L 12.234375 -13.40625 C 13.222656 -13.40625 14.769531 -13.546875 16.875 -13.828125 L 17.03125 -13.640625 L 16.484375 -11.40625 C 13.679688 -11.476562 11.910156 -11.515625 11.171875 -11.515625 C 10.335938 -11.515625 9.363281 -11.425781 8.25 -11.25 L 8.09375 -3.984375 C 8.09375 -3.253906 8.15625 -2.742188 8.28125 -2.453125 C 8.40625 -2.160156 8.664062 -1.960938 9.0625 -1.859375 C 9.457031 -1.753906 10.132812 -1.703125 11.09375 -1.703125 C 13.21875 -1.703125 14.726562 -1.800781 15.625 -2 C 16.53125 -2.207031 17.171875 -2.613281 17.546875 -3.21875 C 17.929688 -3.832031 18.226562 -4.875 18.4375 -6.34375 L 20.109375 -6.53125 Z M 20.21875 -6.34375 "/></g></g></g><g fill="#303841" fill-opacity="1"><g transform="translate(161.164955, 222.718814)"><g><path d="M 12.5 0.109375 L 12.65625 -1.375 C 13.945312 -1.46875 14.832031 -1.613281 15.3125 -1.8125 C 15.789062 -2.019531 16.03125 -2.351562 16.03125 -2.8125 C 16.03125 -3.320312 15.914062 -3.929688 15.6875 -4.640625 L 14.4375 -8.78125 C 13.832031 -8.800781 12.515625 -8.8125 10.484375 -8.8125 C 9.265625 -8.8125 7.882812 -8.710938 6.34375 -8.515625 L 4.9375 -4.5625 C 4.707031 -3.875 4.59375 -3.378906 4.59375 -3.078125 C 4.59375 -2.515625 4.769531 -2.113281 5.125 -1.875 C 5.476562 -1.632812 6.0625 -1.515625 6.875 -1.515625 L 9.046875 -1.515625 L 9.125 -1.375 L 8.890625 0.265625 C 8.585938 0.242188 7.890625 0.191406 6.796875 0.109375 C 5.710938 0.0351562 4.648438 0 3.609375 0 C 2.671875 0 1.800781 0.0078125 1 0.03125 C 0.207031 0.0625 -0.3125 0.0859375 -0.5625 0.109375 L -0.265625 -1.671875 C 0.441406 -1.742188 1.007812 -1.988281 1.4375 -2.40625 C 1.875 -2.832031 2.296875 -3.5625 2.703125 -4.59375 L 10.109375 -24.015625 L 12.5 -24.65625 L 12.8125 -24.65625 C 12.957031 -24.050781 13.335938 -22.644531 13.953125 -20.4375 C 14.578125 -18.238281 15.335938 -15.628906 16.234375 -12.609375 C 17.140625 -9.597656 18.007812 -6.828125 18.84375 -4.296875 C 19.144531 -3.359375 19.550781 -2.695312 20.0625 -2.3125 C 20.570312 -1.9375 21.382812 -1.695312 22.5 -1.59375 L 22.578125 -1.4375 L 22.3125 0.109375 C 22 0.109375 21.441406 0.0859375 20.640625 0.046875 C 19.847656 0.015625 19.0625 0 18.28125 0 C 17.0625 0 15.890625 0.046875 14.765625 0.140625 C 13.640625 0.242188 12.921875 0.320312 12.609375 0.375 Z M 10.375 -10.375 C 11.28125 -10.375 12.457031 -10.4375 13.90625 -10.5625 L 10.90625 -20.515625 L 10.640625 -20.515625 L 7.03125 -10.375 Z M 10.375 -10.375 "/></g></g></g><g fill="#303841" fill-opacity="1"><g transform="translate(183.352427, 222.718814)"><g><path d="M 2.8125 -1.375 C 3.800781 -1.519531 4.476562 -1.8125 4.84375 -2.25 C 5.207031 -2.695312 5.390625 -3.46875 5.390625 -4.5625 L 5.4375 -20.515625 C 5.4375 -21.328125 5.335938 -21.875 5.140625 -22.15625 C 4.953125 -22.4375 4.582031 -22.578125 4.03125 -22.578125 C 3.769531 -22.578125 3.515625 -22.5625 3.265625 -22.53125 C 3.015625 -22.507812 2.835938 -22.5 2.734375 -22.5 L 2.65625 -22.640625 L 2.921875 -24.3125 C 3.222656 -24.289062 3.789062 -24.265625 4.625 -24.234375 C 5.46875 -24.210938 6.320312 -24.203125 7.1875 -24.203125 C 7.863281 -24.203125 8.640625 -24.242188 9.515625 -24.328125 C 10.390625 -24.421875 10.96875 -24.492188 11.25 -24.546875 L 11.09375 -22.84375 C 10.257812 -22.738281 9.679688 -22.570312 9.359375 -22.34375 C 9.046875 -22.113281 8.859375 -21.847656 8.796875 -21.546875 C 8.734375 -21.242188 8.664062 -20.492188 8.59375 -19.296875 C 8.4375 -17.148438 8.316406 -14.695312 8.234375 -11.9375 C 8.160156 -9.175781 8.125 -6.742188 8.125 -4.640625 C 8.125 -3.722656 8.203125 -3.066406 8.359375 -2.671875 C 8.515625 -2.285156 8.800781 -2.023438 9.21875 -1.890625 C 9.632812 -1.765625 10.347656 -1.703125 11.359375 -1.703125 C 12.910156 -1.703125 14.046875 -1.828125 14.765625 -2.078125 C 15.484375 -2.335938 16.023438 -2.832031 16.390625 -3.5625 C 16.765625 -4.300781 17.101562 -5.484375 17.40625 -7.109375 L 19.078125 -7.296875 L 19.1875 -7.109375 C 19.113281 -6.703125 18.957031 -5.785156 18.71875 -4.359375 C 18.476562 -2.941406 18.269531 -1.453125 18.09375 0.109375 L 17.890625 0.34375 C 17.160156 0.289062 15.648438 0.21875 13.359375 0.125 C 11.066406 0.0390625 9.171875 0 7.671875 0 C 6.484375 0 5.398438 0.046875 4.421875 0.140625 C 3.453125 0.242188 2.835938 0.320312 2.578125 0.375 Z M 2.8125 -1.375 "/></g></g></g><g fill="#303841" fill-opacity="1"><g transform="translate(202.614492, 222.718814)"><g/></g></g><g fill="#303841" fill-opacity="1"><g transform="translate(210.136956, 222.718814)"><g><path d="M 20.21875 -6.34375 C 19.78125 -4.289062 19.4375 -2.164062 19.1875 0.03125 L 19 0.265625 C 13.675781 0.0859375 9.835938 0 7.484375 0 C 5.609375 0 3.847656 0.125 2.203125 0.375 L 2.4375 -1.375 C 3.570312 -1.519531 4.347656 -1.8125 4.765625 -2.25 C 5.179688 -2.695312 5.390625 -3.46875 5.390625 -4.5625 L 5.4375 -20.515625 C 5.4375 -21.328125 5.335938 -21.875 5.140625 -22.15625 C 4.953125 -22.4375 4.582031 -22.578125 4.03125 -22.578125 L 2.734375 -22.5 L 2.65625 -22.640625 L 2.921875 -24.3125 C 5.503906 -24.238281 7.265625 -24.203125 8.203125 -24.203125 C 11.222656 -24.203125 13.566406 -24.234375 15.234375 -24.296875 C 16.910156 -24.359375 18.367188 -24.476562 19.609375 -24.65625 L 19.71875 -24.4375 C 19.257812 -22.4375 18.96875 -20.332031 18.84375 -18.125 L 17.03125 -17.96875 L 17.09375 -19.609375 C 17.09375 -20.492188 16.976562 -21.109375 16.75 -21.453125 C 16.53125 -21.796875 16.039062 -22.023438 15.28125 -22.140625 C 14.519531 -22.253906 13.1875 -22.3125 11.28125 -22.3125 C 10.394531 -22.3125 9.785156 -22.285156 9.453125 -22.234375 C 9.128906 -22.179688 8.914062 -22.054688 8.8125 -21.859375 C 8.707031 -21.671875 8.644531 -21.328125 8.625 -20.828125 L 8.328125 -13.453125 L 12.234375 -13.40625 C 13.222656 -13.40625 14.769531 -13.546875 16.875 -13.828125 L 17.03125 -13.640625 L 16.484375 -11.40625 C 13.679688 -11.476562 11.910156 -11.515625 11.171875 -11.515625 C 10.335938 -11.515625 9.363281 -11.425781 8.25 -11.25 L 8.09375 -3.984375 C 8.09375 -3.253906 8.15625 -2.742188 8.28125 -2.453125 C 8.40625 -2.160156 8.664062 -1.960938 9.0625 -1.859375 C 9.457031 -1.753906 10.132812 -1.703125 11.09375 -1.703125 C 13.21875 -1.703125 14.726562 -1.800781 15.625 -2 C 16.53125 -2.207031 17.171875 -2.613281 17.546875 -3.21875 C 17.929688 -3.832031 18.226562 -4.875 18.4375 -6.34375 L 20.109375 -6.53125 Z M 20.21875 -6.34375 "/></g></g></g><g fill="#303841" fill-opacity="1"><g transform="translate(232.590377, 222.718814)"><g><path d="M 8.328125 0.453125 C 7.253906 0.453125 6.273438 0.359375 5.390625 0.171875 C 4.503906 -0.015625 3.773438 -0.222656 3.203125 -0.453125 C 2.640625 -0.679688 2.359375 -0.8125 2.359375 -0.84375 L 2.171875 -1.21875 C 2.191406 -1.363281 2.238281 -1.738281 2.3125 -2.34375 C 2.394531 -2.957031 2.46875 -3.75 2.53125 -4.71875 C 2.59375 -5.695312 2.625 -6.734375 2.625 -7.828125 L 4.328125 -8.015625 C 4.328125 -6.117188 4.453125 -4.710938 4.703125 -3.796875 C 4.960938 -2.890625 5.429688 -2.265625 6.109375 -1.921875 C 6.796875 -1.578125 7.847656 -1.40625 9.265625 -1.40625 C 10.867188 -1.40625 12.148438 -1.773438 13.109375 -2.515625 C 14.066406 -3.265625 14.546875 -4.289062 14.546875 -5.59375 C 14.546875 -6.34375 14.285156 -7.019531 13.765625 -7.625 C 13.253906 -8.238281 12.644531 -8.757812 11.9375 -9.1875 C 11.226562 -9.625 10.175781 -10.207031 8.78125 -10.9375 C 7.457031 -11.625 6.378906 -12.253906 5.546875 -12.828125 C 4.710938 -13.398438 4.007812 -14.078125 3.4375 -14.859375 C 2.863281 -15.640625 2.578125 -16.550781 2.578125 -17.59375 C 2.578125 -18.90625 2.960938 -20.097656 3.734375 -21.171875 C 4.515625 -22.253906 5.566406 -23.101562 6.890625 -23.71875 C 8.222656 -24.34375 9.703125 -24.65625 11.328125 -24.65625 C 12.335938 -24.65625 13.269531 -24.585938 14.125 -24.453125 C 14.988281 -24.316406 15.675781 -24.171875 16.1875 -24.015625 C 16.695312 -23.859375 17.015625 -23.757812 17.140625 -23.71875 L 17.25 -23.484375 C 17.226562 -23.328125 17.164062 -22.96875 17.0625 -22.40625 C 16.957031 -21.851562 16.84375 -21.082031 16.71875 -20.09375 C 16.59375 -19.113281 16.492188 -18.101562 16.421875 -17.0625 L 14.9375 -16.90625 L 14.703125 -17.09375 C 14.734375 -17.195312 14.757812 -17.429688 14.78125 -17.796875 C 14.800781 -18.171875 14.8125 -18.597656 14.8125 -19.078125 C 14.8125 -20.421875 14.484375 -21.34375 13.828125 -21.84375 C 13.171875 -22.351562 11.992188 -22.609375 10.296875 -22.609375 C 8.898438 -22.609375 7.753906 -22.257812 6.859375 -21.5625 C 5.960938 -20.863281 5.515625 -20 5.515625 -18.96875 C 5.515625 -17.945312 5.945312 -17.0625 6.8125 -16.3125 C 7.6875 -15.570312 8.972656 -14.757812 10.671875 -13.875 C 12.316406 -13.03125 13.570312 -12.335938 14.4375 -11.796875 C 15.300781 -11.253906 16.0625 -10.578125 16.71875 -9.765625 C 17.375 -8.953125 17.703125 -8.015625 17.703125 -6.953125 C 17.703125 -5.535156 17.300781 -4.257812 16.5 -3.125 C 15.707031 -2 14.601562 -1.117188 13.1875 -0.484375 C 11.769531 0.140625 10.148438 0.453125 8.328125 0.453125 Z M 8.328125 0.453125 "/></g></g></g><g fill="#303841" fill-opacity="1"><g transform="translate(252.726255, 222.718814)"><g><path d="M 5.046875 -1.484375 C 6.316406 -1.585938 7.191406 -1.742188 7.671875 -1.953125 C 8.148438 -2.171875 8.46875 -2.5625 8.625 -3.125 C 8.78125 -3.695312 8.859375 -4.707031 8.859375 -6.15625 L 8.859375 -22.71875 C 6.703125 -22.644531 5.238281 -22.523438 4.46875 -22.359375 C 3.695312 -22.191406 3.171875 -21.820312 2.890625 -21.25 C 2.609375 -20.6875 2.351562 -19.582031 2.125 -17.9375 L 0.34375 -17.78125 C 0.644531 -20.1875 0.832031 -22.378906 0.90625 -24.359375 L 1.25 -24.65625 L 4.40625 -24.25 L 16.1875 -24.25 L 19.421875 -24.65625 L 19.765625 -24.359375 C 19.835938 -22.273438 20.023438 -20.132812 20.328125 -17.9375 L 18.546875 -17.78125 C 18.265625 -19.457031 17.984375 -20.585938 17.703125 -21.171875 C 17.429688 -21.753906 16.9375 -22.132812 16.21875 -22.3125 C 15.507812 -22.488281 14.144531 -22.625 12.125 -22.71875 C 11.96875 -21.195312 11.828125 -18.507812 11.703125 -14.65625 C 11.578125 -10.8125 11.515625 -7.34375 11.515625 -4.25 C 11.515625 -3.3125 11.675781 -2.644531 12 -2.25 C 12.332031 -1.863281 12.894531 -1.671875 13.6875 -1.671875 C 14.4375 -1.671875 15.128906 -1.707031 15.765625 -1.78125 L 15.890625 -1.640625 L 15.546875 0.109375 L 14.28125 0.078125 L 9.953125 0 C 8.554688 0 6.820312 0.0507812 4.75 0.15625 Z M 5.046875 -1.484375 "/></g></g></g><g fill="#303841" fill-opacity="1"><g transform="translate(273.470021, 222.718814)"><g><path d="M 12.5 0.109375 L 12.65625 -1.375 C 13.945312 -1.46875 14.832031 -1.613281 15.3125 -1.8125 C 15.789062 -2.019531 16.03125 -2.351562 16.03125 -2.8125 C 16.03125 -3.320312 15.914062 -3.929688 15.6875 -4.640625 L 14.4375 -8.78125 C 13.832031 -8.800781 12.515625 -8.8125 10.484375 -8.8125 C 9.265625 -8.8125 7.882812 -8.710938 6.34375 -8.515625 L 4.9375 -4.5625 C 4.707031 -3.875 4.59375 -3.378906 4.59375 -3.078125 C 4.59375 -2.515625 4.769531 -2.113281 5.125 -1.875 C 5.476562 -1.632812 6.0625 -1.515625 6.875 -1.515625 L 9.046875 -1.515625 L 9.125 -1.375 L 8.890625 0.265625 C 8.585938 0.242188 7.890625 0.191406 6.796875 0.109375 C 5.710938 0.0351562 4.648438 0 3.609375 0 C 2.671875 0 1.800781 0.0078125 1 0.03125 C 0.207031 0.0625 -0.3125 0.0859375 -0.5625 0.109375 L -0.265625 -1.671875 C 0.441406 -1.742188 1.007812 -1.988281 1.4375 -2.40625 C 1.875 -2.832031 2.296875 -3.5625 2.703125 -4.59375 L 10.109375 -24.015625 L 12.5 -24.65625 L 12.8125 -24.65625 C 12.957031 -24.050781 13.335938 -22.644531 13.953125 -20.4375 C 14.578125 -18.238281 15.335938 -15.628906 16.234375 -12.609375 C 17.140625 -9.597656 18.007812 -6.828125 18.84375 -4.296875 C 19.144531 -3.359375 19.550781 -2.695312 20.0625 -2.3125 C 20.570312 -1.9375 21.382812 -1.695312 22.5 -1.59375 L 22.578125 -1.4375 L 22.3125 0.109375 C 22 0.109375 21.441406 0.0859375 20.640625 0.046875 C 19.847656 0.015625 19.0625 0 18.28125 0 C 17.0625 0 15.890625 0.046875 14.765625 0.140625 C 13.640625 0.242188 12.921875 0.320312 12.609375 0.375 Z M 10.375 -10.375 C 11.28125 -10.375 12.457031 -10.4375 13.90625 -10.5625 L 10.90625 -20.515625 L 10.640625 -20.515625 L 7.03125 -10.375 Z M 10.375 -10.375 "/></g></g></g><g fill="#303841" fill-opacity="1"><g transform="translate(295.657481, 222.718814)"><g><path d="M 5.046875 -1.484375 C 6.316406 -1.585938 7.191406 -1.742188 7.671875 -1.953125 C 8.148438 -2.171875 8.46875 -2.5625 8.625 -3.125 C 8.78125 -3.695312 8.859375 -4.707031 8.859375 -6.15625 L 8.859375 -22.71875 C 6.703125 -22.644531 5.238281 -22.523438 4.46875 -22.359375 C 3.695312 -22.191406 3.171875 -21.820312 2.890625 -21.25 C 2.609375 -20.6875 2.351562 -19.582031 2.125 -17.9375 L 0.34375 -17.78125 C 0.644531 -20.1875 0.832031 -22.378906 0.90625 -24.359375 L 1.25 -24.65625 L 4.40625 -24.25 L 16.1875 -24.25 L 19.421875 -24.65625 L 19.765625 -24.359375 C 19.835938 -22.273438 20.023438 -20.132812 20.328125 -17.9375 L 18.546875 -17.78125 C 18.265625 -19.457031 17.984375 -20.585938 17.703125 -21.171875 C 17.429688 -21.753906 16.9375 -22.132812 16.21875 -22.3125 C 15.507812 -22.488281 14.144531 -22.625 12.125 -22.71875 C 11.96875 -21.195312 11.828125 -18.507812 11.703125 -14.65625 C 11.578125 -10.8125 11.515625 -7.34375 11.515625 -4.25 C 11.515625 -3.3125 11.675781 -2.644531 12 -2.25 C 12.332031 -1.863281 12.894531 -1.671875 13.6875 -1.671875 C 14.4375 -1.671875 15.128906 -1.707031 15.765625 -1.78125 L 15.890625 -1.640625 L 15.546875 0.109375 L 14.28125 0.078125 L 9.953125 0 C 8.554688 0 6.820312 0.0507812 4.75 0.15625 Z M 5.046875 -1.484375 "/></g></g></g><g fill="#303841" fill-opacity="1"><g transform="translate(316.401246, 222.718814)"><g><path d="M 20.21875 -6.34375 C 19.78125 -4.289062 19.4375 -2.164062 19.1875 0.03125 L 19 0.265625 C 13.675781 0.0859375 9.835938 0 7.484375 0 C 5.609375 0 3.847656 0.125 2.203125 0.375 L 2.4375 -1.375 C 3.570312 -1.519531 4.347656 -1.8125 4.765625 -2.25 C 5.179688 -2.695312 5.390625 -3.46875 5.390625 -4.5625 L 5.4375 -20.515625 C 5.4375 -21.328125 5.335938 -21.875 5.140625 -22.15625 C 4.953125 -22.4375 4.582031 -22.578125 4.03125 -22.578125 L 2.734375 -22.5 L 2.65625 -22.640625 L 2.921875 -24.3125 C 5.503906 -24.238281 7.265625 -24.203125 8.203125 -24.203125 C 11.222656 -24.203125 13.566406 -24.234375 15.234375 -24.296875 C 16.910156 -24.359375 18.367188 -24.476562 19.609375 -24.65625 L 19.71875 -24.4375 C 19.257812 -22.4375 18.96875 -20.332031 18.84375 -18.125 L 17.03125 -17.96875 L 17.09375 -19.609375 C 17.09375 -20.492188 16.976562 -21.109375 16.75 -21.453125 C 16.53125 -21.796875 16.039062 -22.023438 15.28125 -22.140625 C 14.519531 -22.253906 13.1875 -22.3125 11.28125 -22.3125 C 10.394531 -22.3125 9.785156 -22.285156 9.453125 -22.234375 C 9.128906 -22.179688 8.914062 -22.054688 8.8125 -21.859375 C 8.707031 -21.671875 8.644531 -21.328125 8.625 -20.828125 L 8.328125 -13.453125 L 12.234375 -13.40625 C 13.222656 -13.40625 14.769531 -13.546875 16.875 -13.828125 L 17.03125 -13.640625 L 16.484375 -11.40625 C 13.679688 -11.476562 11.910156 -11.515625 11.171875 -11.515625 C 10.335938 -11.515625 9.363281 -11.425781 8.25 -11.25 L 8.09375 -3.984375 C 8.09375 -3.253906 8.15625 -2.742188 8.28125 -2.453125 C 8.40625 -2.160156 8.664062 -1.960938 9.0625 -1.859375 C 9.457031 -1.753906 10.132812 -1.703125 11.09375 -1.703125 C 13.21875 -1.703125 14.726562 -1.800781 15.625 -2 C 16.53125 -2.207031 17.171875 -2.613281 17.546875 -3.21875 C 17.929688 -3.832031 18.226562 -4.875 18.4375 -6.34375 L 20.109375 -6.53125 Z M 20.21875 -6.34375 "/></g></g></g></svg>