<?xml version="1.0" encoding="UTF-8" standalone="no"?>
<!DOCTYPE svg PUBLIC "-//W3C//DTD SVG 1.1//EN" "http://www.w3.org/Graphics/SVG/1.1/DTD/svg11.dtd">
<!-- Created with Vectornator (http://vectornator.io/) -->
<svg height="100%" stroke-miterlimit="10" style="fill-rule:nonzero;clip-rule:evenodd;stroke-linecap:round;stroke-linejoin:round;" version="1.1" viewBox="0 0 2000 1000" width="100%" xml:space="preserve" xmlns="http://www.w3.org/2000/svg" xmlns:vectornator="http://vectornator.io" xmlns:xlink="http://www.w3.org/1999/xlink">
<defs/>
<g id="Layer-1" vectornator:layerName="Layer 1">
<g opacity="1">
<path d="M741.301 582.221C725.711 619.627 717.49 639.339 716.662 641.444C715.631 643.706 714.556 646.058 713.436 648.522C713.19 649.172 713.011 649.866 712.899 650.583C710.793 655.287 708.777 660.103 706.806 665.008C694.509 694.328 682.884 723.738 671.953 753.26C671.953 753.619 671.908 753.932 671.774 754.246C671.662 754.963 671.371 755.702 670.878 756.486C669.399 758.995 667.339 760.115 664.696 759.891C664.046 760.07 663.329 760.115 662.545 760.07C661.179 759.756 660.104 759.219 659.32 758.457C658.558 757.673 658.334 756.486 658.693 754.873C660.193 749.139 662.053 743.427 664.248 737.76C671.953 718.228 679.613 698.651 687.184 679.075C691.731 667.293 696.323 655.556 700.982 643.863C702.998 639.137 709.247 624.242 719.708 599.155C730.146 574.023 736.283 559.239 738.075 554.804C751.873 521.475 766.5 488.414 781.977 455.621C791.833 434.185 801.554 412.615 811.186 390.933C812.261 388.379 813.65 386.005 815.397 383.855C816.875 382.197 818.712 381.144 820.862 380.719C821.445 380.248 822.117 380.136 822.833 380.36C824.558 380.002 825.902 380.36 826.865 381.435C827.873 382.511 828.164 383.832 827.761 385.378C827.335 386.587 826.91 387.797 826.507 389.051C823.864 396.577 820.907 404.081 817.637 411.54C806.527 436.582 795.282 461.602 783.948 486.622C778.035 499.411 772.256 512.201 766.656 524.969C763.789 531.196 760.967 537.423 758.234 543.694C757.271 546.024 756.286 548.421 755.278 550.862C755.031 551.221 754.874 551.579 754.83 551.937C754.337 552.789 753.978 553.64 753.754 554.536C753.575 555.387 753.665 556.148 754.023 556.865C754.606 557.537 755.367 557.896 756.263 557.94C757.092 557.761 757.921 557.56 758.772 557.313C758.951 557.089 759.242 556.91 759.668 556.776C768.851 553.438 778.057 550.123 787.264 546.83C812.933 537.468 838.468 527.724 863.868 517.622C889.247 507.542 914.356 496.477 939.219 484.471C954.854 476.945 970.219 469.106 985.272 460.907C1000.37 452.732 1015.15 443.75 1029.62 433.939C1041.67 425.83 1052.94 416.445 1063.4 405.806C1068.53 400.609 1072.94 394.785 1076.66 388.334C1084.19 375.432 1083.96 363.875 1076.03 353.661C1071.19 347.523 1065.28 342.595 1058.29 338.877C1047.65 332.919 1036.25 328.394 1024.07 325.348C994.321 318.36 963.634 314.664 932.051 314.238C913.46 314.126 894.734 314.574 875.874 315.582C865.593 316.187 855.312 317.06 845.053 318.18C829.575 319.928 814.142 322.302 798.732 325.348C783.321 328.394 768 332.852 752.769 338.698C743.205 342.461 733.909 347.12 724.904 352.675C717.849 356.572 711.734 361.523 706.537 367.548C705.104 369.295 703.401 370.639 701.43 371.58C700.4 372.117 699.481 372.364 698.653 372.297C696.906 372.543 695.472 372.117 694.262 371.042C692.605 369.43 692.471 367.548 693.904 365.398C696.099 362.06 698.675 359.104 701.609 356.528C704.588 353.907 707.724 351.555 711.017 349.45C726.069 339.482 741.883 331.799 758.503 326.423C778.685 319.928 799.09 315.448 819.697 312.984C839.588 310.184 859.568 308.056 879.637 306.622L880.085 306.533C883.893 306.309 887.723 306.063 891.554 305.816C910.839 304.92 929.946 304.719 948.895 305.189C967.89 305.615 986.727 307.317 1005.43 310.296C1015.04 311.864 1024.54 313.835 1033.92 316.209C1043.35 318.539 1052.47 321.675 1061.25 325.617C1070.86 329.626 1079.37 335.092 1086.78 342.013C1103.14 357.782 1103.54 376.463 1087.95 398.011C1080.71 407.463 1072.47 415.885 1063.22 423.277C1051.51 432.909 1039.41 441.644 1026.93 449.529C1014.5 457.413 1001.76 464.738 988.676 471.48C961.73 486.062 934.381 499.322 906.606 511.261C878.831 523.155 850.832 534.264 822.654 544.59C800.658 552.833 778.662 560.763 756.622 568.333C753.082 569.409 750.014 571.021 747.393 573.172C744.75 575.322 742.734 578.346 741.301 582.221ZM1138.3 653.808C1146.12 659.767 1101.34 651.501 1004 628.99C937.27 613.176 870.051 598.505 802.316 584.998C783.366 581.415 764.439 578.01 745.512 574.784C737.851 573.306 730.213 571.962 722.575 570.753C719.999 570.282 717.401 569.946 714.78 569.767C714.422 569.767 713.974 569.722 713.436 569.588C711.689 569.722 711.779 567.438 713.705 562.779C715.609 558.12 718.207 556.552 721.5 558.03C725.98 560.068 736.238 562.779 752.321 566.183C768.381 569.543 789.145 573.844 814.59 579.085C862.793 588.537 920.449 600.812 987.601 615.909C1080.24 635.262 1130.46 647.895 1138.3 653.808Z" fill="#dc3c4d" fill-opacity="0.302" fill-rule="evenodd" opacity="1" stroke="none"/>
<path d="M968.646 587.108L968.287 587.108C956.998 587.646 949.45 585.63 945.619 581.016C941.744 576.424 941.498 569.973 944.903 561.663C947.725 555.346 951.488 549.747 956.192 544.909C957.805 543.251 959.44 541.907 961.12 540.877C962.844 539.802 964.838 539.219 967.123 539.085C968.422 538.794 969.922 538.95 971.602 539.533C972.185 539.6 972.767 539.757 973.305 539.981C974.604 539.622 975.858 539.13 977.068 538.458C977.359 538.234 977.785 538.01 978.322 537.83C980.831 536.643 983.519 536.016 986.386 535.949C987.506 535.904 988.715 535.837 989.97 535.77C994.494 536.195 998.033 537.898 1000.54 540.877C1003.1 543.811 1004.22 547.552 1003.86 552.076C1003.61 554.831 1002.89 557.452 1001.71 559.961C993.822 576.446 983.026 585.496 969.362 587.108L968.646 587.108ZM984.235 544.371C978.143 544.55 972.812 546.678 968.287 550.732C963.807 554.742 960.537 559.289 958.521 564.351C956.483 569.368 956.102 573.4 957.357 576.446C958.611 579.493 961.926 580.165 967.302 578.418C973.26 576.155 978.434 572.325 982.802 566.949C987.147 561.529 989.701 556.511 990.418 551.897C991.179 547.238 989.118 544.729 984.235 544.371Z" fill="#dc3c4d" fill-opacity="0.302" fill-rule="evenodd" opacity="1" stroke="none"/>
<path d="M1093.2 546.043C1093.61 546.043 1094.05 546.133 1094.55 546.312C1095.09 546.491 1095.53 546.715 1095.89 546.939C1097.01 547.902 1097.19 549.089 1096.43 550.523C1095.4 551.777 1094.41 552.852 1093.47 553.748C1087.92 559.662 1081.65 564.679 1074.66 568.8C1063.55 575.386 1051.09 579.171 1037.3 580.179C1032.21 580.672 1026.92 580.157 1021.44 578.656C1011.29 575.386 1006.81 568.442 1008 557.87C1009.61 548.149 1014.54 539.816 1022.78 532.872C1031.02 525.951 1040.12 522.569 1050.11 522.748C1052.01 522.927 1053.89 523.241 1055.75 523.644C1057.54 524.316 1058.89 525.301 1059.78 526.601C1060.72 527.855 1060.88 528.93 1060.23 529.826C1058.48 531.976 1056.4 532.604 1053.96 531.708C1050.24 530.408 1046.93 530.184 1044.02 531.08C1041.15 531.976 1038.24 533.768 1035.32 536.456C1032.64 538.92 1029.7 542.37 1026.54 546.849C1023.43 551.329 1021.53 555.787 1020.81 560.199C1020.14 564.567 1022.29 567.904 1027.26 570.234C1032.82 572.384 1038.37 572.653 1043.93 571.04C1057.84 567.277 1070.56 561.095 1082.09 552.494C1083.17 551.912 1084.09 551.217 1084.87 550.433C1086.13 549.358 1087.4 548.462 1088.72 547.745C1090.09 546.984 1091.59 546.401 1093.2 546.043Z" fill="#dc3c4d" fill-opacity="0.302" fill-rule="evenodd" opacity="1" stroke="none"/>
<path d="M1176.91 542.151C1177.56 542.935 1177.76 543.764 1177.53 544.66C1177.29 545.511 1176.77 546.317 1176.01 547.079C1170.93 552.164 1165.19 556.352 1158.81 559.622C1147.88 565.67 1136.25 569.657 1123.95 571.628C1114.32 573.241 1104.98 572.39 1095.91 569.03C1092.55 567.731 1090.22 568.649 1088.83 571.808C1086.93 576.175 1084.89 580.566 1082.74 584.978C1081.8 587.442 1080.66 589.973 1079.34 592.594C1079.29 592.907 1079.16 593.266 1078.98 593.669C1078.51 594.565 1078.06 595.439 1077.63 596.267C1077.16 597.051 1076.29 597.656 1075.04 598.059C1074.45 598.194 1073.83 598.283 1073.15 598.328C1072.44 598.395 1071.81 598.283 1071.27 597.97C1070.8 597.678 1070.35 597.231 1069.93 596.626C1069.52 595.976 1069.28 595.282 1069.21 594.565C1069.64 592.236 1070.29 589.973 1071.18 587.756C1072.97 582.738 1074.77 577.766 1076.56 572.793C1081.17 560.25 1085.97 547.863 1090.98 535.611C1104.83 501.743 1117.97 467.607 1130.41 433.202C1131.35 429.864 1132.76 426.841 1134.62 424.153C1136.05 422.249 1138.13 421.622 1140.89 422.271C1143.76 423.302 1144.74 425.205 1143.85 428.005C1142.34 433.874 1140.66 439.742 1138.83 445.656C1129.73 472.893 1119.61 499.66 1108.45 525.934C1106.17 531.624 1105.45 535.14 1106.3 536.507C1107.2 537.828 1109.01 537.828 1111.77 536.507C1114.5 535.14 1117.71 533.326 1121.36 531.041C1124.04 529.384 1126.67 527.861 1129.24 526.472C1129.78 526.113 1130.27 525.822 1130.76 525.576C1133.86 523.56 1137.33 522.328 1141.16 521.902C1142.64 521.79 1143.76 522.395 1144.47 523.694C1144.94 524.545 1145.01 525.285 1144.65 525.934C1144.34 526.539 1143.96 527.054 1143.49 527.457C1137.86 531.22 1132.15 534.782 1126.37 538.119C1123.62 539.687 1120.73 541.3 1117.68 542.958C1114.75 544.57 1111.9 546.273 1109.17 548.064C1107.2 549.319 1105.41 550.752 1103.8 552.365C1100.14 556.8 1100.79 560.205 1105.77 562.579C1109.71 564.013 1113.67 564.64 1117.68 564.461C1121.67 564.281 1125.61 563.609 1129.51 562.4C1141.63 558.883 1152.83 553.687 1163.11 546.81C1163.94 546.34 1164.77 545.869 1165.62 545.377C1167.52 543.943 1169.58 542.644 1171.8 541.434C1172.56 541.031 1173.46 540.807 1174.49 540.807C1175.5 540.807 1176.3 541.255 1176.91 542.151Z" fill="#dc3c4d" fill-opacity="0.302" fill-rule="evenodd" opacity="1" stroke="none"/>
<path d="M747.427 577.501C731.838 614.908 723.617 634.619 722.788 636.724C721.758 638.987 720.683 641.338 719.563 643.802C719.317 644.452 719.137 645.146 719.025 645.863C716.92 650.567 714.904 655.383 712.933 660.288C700.636 689.608 689.011 719.018 678.08 748.541C678.08 748.899 678.035 749.212 677.901 749.526C677.789 750.243 677.497 750.982 677.005 751.766C675.526 754.275 673.466 755.395 670.823 755.171C670.173 755.35 669.456 755.395 668.672 755.35C667.306 755.036 666.231 754.499 665.447 753.737C664.685 752.953 664.461 751.766 664.82 750.153C666.32 744.419 668.179 738.707 670.375 733.04C678.08 713.508 685.74 693.932 693.311 674.355C697.858 662.573 702.45 650.836 707.109 639.143C709.125 634.417 715.374 619.522 725.835 594.435C736.273 569.303 742.41 554.52 744.202 550.085C758 516.755 772.626 483.694 788.104 450.901C797.96 429.465 807.681 407.895 817.313 386.213C818.388 383.659 819.777 381.285 821.524 379.135C823.002 377.477 824.839 376.424 826.989 375.999C827.571 375.528 828.243 375.416 828.96 375.64C830.685 375.282 832.029 375.64 832.992 376.716C834 377.791 834.291 379.112 833.888 380.658C833.462 381.867 833.037 383.077 832.634 384.331C829.99 391.857 827.034 399.361 823.764 406.82C812.654 431.862 801.409 456.882 790.075 481.902C784.162 494.692 778.383 507.481 772.783 520.249C769.916 526.476 767.094 532.703 764.361 538.975C763.398 541.304 762.412 543.701 761.404 546.142C761.158 546.501 761.001 546.859 760.956 547.217C760.464 548.069 760.105 548.92 759.881 549.816C759.702 550.667 759.792 551.428 760.15 552.145C760.732 552.817 761.494 553.176 762.39 553.22C763.219 553.041 764.048 552.84 764.899 552.593C765.078 552.369 765.369 552.19 765.795 552.056C774.978 548.718 784.184 545.403 793.39 542.11C819.06 532.748 844.595 523.004 869.995 512.902C895.373 502.822 920.483 491.757 945.346 479.751C960.98 472.225 976.346 464.386 991.398 456.188C1006.5 448.012 1021.28 439.03 1035.75 429.219C1047.8 421.111 1059.07 411.725 1069.53 401.086C1074.66 395.889 1079.07 390.065 1082.79 383.614C1090.31 370.713 1090.09 359.155 1082.16 348.941C1077.32 342.803 1071.41 337.876 1064.42 334.157C1053.78 328.199 1042.38 323.674 1030.19 320.628C1000.45 313.64 969.761 309.944 938.178 309.518C919.587 309.406 900.861 309.854 882.001 310.862C871.72 311.467 861.439 312.341 851.18 313.461C835.702 315.208 820.269 317.582 804.859 320.628C789.448 323.674 774.127 328.132 758.896 333.978C749.331 337.741 740.036 342.4 731.031 347.955C723.976 351.853 717.861 356.803 712.664 362.828C711.23 364.575 709.528 365.919 707.557 366.86C706.527 367.398 705.608 367.644 704.78 367.577C703.032 367.823 701.599 367.398 700.389 366.322C698.732 364.71 698.597 362.828 700.031 360.678C702.226 357.34 704.802 354.384 707.736 351.808C710.715 349.187 713.851 346.835 717.144 344.73C732.196 334.762 748.01 327.079 764.63 321.703C784.812 315.208 805.217 310.728 825.824 308.264C845.715 305.464 865.695 303.336 885.764 301.903L886.212 301.813C890.02 301.589 893.85 301.343 897.681 301.096C916.966 300.2 936.073 299.999 955.022 300.469C974.017 300.895 992.854 302.597 1011.56 305.576C1021.17 307.144 1030.66 309.115 1040.05 311.489C1049.48 313.819 1058.6 316.955 1067.38 320.897C1076.99 324.906 1085.5 330.372 1092.91 337.293C1109.26 353.062 1109.67 371.743 1094.08 393.291C1086.84 402.743 1078.6 411.165 1069.35 418.557C1057.63 428.189 1045.54 436.924 1033.06 444.809C1020.63 452.693 1007.88 460.018 994.803 466.76C967.857 481.342 940.508 494.602 912.733 506.541C884.958 518.435 856.959 529.545 828.781 539.871C806.785 548.113 784.789 556.043 762.748 563.614C759.209 564.689 756.141 566.301 753.52 568.452C750.877 570.602 748.861 573.626 747.427 577.501ZM1144.43 649.089C1152.25 655.047 1107.47 646.781 1010.12 624.27C943.397 608.457 876.177 593.785 808.443 580.279C789.493 576.695 770.566 573.29 751.638 570.065C743.978 568.586 736.34 567.242 728.702 566.033C726.126 565.562 723.528 565.226 720.907 565.047C720.549 565.047 720.101 565.002 719.563 564.868C717.816 565.002 717.905 562.718 719.832 558.059C721.736 553.4 724.334 551.832 727.627 553.31C732.106 555.348 742.365 558.059 758.448 561.463C774.508 564.823 795.272 569.124 820.717 574.365C868.92 583.818 926.575 596.092 993.728 611.189C1086.37 630.542 1136.59 643.175 1144.43 649.089Z" fill="#dc3c4d" fill-opacity="0.502" fill-rule="evenodd" opacity="1" stroke="none"/>
<path d="M974.773 582.388L974.414 582.388C963.125 582.926 955.577 580.91 951.746 576.296C947.871 571.704 947.625 565.253 951.03 556.943C953.852 550.627 957.615 545.027 962.319 540.189C963.931 538.531 965.567 537.187 967.246 536.157C968.971 535.082 970.965 534.499 973.249 534.365C974.549 534.074 976.049 534.23 977.729 534.813C978.312 534.88 978.894 535.037 979.432 535.261C980.731 534.902 981.985 534.41 983.195 533.738C983.486 533.514 983.911 533.29 984.449 533.11C986.958 531.923 989.646 531.296 992.513 531.229C993.633 531.184 994.842 531.117 996.096 531.05C1000.62 531.475 1004.16 533.178 1006.67 536.157C1009.22 539.091 1010.34 542.832 1009.98 547.356C1009.74 550.111 1009.02 552.732 1007.83 555.241C999.949 571.727 989.153 580.776 975.489 582.388L974.773 582.388ZM990.362 539.651C984.27 539.83 978.939 541.958 974.414 546.012C969.934 550.022 966.664 554.569 964.648 559.631C962.61 564.648 962.229 568.68 963.483 571.727C964.738 574.773 968.053 575.445 973.429 573.698C979.387 571.435 984.561 567.605 988.929 562.229C993.274 556.809 995.828 551.791 996.544 547.177C997.306 542.518 995.245 540.009 990.362 539.651Z" fill="#dc3c4d" fill-opacity="0.502" fill-rule="evenodd" opacity="1" stroke="none"/>
<path d="M1099.33 541.323C1099.73 541.323 1100.18 541.413 1100.67 541.592C1101.21 541.771 1101.66 541.995 1102.02 542.219C1103.14 543.182 1103.32 544.369 1102.56 545.803C1101.53 547.057 1100.54 548.132 1099.6 549.028C1094.04 554.942 1087.77 559.959 1080.78 564.081C1069.67 570.666 1057.22 574.451 1043.42 575.459C1038.34 575.952 1033.05 575.437 1027.56 573.936C1017.42 570.666 1012.94 563.722 1014.12 553.15C1015.74 543.429 1020.66 535.096 1028.91 528.152C1037.15 521.231 1046.24 517.849 1056.23 518.028C1058.14 518.207 1060.02 518.521 1061.88 518.924C1063.67 519.596 1065.01 520.582 1065.91 521.881C1066.85 523.135 1067.01 524.21 1066.36 525.106C1064.61 527.257 1062.53 527.884 1060.09 526.988C1056.37 525.689 1053.05 525.465 1050.14 526.361C1047.27 527.257 1044.36 529.048 1041.45 531.736C1038.76 534.2 1035.83 537.65 1032.67 542.13C1029.56 546.609 1027.65 551.067 1026.94 555.479C1026.26 559.847 1028.41 563.185 1033.39 565.514C1038.94 567.664 1044.5 567.933 1050.05 566.321C1063.96 562.557 1076.68 556.375 1088.22 547.774C1089.3 547.192 1090.21 546.497 1091 545.713C1092.25 544.638 1093.53 543.742 1094.85 543.025C1096.22 542.264 1097.72 541.682 1099.33 541.323Z" fill="#dc3c4d" fill-opacity="0.502" fill-rule="evenodd" opacity="1" stroke="none"/>
<path d="M1183.03 537.431C1183.68 538.215 1183.88 539.044 1183.66 539.94C1183.41 540.791 1182.9 541.598 1182.14 542.359C1177.05 547.444 1171.32 551.632 1164.93 554.903C1154 560.95 1142.38 564.937 1130.08 566.909C1120.45 568.521 1111.11 567.67 1102.04 564.31C1098.68 563.011 1096.35 563.929 1094.96 567.088C1093.06 571.456 1091.02 575.846 1088.87 580.258C1087.93 582.722 1086.78 585.253 1085.46 587.874C1085.42 588.188 1085.28 588.546 1085.1 588.949C1084.63 589.845 1084.19 590.719 1083.76 591.548C1083.29 592.331 1082.42 592.936 1081.16 593.339C1080.58 593.474 1079.95 593.563 1079.28 593.608C1078.56 593.675 1077.94 593.563 1077.4 593.25C1076.93 592.959 1076.48 592.511 1076.06 591.906C1075.65 591.256 1075.41 590.562 1075.34 589.845C1075.76 587.516 1076.41 585.253 1077.31 583.036C1079.1 578.018 1080.89 573.046 1082.69 568.073C1087.3 555.53 1092.09 543.143 1097.11 530.891C1110.95 497.023 1124.1 462.887 1136.53 428.482C1137.47 425.145 1138.88 422.121 1140.74 419.433C1142.18 417.529 1144.26 416.902 1147.02 417.551C1149.88 418.582 1150.87 420.486 1149.97 423.286C1148.47 429.154 1146.79 435.023 1144.95 440.936C1135.86 468.173 1125.74 494.94 1114.58 521.214C1112.3 526.904 1111.58 530.42 1112.43 531.787C1113.33 533.108 1115.14 533.108 1117.9 531.787C1120.63 530.42 1123.83 528.606 1127.48 526.321C1130.17 524.664 1132.79 523.141 1135.37 521.752C1135.91 521.394 1136.4 521.102 1136.89 520.856C1139.98 518.84 1143.45 517.608 1147.28 517.183C1148.76 517.071 1149.88 517.675 1150.6 518.974C1151.07 519.826 1151.14 520.565 1150.78 521.214C1150.46 521.819 1150.08 522.334 1149.61 522.738C1143.99 526.501 1138.28 530.062 1132.5 533.399C1129.75 534.967 1126.86 536.58 1123.81 538.238C1120.88 539.85 1118.03 541.553 1115.3 543.345C1113.33 544.599 1111.54 546.033 1109.92 547.645C1106.27 552.08 1106.92 555.485 1111.89 557.859C1115.84 559.293 1119.8 559.92 1123.81 559.741C1127.8 559.562 1131.74 558.89 1135.64 557.68C1147.75 554.163 1158.95 548.967 1169.24 542.09C1170.06 541.62 1170.89 541.15 1171.74 540.657C1173.65 539.223 1175.71 537.924 1177.93 536.715C1178.69 536.311 1179.58 536.087 1180.61 536.087C1181.62 536.087 1182.43 536.535 1183.03 537.431Z" fill="#dc3c4d" fill-opacity="0.502" fill-rule="evenodd" opacity="1" stroke="none"/>
<path d="M753.554 572.781C737.965 610.188 729.744 629.899 728.915 632.005C727.885 634.267 726.81 636.619 725.69 639.083C725.443 639.732 725.264 640.427 725.152 641.143C723.047 645.847 721.031 650.663 719.06 655.568C706.763 684.889 695.137 714.299 684.207 743.821C684.207 744.179 684.162 744.493 684.027 744.806C683.916 745.523 683.624 746.262 683.132 747.046C681.653 749.555 679.592 750.675 676.949 750.451C676.3 750.63 675.583 750.675 674.799 750.63C673.433 750.317 672.358 749.779 671.574 749.017C670.812 748.233 670.588 747.046 670.946 745.434C672.447 739.699 674.306 733.988 676.501 728.321C684.207 708.789 691.867 689.212 699.438 669.635C703.985 657.853 708.577 646.116 713.236 634.424C715.252 629.697 721.501 614.802 731.962 589.715C742.4 564.583 748.537 549.8 750.329 545.365C764.127 512.035 778.753 478.974 794.231 446.182C804.087 424.746 813.808 403.175 823.439 381.493C824.515 378.94 825.903 376.565 827.65 374.415C829.129 372.757 830.966 371.705 833.116 371.279C833.698 370.809 834.37 370.697 835.087 370.921C836.812 370.562 838.156 370.921 839.119 371.996C840.127 373.071 840.418 374.393 840.015 375.938C839.589 377.148 839.164 378.357 838.76 379.612C836.117 387.138 833.161 394.641 829.89 402.1C818.78 427.142 807.536 452.162 796.202 477.182C790.289 489.972 784.51 502.762 778.91 515.529C776.043 521.756 773.221 527.983 770.488 534.255C769.525 536.584 768.539 538.981 767.531 541.423C767.285 541.781 767.128 542.139 767.083 542.498C766.591 543.349 766.232 544.2 766.008 545.096C765.829 545.947 765.919 546.709 766.277 547.426C766.859 548.098 767.621 548.456 768.517 548.501C769.346 548.322 770.174 548.12 771.026 547.874C771.205 547.65 771.496 547.47 771.922 547.336C781.105 543.999 790.311 540.683 799.517 537.391C825.187 528.028 850.722 518.284 876.122 508.182C901.5 498.103 926.61 487.038 951.473 475.032C967.107 467.506 982.473 459.666 997.525 451.468C1012.62 443.292 1027.41 434.31 1041.88 424.499C1053.93 416.391 1065.19 407.006 1075.65 396.366C1080.78 391.17 1085.2 385.346 1088.91 378.895C1096.44 365.993 1096.22 354.435 1088.29 344.221C1083.45 338.084 1077.53 333.156 1070.55 329.438C1059.91 323.479 1048.51 318.955 1036.32 315.909C1006.57 308.92 975.888 305.224 944.305 304.799C925.714 304.687 906.988 305.135 888.128 306.143C877.847 306.747 867.566 307.621 857.307 308.741C841.829 310.488 826.396 312.862 810.986 315.909C795.575 318.955 780.254 323.412 765.023 329.258C755.458 333.021 746.163 337.68 737.158 343.235C730.102 347.133 723.987 352.083 718.791 358.108C717.357 359.856 715.655 361.2 713.684 362.14C712.654 362.678 711.735 362.924 710.906 362.857C709.159 363.103 707.726 362.678 706.516 361.603C704.859 359.99 704.724 358.108 706.158 355.958C708.353 352.621 710.929 349.664 713.863 347.088C716.842 344.467 719.978 342.116 723.271 340.01C738.323 330.042 754.137 322.36 770.757 316.984C790.938 310.488 811.344 306.008 831.951 303.544C851.842 300.744 871.821 298.616 891.891 297.183L892.339 297.093C896.147 296.869 899.977 296.623 903.807 296.377C923.093 295.481 942.199 295.279 961.149 295.749C980.144 296.175 998.981 297.877 1017.68 300.856C1027.29 302.424 1036.79 304.395 1046.18 306.77C1055.61 309.099 1064.72 312.235 1073.5 316.177C1083.11 320.187 1091.62 325.652 1099.04 332.573C1115.39 348.342 1115.79 367.023 1100.2 388.571C1092.97 398.024 1084.72 406.446 1075.47 413.837C1063.76 423.469 1051.66 432.205 1039.19 440.089C1026.76 447.974 1014.01 455.298 1000.93 462.04C973.984 476.622 946.634 489.882 918.86 501.821C891.085 513.715 863.086 524.825 834.908 535.151C812.912 543.394 790.916 551.323 768.875 558.894C765.336 559.969 762.268 561.582 759.647 563.732C757.004 565.882 754.988 568.906 753.554 572.781ZM1150.56 644.369C1158.37 650.327 1113.6 642.062 1016.25 619.551C949.524 603.737 882.304 589.066 814.569 575.559C795.62 571.975 776.693 568.57 757.765 565.345C750.105 563.867 742.467 562.523 734.829 561.313C732.253 560.843 729.654 560.507 727.034 560.327C726.675 560.327 726.227 560.283 725.69 560.148C723.943 560.283 724.032 557.998 725.959 553.339C727.863 548.68 730.461 547.112 733.753 548.59C738.233 550.629 748.492 553.339 764.575 556.744C780.635 560.103 801.399 564.404 826.844 569.646C875.047 579.098 932.702 591.373 999.855 606.47C1092.5 625.822 1142.72 638.456 1150.56 644.369Z" fill="#d72323" fill-rule="evenodd" opacity="1" stroke="none"/>
<path d="M980.899 577.669L980.541 577.669C969.252 578.206 961.703 576.19 957.873 571.576C953.998 566.984 953.752 560.534 957.156 552.223C959.979 545.907 963.742 540.307 968.446 535.469C970.058 533.811 971.693 532.467 973.373 531.437C975.098 530.362 977.092 529.78 979.376 529.645C980.675 529.354 982.176 529.511 983.856 530.093C984.438 530.16 985.021 530.317 985.558 530.541C986.858 530.183 988.112 529.69 989.321 529.018C989.613 528.794 990.038 528.57 990.576 528.391C993.085 527.204 995.772 526.577 998.639 526.509C999.759 526.465 1000.97 526.397 1002.22 526.33C1006.75 526.756 1010.29 528.458 1012.8 531.437C1015.35 534.371 1016.47 538.112 1016.11 542.637C1015.86 545.392 1015.15 548.012 1013.96 550.521C1006.08 567.007 995.28 576.056 981.616 577.669L980.899 577.669ZM996.489 534.931C990.397 535.111 985.066 537.238 980.541 541.293C976.061 545.302 972.791 549.849 970.775 554.911C968.737 559.929 968.356 563.961 969.61 567.007C970.865 570.053 974.18 570.725 979.555 568.978C985.514 566.716 990.688 562.885 995.056 557.51C999.401 552.089 1001.95 547.072 1002.67 542.457C1003.43 537.798 1001.37 535.29 996.489 534.931Z" fill="#d72323" fill-rule="evenodd" opacity="1" stroke="none"/>
<path d="M1105.46 536.603C1105.86 536.603 1106.31 536.693 1106.8 536.872C1107.34 537.051 1107.79 537.275 1108.15 537.499C1109.27 538.463 1109.44 539.65 1108.68 541.083C1107.65 542.338 1106.67 543.413 1105.73 544.309C1100.17 550.222 1093.9 555.239 1086.91 559.361C1075.8 565.946 1063.35 569.732 1049.55 570.74C1044.46 571.232 1039.18 570.717 1033.69 569.217C1023.54 565.946 1019.06 559.003 1020.25 548.43C1021.86 538.709 1026.79 530.376 1035.03 523.433C1043.28 516.511 1052.37 513.129 1062.36 513.308C1064.27 513.488 1066.15 513.801 1068.01 514.204C1069.8 514.876 1071.14 515.862 1072.04 517.161C1072.98 518.415 1073.14 519.491 1072.49 520.386C1070.74 522.537 1068.66 523.164 1066.21 522.268C1062.5 520.969 1059.18 520.745 1056.27 521.641C1053.4 522.537 1050.49 524.329 1047.58 527.017C1044.89 529.481 1041.96 532.93 1038.8 537.41C1035.68 541.89 1033.78 546.347 1033.06 550.76C1032.39 555.127 1034.54 558.465 1039.51 560.794C1045.07 562.945 1050.62 563.214 1056.18 561.601C1070.09 557.838 1082.81 551.656 1094.35 543.054C1095.42 542.472 1096.34 541.778 1097.12 540.994C1098.38 539.918 1099.66 539.023 1100.98 538.306C1102.34 537.544 1103.84 536.962 1105.46 536.603Z" fill="#d72323" fill-rule="evenodd" opacity="1" stroke="none"/>
<path d="M1189.16 532.712C1189.81 533.496 1190.01 534.324 1189.79 535.22C1189.54 536.071 1189.03 536.878 1188.26 537.639C1183.18 542.724 1177.45 546.913 1171.06 550.183C1160.13 556.231 1148.51 560.218 1136.21 562.189C1126.58 563.802 1117.24 562.95 1108.16 559.59C1104.8 558.291 1102.48 559.21 1101.09 562.368C1099.18 566.736 1097.14 571.126 1094.99 575.539C1094.05 578.003 1092.91 580.534 1091.59 583.154C1091.54 583.468 1091.41 583.826 1091.23 584.229C1090.76 585.125 1090.31 585.999 1089.89 586.828C1089.42 587.612 1088.54 588.217 1087.29 588.62C1086.71 588.754 1086.08 588.844 1085.41 588.889C1084.69 588.956 1084.06 588.844 1083.53 588.53C1083.06 588.239 1082.61 587.791 1082.18 587.186C1081.78 586.537 1081.53 585.842 1081.47 585.125C1081.89 582.796 1082.54 580.534 1083.44 578.316C1085.23 573.299 1087.02 568.326 1088.81 563.354C1093.43 550.81 1098.22 538.423 1103.24 526.171C1117.08 492.304 1130.23 458.167 1142.66 423.762C1143.6 420.425 1145.01 417.401 1146.87 414.713C1148.3 412.809 1150.39 412.182 1153.14 412.832C1156.01 413.862 1156.99 415.766 1156.1 418.566C1154.6 424.434 1152.92 430.303 1151.08 436.216C1141.99 463.454 1131.86 490.221 1120.71 516.495C1118.42 522.184 1117.71 525.701 1118.56 527.067C1119.45 528.389 1121.27 528.389 1124.02 527.067C1126.76 525.701 1129.96 523.886 1133.61 521.602C1136.3 519.944 1138.92 518.421 1141.49 517.032C1142.03 516.674 1142.53 516.383 1143.02 516.136C1146.11 514.12 1149.58 512.888 1153.41 512.463C1154.89 512.351 1156.01 512.956 1156.73 514.255C1157.2 515.106 1157.26 515.845 1156.91 516.495C1156.59 517.099 1156.21 517.615 1155.74 518.018C1150.12 521.781 1144.41 525.342 1138.63 528.68C1135.87 530.248 1132.98 531.86 1129.94 533.518C1127 535.131 1124.16 536.833 1121.43 538.625C1119.45 539.879 1117.66 541.313 1116.05 542.926C1112.4 547.361 1113.05 550.765 1118.02 553.14C1121.96 554.573 1125.93 555.2 1129.94 555.021C1133.92 554.842 1137.87 554.17 1141.76 552.96C1153.88 549.444 1165.08 544.247 1175.36 537.371C1176.19 536.9 1177.02 536.43 1177.87 535.937C1179.77 534.504 1181.84 533.204 1184.05 531.995C1184.81 531.592 1185.71 531.368 1186.74 531.368C1187.75 531.368 1188.56 531.816 1189.16 532.712Z" fill="#d72323" fill-rule="evenodd" opacity="1" stroke="none"/>
<path d="M40.308 849.38C48.6628 848.73 54.4194 847.677 57.6001 846.244C60.7583 844.81 62.8414 842.212 63.8718 838.449C64.8798 834.686 65.395 828.033 65.395 818.469L65.395 709.072C51.1715 709.565 41.4951 710.371 36.3657 711.491C31.2811 712.566 27.8093 714.985 25.9725 718.748C24.1134 722.511 22.4335 729.836 20.9551 740.699L9.12843 741.685C11.1443 725.804 12.3987 711.356 12.8915 698.32L15.1314 696.259L36.0073 699.037L113.777 699.037L135.101 696.259L137.43 698.32C137.901 712.006 139.155 726.14 141.193 740.699L129.367 741.685C127.508 730.642 125.649 723.206 123.812 719.375C121.953 715.5 118.705 712.992 114.046 711.849C109.387 710.662 100.36 709.744 86.9877 709.072C85.9573 719.107 85.039 736.847 84.2102 762.292C83.359 787.737 82.9558 810.652 82.9558 831.012C82.9558 837.239 84.031 841.652 86.1813 844.273C88.3764 846.849 92.0499 848.125 97.2017 848.125C102.219 848.125 106.811 847.857 111 847.319L111.806 848.394L109.566 859.862L101.234 859.683L72.6523 859.146C63.4462 859.146 51.9779 859.459 38.2472 860.131L40.308 849.38Z" fill="#303841" fill-rule="evenodd" opacity="1" stroke="none"/>
<path d="M159.952 850.634C167.657 849.156 172.854 846.938 175.542 844.004C178.23 841.092 179.574 836.097 179.574 829.041L179.842 723.586C179.842 718.278 179.215 714.694 177.961 712.835C176.707 710.998 174.22 710.057 170.524 710.057L162.013 710.595L161.475 709.609L163.267 698.499C165.417 698.499 167.075 698.589 168.285 698.768C178.319 699.127 185.935 699.306 191.132 699.306C198.12 699.306 207.035 698.567 217.921 697.066L216.935 708.355C211.918 709.206 208.356 710.214 206.273 711.401C204.168 712.544 202.734 714.492 201.973 717.225C201.256 719.98 200.718 724.549 200.36 730.933L198.837 771.52L241.037 771.789C251.542 771.789 263.929 770.96 278.219 769.28L278.398 723.586C278.398 718.278 277.771 714.694 276.517 712.835C275.263 710.998 272.799 710.057 269.17 710.057C266.773 710.057 263.906 710.236 260.569 710.595L260.121 709.609L261.823 698.499C263.66 698.679 267.02 698.858 271.858 699.037C276.741 699.216 281.624 699.306 286.462 699.306C294.459 699.306 304.493 698.567 316.567 697.066L315.581 708.355C309.354 709.206 305.143 710.572 302.948 712.476C300.798 714.403 299.655 717.763 299.543 722.601C298.513 741.55 297.662 761.844 296.945 783.526C296.273 805.164 295.959 821.493 295.959 832.536C295.959 838.762 296.699 842.906 298.199 844.989C299.745 847.095 302.701 848.125 307.069 848.125C309.04 848.125 312.803 847.857 318.358 847.319L318.806 848.394L316.567 859.862C314.237 859.862 312.378 859.795 311.012 859.683C300.014 859.325 291.592 859.146 285.745 859.146L256.806 859.683L259.135 848.394C264.623 848.215 268.655 847.476 271.231 846.154C273.851 844.788 275.666 842.279 276.696 838.628C277.704 834.932 278.219 829.22 278.219 821.515L278.219 783.616L240.051 783.347C235.863 783.526 230.016 783.84 222.49 784.243C214.964 784.669 206.923 785.296 198.389 786.125L197.403 831.012C197.403 837.889 198.143 842.458 199.643 844.721C201.122 847.005 204.056 848.125 208.424 848.125C210.395 848.125 214.158 847.857 219.713 847.319L220.25 848.394L217.921 859.862C216.42 859.728 213.575 859.594 209.409 859.414C205.221 859.235 200.942 859.146 196.597 859.146C188.892 859.146 180.649 859.459 171.868 860.131C163.088 860.781 158.608 861.475 158.429 862.192L159.952 850.634Z" fill="#303841" fill-rule="evenodd" opacity="1" stroke="none"/>
<path d="M466.639 817.215C463.817 830.788 461.577 844.855 459.919 859.414L458.575 860.938C423.453 859.728 398.12 859.146 382.598 859.146C370.233 859.146 358.586 859.974 347.655 861.654L349.178 850.096C356.704 849.088 361.834 847.117 364.589 844.183C367.389 841.271 368.8 836.209 368.8 829.041L369.068 723.586C369.068 718.278 368.441 714.694 367.187 712.835C365.933 710.998 363.446 710.057 359.75 710.057L351.239 710.595L350.701 709.609L352.493 698.499C369.516 699.037 381.119 699.306 387.346 699.306C407.237 699.306 422.692 699.104 433.757 698.679C444.8 698.275 454.409 697.469 462.607 696.259L463.413 697.783C460.367 710.998 458.418 724.885 457.59 739.445L445.584 740.43L446.032 729.679C446.032 723.833 445.27 719.778 443.792 717.494C442.291 715.231 439.043 713.731 434.026 713.014C429.008 712.252 420.228 711.849 407.685 711.849C401.816 711.849 397.784 712.028 395.589 712.387C393.439 712.7 392.028 713.462 391.378 714.716C390.706 715.971 390.303 718.278 390.124 721.615L388.063 770.266L413.956 770.535C420.452 770.535 430.666 769.616 444.598 767.757L445.584 769.012L442.09 783.885C423.498 783.347 411.761 783.078 406.878 783.078C401.368 783.078 394.962 783.683 387.615 784.87L386.629 832.804C386.629 837.643 387.033 841.047 387.884 843.018C388.713 844.945 390.415 846.221 392.991 846.871C395.544 847.543 400.024 847.857 406.43 847.857C420.452 847.857 430.442 847.207 436.355 845.885C442.314 844.519 446.569 841.831 449.078 837.822C451.587 833.835 453.491 826.958 454.812 817.215L465.922 815.96L466.639 817.215Z" fill="#303841" fill-rule="evenodd" opacity="1" stroke="none"/>
<path d="M659.631 863.177C655.443 863.177 650.963 861.05 646.192 856.816C641.398 852.516 637.008 846.692 633.021 839.345L606.142 790.604L585.356 790.604L584.639 828.056C584.639 834.395 585.042 838.964 585.893 841.764C586.722 844.519 588.313 846.333 590.642 847.229C592.972 848.125 596.959 848.573 602.648 848.573L603.186 849.648L600.946 860.131C598.907 859.952 594.876 859.773 588.85 859.594C582.802 859.459 576.531 859.414 570.035 859.414C564.166 859.414 558.97 859.459 554.445 859.594C549.965 859.773 546.964 859.952 545.486 860.131L547.725 848.842C553.034 848.192 557.043 847.297 559.731 846.154C562.419 844.967 564.256 843.086 565.286 840.51C566.294 837.889 566.809 834.059 566.809 829.041L567.078 723.586C567.078 718.278 566.451 714.694 565.197 712.835C563.942 710.998 561.456 710.057 557.76 710.057C556.08 710.057 554.4 710.147 552.743 710.326C551.063 710.505 549.898 710.595 549.249 710.595L548.711 709.609L550.503 698.499C552.474 698.679 556.192 698.858 561.702 699.037C567.257 699.216 572.812 699.306 578.367 699.306C584.034 699.306 590.015 699.194 596.287 698.947C602.558 698.656 606.859 698.455 609.189 698.32C624.778 698.32 637.075 701.859 646.102 708.893C655.107 715.881 659.631 725.468 659.631 737.653C659.631 747.688 656.406 756.894 649.955 765.249C643.504 773.626 634.41 780.48 622.718 785.856L650.313 829.489C655.196 837.553 659.945 843.153 664.559 846.244C669.151 849.357 674.795 850.903 681.493 850.903L682.478 851.888L680.955 860.4L659.631 863.177ZM611.697 779.046C611.697 779.584 614.206 778.509 619.223 775.821C624.241 773.133 628.743 769.056 632.752 763.546C636.807 757.991 638.845 750.891 638.845 742.222C638.845 720.137 623.524 709.072 592.882 709.072C591.202 709.072 590.06 709.475 589.477 710.236C588.873 710.953 588.514 712.476 588.402 714.806C586.834 740.43 586.005 761.015 585.893 776.538L611.697 779.046Z" fill="#303841" fill-rule="evenodd" opacity="1" stroke="none"/>
<path d="M817.987 817.215C815.165 830.788 812.925 844.855 811.267 859.414L809.923 860.938C774.802 859.728 749.468 859.146 733.946 859.146C721.581 859.146 709.934 859.974 699.003 861.654L700.526 850.096C708.052 849.088 713.182 847.117 715.937 844.183C718.737 841.271 720.148 836.209 720.148 829.041L720.417 723.586C720.417 718.278 719.789 714.694 718.535 712.835C717.281 710.998 714.794 710.057 711.099 710.057L702.587 710.595L702.049 709.609L703.841 698.499C720.865 699.037 732.467 699.306 738.694 699.306C758.585 699.306 774.04 699.104 785.105 698.679C796.148 698.275 805.757 697.469 813.955 696.259L814.762 697.783C811.715 710.998 809.767 724.885 808.938 739.445L796.932 740.43L797.38 729.679C797.38 723.833 796.618 719.778 795.14 717.494C793.639 715.231 790.391 713.731 785.374 713.014C780.357 712.252 771.576 711.849 759.033 711.849C753.164 711.849 749.132 712.028 746.937 712.387C744.787 712.7 743.376 713.462 742.726 714.716C742.054 715.971 741.651 718.278 741.472 721.615L739.411 770.266L765.304 770.535C771.8 770.535 782.014 769.616 795.946 767.757L796.932 769.012L793.438 783.885C774.846 783.347 763.109 783.078 758.226 783.078C752.716 783.078 746.31 783.683 738.963 784.87L737.977 832.804C737.977 837.643 738.381 841.047 739.232 843.018C740.061 844.945 741.763 846.221 744.339 846.871C746.892 847.543 751.372 847.857 757.778 847.857C771.8 847.857 781.79 847.207 787.703 845.885C793.662 844.519 797.917 841.831 800.426 837.822C802.935 833.835 804.839 826.958 806.16 817.215L817.27 815.96L817.987 817.215Z" fill="#303841" fill-rule="evenodd" opacity="1" stroke="none"/>
<path d="M915.415 859.862L916.401 850.096C924.935 849.447 930.781 848.461 933.962 847.14C937.12 845.773 938.71 843.601 938.71 840.599C938.71 837.262 937.949 833.23 936.47 828.504L928.138 801.177C924.129 800.998 915.438 800.908 902.065 800.908C894.047 800.908 884.953 801.602 874.739 802.969L865.421 829.041C863.92 833.588 863.181 836.836 863.181 838.807C863.181 842.526 864.345 845.169 866.675 846.781C869.004 848.349 872.857 849.111 878.233 849.111L892.568 849.111L893.016 850.096L891.493 860.938C889.522 860.758 884.908 860.4 877.695 859.862C870.528 859.37 863.494 859.146 856.64 859.146C850.413 859.146 844.679 859.235 839.438 859.414C834.174 859.594 830.724 859.728 829.044 859.862L831.016 848.125C835.719 847.588 839.482 845.953 842.305 843.197C845.172 840.465 847.949 835.649 850.637 828.772L899.557 700.56L915.415 696.259L917.386 696.259C918.394 700.269 920.925 709.565 925.002 724.124C929.124 738.706 934.141 755.931 940.054 775.821C946.012 795.711 951.747 814.034 957.257 830.744C959.273 836.971 961.961 841.316 965.32 843.825C968.658 846.333 974.011 847.924 981.358 848.573L981.896 849.648L980.104 859.862C978.133 859.862 974.482 859.728 969.173 859.504C963.909 859.258 958.69 859.146 953.494 859.146C945.475 859.146 937.747 859.459 930.288 860.131C922.874 860.781 918.148 861.296 916.132 861.654L915.415 859.862ZM901.349 790.604C907.374 790.604 915.147 790.201 924.644 789.35L904.843 723.586L903.051 723.586L879.218 790.604L901.349 790.604Z" fill="#303841" fill-rule="evenodd" opacity="1" stroke="none"/>
<path d="M997.916 850.096C1004.48 849.088 1008.96 847.117 1011.36 844.183C1013.8 841.271 1015.03 836.209 1015.03 829.041L1015.3 723.586C1015.3 718.278 1014.67 714.694 1013.42 712.835C1012.16 710.998 1009.68 710.057 1005.98 710.057C1004.3 710.057 1002.62 710.147 1000.96 710.326C999.283 710.505 998.118 710.595 997.468 710.595L996.931 709.609L998.723 698.499C1000.69 698.679 1004.41 698.858 1009.92 699.037C1015.48 699.216 1021.08 699.306 1026.77 699.306C1031.29 699.306 1036.44 699.015 1042.18 698.41C1047.96 697.827 1051.79 697.379 1053.65 697.066L1052.66 708.355C1047.1 709.027 1043.27 710.102 1041.19 711.58C1039.09 713.081 1037.83 714.851 1037.43 716.867C1037 718.838 1036.55 723.766 1036.08 731.65C1035.05 745.873 1034.29 762.113 1033.75 780.39C1033.26 798.623 1033.04 814.661 1033.04 828.504C1033.04 834.551 1033.53 838.874 1034.56 841.495C1035.57 844.071 1037.45 845.773 1040.21 846.602C1042.94 847.453 1047.66 847.857 1054.36 847.857C1064.58 847.857 1072.06 847.028 1076.85 845.348C1081.62 843.69 1085.21 840.42 1087.6 835.582C1090.04 830.699 1092.28 822.904 1094.32 812.197L1105.34 810.943L1106.15 812.197C1105.61 814.885 1104.54 820.933 1102.92 830.296C1101.36 839.681 1099.99 849.536 1098.8 859.862L1097.55 861.386C1092.71 861.072 1082.7 860.624 1067.53 860.042C1052.41 859.437 1039.94 859.146 1030.08 859.146C1022.2 859.146 1015.03 859.459 1008.58 860.131C1002.13 860.781 998.051 861.296 996.393 861.654L997.916 850.096Z" fill="#303841" fill-rule="evenodd" opacity="1" stroke="none"/>
<path d="M1289.8 817.215C1286.98 830.788 1284.74 844.855 1283.08 859.414L1281.73 860.938C1246.61 859.728 1221.28 859.146 1205.76 859.146C1193.39 859.146 1181.74 859.974 1170.81 861.654L1172.34 850.096C1179.86 849.088 1184.99 847.117 1187.75 844.183C1190.55 841.271 1191.96 836.209 1191.96 829.041L1192.23 723.586C1192.23 718.278 1191.6 714.694 1190.35 712.835C1189.09 710.998 1186.6 710.057 1182.91 710.057L1174.4 710.595L1173.86 709.609L1175.65 698.499C1192.67 699.037 1204.28 699.306 1210.5 699.306C1230.39 699.306 1245.85 699.104 1256.92 698.679C1267.96 698.275 1277.57 697.469 1285.77 696.259L1286.57 697.783C1283.53 710.998 1281.58 724.885 1280.75 739.445L1268.74 740.43L1269.19 729.679C1269.19 723.833 1268.43 719.778 1266.95 717.494C1265.45 715.231 1262.2 713.731 1257.18 713.014C1252.17 712.252 1243.39 711.849 1230.84 711.849C1224.97 711.849 1220.94 712.028 1218.75 712.387C1216.6 712.7 1215.19 713.462 1214.54 714.716C1213.86 715.971 1213.46 718.278 1213.28 721.615L1211.22 770.266L1237.11 770.535C1243.61 770.535 1253.82 769.616 1267.76 767.757L1268.74 769.012L1265.25 783.885C1246.66 783.347 1234.92 783.078 1230.04 783.078C1224.53 783.078 1218.12 783.683 1210.77 784.87L1209.79 832.804C1209.79 837.643 1210.19 841.047 1211.04 843.018C1211.87 844.945 1213.57 846.221 1216.15 846.871C1218.7 847.543 1223.18 847.857 1229.59 847.857C1243.61 847.857 1253.6 847.207 1259.51 845.885C1265.47 844.519 1269.73 841.831 1272.24 837.822C1274.75 833.835 1276.65 826.958 1277.97 817.215L1289.08 815.96L1289.8 817.215Z" fill="#303841" fill-rule="evenodd" opacity="1" stroke="none"/>
<path d="M1359.54 862.192C1352.55 862.192 1346.12 861.565 1340.28 860.31C1334.41 859.056 1329.62 857.69 1325.85 856.189C1322.09 854.643 1320.21 853.77 1320.21 853.591L1318.95 851.082C1319.07 850.141 1319.36 847.655 1319.85 843.645C1320.39 839.591 1320.86 834.327 1321.28 827.877C1321.69 821.426 1321.91 814.616 1321.91 807.449L1333.2 806.194C1333.2 818.738 1334.03 828.033 1335.71 834.059C1337.37 840.106 1340.48 844.25 1345.03 846.513C1349.55 848.73 1356.49 849.828 1365.81 849.828C1376.38 849.828 1384.83 847.386 1391.17 842.481C1397.55 837.531 1400.75 830.788 1400.75 822.232C1400.75 817.215 1399.01 812.712 1395.56 808.703C1392.15 804.716 1388.08 801.311 1383.37 798.489C1378.71 795.622 1371.77 791.747 1362.59 786.841C1353.85 782.362 1346.75 778.24 1341.26 774.477C1335.75 770.714 1331.09 766.234 1327.29 761.038C1323.52 755.841 1321.64 749.816 1321.64 742.939C1321.64 734.226 1324.17 726.319 1329.26 719.196C1334.39 712.096 1341.35 706.518 1350.13 702.442C1358.91 698.32 1368.68 696.259 1379.43 696.259C1386.11 696.259 1392.29 696.752 1397.98 697.693C1403.64 698.589 1408.15 699.552 1411.51 700.56C1414.84 701.59 1416.93 702.24 1417.78 702.531L1418.58 704.054C1418.41 705.085 1417.96 707.437 1417.24 711.132C1416.57 714.783 1415.83 719.89 1415 726.453C1414.15 732.972 1413.5 739.624 1413.03 746.433L1403.26 747.509L1401.74 746.254C1401.92 745.537 1402.05 743.992 1402.19 741.595C1402.37 739.154 1402.46 736.354 1402.46 733.173C1402.46 724.281 1400.26 718.166 1395.92 714.806C1391.62 711.468 1383.84 709.788 1372.62 709.788C1363.42 709.788 1355.82 712.096 1349.86 716.687C1343.95 721.302 1340.99 727.036 1340.99 733.89C1340.99 740.587 1343.86 746.411 1349.6 751.361C1355.37 756.334 1363.89 761.732 1375.13 767.578C1385.99 773.088 1394.26 777.658 1399.95 781.286C1405.68 784.87 1410.7 789.35 1415 794.726C1419.35 800.057 1421.54 806.194 1421.54 813.183C1421.54 822.568 1418.9 830.99 1413.66 838.449C1408.39 845.93 1401.07 851.754 1391.71 855.92C1382.32 860.086 1371.59 862.192 1359.54 862.192Z" fill="#303841" fill-rule="evenodd" opacity="1" stroke="none"/>
<path d="M1471.05 849.38C1479.4 848.73 1485.16 847.677 1488.34 846.244C1491.5 844.81 1493.58 842.212 1494.61 838.449C1495.62 834.686 1496.13 828.033 1496.13 818.469L1496.13 709.072C1481.91 709.565 1472.23 710.371 1467.11 711.491C1462.02 712.566 1458.55 714.985 1456.71 718.748C1454.85 722.511 1453.17 729.836 1451.69 740.699L1439.87 741.685C1441.88 725.804 1443.14 711.356 1443.63 698.32L1445.87 696.259L1466.75 699.037L1544.52 699.037L1565.84 696.259L1568.17 698.32C1568.64 712.006 1569.89 726.14 1571.93 740.699L1560.11 741.685C1558.25 730.642 1556.39 723.206 1554.55 719.375C1552.69 715.5 1549.44 712.992 1544.79 711.849C1540.13 710.662 1531.1 709.744 1517.73 709.072C1516.7 719.107 1515.78 736.847 1514.95 762.292C1514.1 787.737 1513.7 810.652 1513.7 831.012C1513.7 837.239 1514.77 841.652 1516.92 844.273C1519.12 846.849 1522.79 848.125 1527.94 848.125C1532.96 848.125 1537.55 847.857 1541.74 847.319L1542.55 848.394L1540.31 859.862L1531.97 859.683L1503.39 859.146C1494.19 859.146 1482.72 859.459 1468.99 860.131L1471.05 849.38Z" fill="#303841" fill-rule="evenodd" opacity="1" stroke="none"/>
<path d="M1657.26 859.862L1658.25 850.096C1666.78 849.447 1672.63 848.461 1675.81 847.14C1678.97 845.773 1680.56 843.601 1680.56 840.599C1680.56 837.262 1679.8 833.23 1678.32 828.504L1669.98 801.177C1665.97 800.998 1657.28 800.908 1643.91 800.908C1635.89 800.908 1626.8 801.602 1616.58 802.969L1607.27 829.041C1605.77 833.588 1605.03 836.836 1605.03 838.807C1605.03 842.526 1606.19 845.169 1608.52 846.781C1610.85 848.349 1614.7 849.111 1620.08 849.111L1634.41 849.111L1634.86 850.096L1633.34 860.938C1631.37 860.758 1626.75 860.4 1619.54 859.862C1612.37 859.37 1605.34 859.146 1598.49 859.146C1592.26 859.146 1586.53 859.235 1581.28 859.414C1576.02 859.594 1572.57 859.728 1570.89 859.862L1572.86 848.125C1577.57 847.588 1581.33 845.953 1584.15 843.197C1587.02 840.465 1589.8 835.649 1592.48 828.772L1641.4 700.56L1657.26 696.259L1659.23 696.259C1660.24 700.269 1662.77 709.565 1666.85 724.124C1670.97 738.706 1675.99 755.931 1681.9 775.821C1687.86 795.711 1693.59 814.034 1699.1 830.744C1701.12 836.971 1703.81 841.316 1707.17 843.825C1710.5 846.333 1715.86 847.924 1723.2 848.573L1723.74 849.648L1721.95 859.862C1719.98 859.862 1716.33 859.728 1711.02 859.504C1705.76 859.258 1700.54 859.146 1695.34 859.146C1687.32 859.146 1679.59 859.459 1672.13 860.131C1664.72 860.781 1659.99 861.296 1657.98 861.654L1657.26 859.862ZM1643.2 790.604C1649.22 790.604 1656.99 790.201 1666.49 789.35L1646.69 723.586L1644.9 723.586L1621.06 790.604L1643.2 790.604Z" fill="#303841" fill-rule="evenodd" opacity="1" stroke="none"/>
<path d="M1754.64 849.38C1762.99 848.73 1768.75 847.677 1771.93 846.244C1775.09 844.81 1777.17 842.212 1778.2 838.449C1779.21 834.686 1779.72 828.033 1779.72 818.469L1779.72 709.072C1765.5 709.565 1755.82 710.371 1750.69 711.491C1745.61 712.566 1742.14 714.985 1740.3 718.748C1738.44 722.511 1736.76 729.836 1735.28 740.699L1723.46 741.685C1725.47 725.804 1726.73 711.356 1727.22 698.32L1729.46 696.259L1750.34 699.037L1828.1 699.037L1849.43 696.259L1851.76 698.32C1852.23 712.006 1853.48 726.14 1855.52 740.699L1843.69 741.685C1841.84 730.642 1839.98 723.206 1838.14 719.375C1836.28 715.5 1833.03 712.992 1828.37 711.849C1823.71 710.662 1814.69 709.744 1801.32 709.072C1800.29 719.107 1799.37 736.847 1798.54 762.292C1797.69 787.737 1797.28 810.652 1797.28 831.012C1797.28 837.239 1798.36 841.652 1800.51 844.273C1802.7 846.849 1806.38 848.125 1811.53 848.125C1816.55 848.125 1821.14 847.857 1825.33 847.319L1826.13 848.394L1823.89 859.862L1815.56 859.683L1786.98 859.146C1777.77 859.146 1766.31 859.459 1752.57 860.131L1754.64 849.38Z" fill="#303841" fill-rule="evenodd" opacity="1" stroke="none"/>
<path d="M1991.74 817.215C1988.92 830.788 1986.68 844.855 1985.02 859.414L1983.68 860.938C1948.56 859.728 1923.22 859.146 1907.7 859.146C1895.33 859.146 1883.69 859.974 1872.76 861.654L1874.28 850.096C1881.81 849.088 1886.94 847.117 1889.69 844.183C1892.49 841.271 1893.9 836.209 1893.9 829.041L1894.17 723.586C1894.17 718.278 1893.54 714.694 1892.29 712.835C1891.03 710.998 1888.55 710.057 1884.85 710.057L1876.34 710.595L1875.8 709.609L1877.59 698.499C1894.62 699.037 1906.22 699.306 1912.45 699.306C1932.34 699.306 1947.79 699.104 1958.86 698.679C1969.9 698.275 1979.51 697.469 1987.71 696.259L1988.52 697.783C1985.47 710.998 1983.52 724.885 1982.69 739.445L1970.69 740.43L1971.13 729.679C1971.13 723.833 1970.37 719.778 1968.89 717.494C1967.39 715.231 1964.14 713.731 1959.13 713.014C1954.11 712.252 1945.33 711.849 1932.79 711.849C1926.92 711.849 1922.89 712.028 1920.69 712.387C1918.54 712.7 1917.13 713.462 1916.48 714.716C1915.81 715.971 1915.4 718.278 1915.23 721.615L1913.16 770.266L1939.06 770.535C1945.55 770.535 1955.77 769.616 1969.7 767.757L1970.69 769.012L1967.19 783.885C1948.6 783.347 1936.86 783.078 1931.98 783.078C1926.47 783.078 1920.06 783.683 1912.72 784.87L1911.73 832.804C1911.73 837.643 1912.13 841.047 1912.99 843.018C1913.81 844.945 1915.52 846.221 1918.09 846.871C1920.65 847.543 1925.13 847.857 1931.53 847.857C1945.55 847.857 1955.54 847.207 1961.46 845.885C1967.42 844.519 1971.67 841.831 1974.18 837.822C1976.69 833.835 1978.59 826.958 1979.91 817.215L1991.02 815.96L1991.74 817.215Z" fill="#303841" fill-rule="evenodd" opacity="1" stroke="none"/>
<g opacity="1">
<clipPath id="ClipPath">
<path d="M880.347 139.056L1353.42 139.056L1353.42 556.821L880.347 556.821L880.347 139.056Z" fill-rule="evenodd"/>
</clipPath>
<g clip-path="url(#ClipPath)">
<path d="M1341.95 556.687C1339.71 556.687 1337.49 555.926 1335.65 554.358L1135.7 383.497C1133.5 381.638 1132.25 378.928 1132.25 376.016L1132.25 163.695L1034.7 163.695L1034.7 273.495C1034.7 277.348 1032.46 280.865 1028.94 282.455C1025.47 284.045 1021.35 283.418 1018.48 280.865L884.356 161.253C880.324 157.647 879.944 151.443 883.505 147.366C887.134 143.312 893.271 142.931 897.28 146.537L1015.17 251.701L1015.17 153.884C1015.17 148.464 1019.53 144.051 1024.93 144.051L1141.97 144.051C1147.34 144.051 1151.73 148.464 1151.73 153.884L1151.73 371.469L1348.24 539.373C1352.34 542.912 1352.83 549.094 1349.36 553.215C1347.48 555.5 1344.72 556.687 1341.95 556.687Z" fill="#303841" fill-rule="evenodd" opacity="1" stroke="none"/>
</g>
</g>
</g>
</g>
</svg>
